<?xml version="1.0" standalone="no"?>
<!DOCTYPE svg PUBLIC "-//W3C//DTD SVG 1.1//EN" "http://www.w3.org/Graphics/SVG/1.1/DTD/svg11.dtd" >
<svg>
<metadata>
Created by FontForge 20090622 at Sun May  1 04:48:11 2016
 By ffonts
Copyright (c) 2016 by Zetafonts. All rights reserved.
</metadata>
<defs>
<font id="BubbleboddyNeueTrial-Light" horiz-adv-x="1210" >
  <font-face 
    font-family="Bubbleboddy Neue Trial"
    font-weight="300"
    font-stretch="normal"
    units-per-em="2000"
    panose-1="0 0 0 0 0 0 0 0 0 0"
    ascent="1600"
    descent="-400"
    x-height="953"
    cap-height="1268"
    bbox="-170 -474 13540 1702"
    underline-thickness="100"
    underline-position="-100"
    unicode-range="U+000D-U+2265"
  />
<missing-glyph horiz-adv-x="454" 
 />
    <glyph glyph-name=".notdef" horiz-adv-x="454" 
 />
    <glyph glyph-name="j" unicode="j" horiz-adv-x="391" 
d="M-136 -272q0 26 15.5 45.5t41.5 26.5q86 8 139 66t57 167v847q0 36 20.5 64.5t58.5 28.5q19 0 34 -8t25 -21t15 -30t5 -34v-772q0 -98 -18 -182t-57.5 -145.5t-103 -96.5t-153.5 -35q-32 0 -55.5 22.5t-23.5 56.5zM105 1218q0 38 26 65t65 27q19 0 36 -7t29.5 -19.5
t19.5 -29.5t7 -36q0 -38 -27 -64t-65 -26q-39 0 -65 26t-26 64z" />
    <glyph glyph-name="k" unicode="k" horiz-adv-x="1087" 
d="M274 462l530 416l62.5 47.5t65.5 45.5q11 5 24.5 9t27.5 2q20 -4 36.5 -19t20.5 -38q3 -17 1 -31q-2 -11 -10 -23.5t-20 -24.5t-25.5 -23t-24.5 -19l-239 -188l302 -494q13 -17 16 -36t-2.5 -36.5t-19.5 -31t-35 -17.5q-14 -6 -26.5 -4t-23.5 8.5t-19.5 15t-14.5 16.5
l-300 487l-170 -133.5l-156 -123.5v195zM116 1192q0 33 22 56t57 23q32 0 55.5 -23t23.5 -56v-1118q0 -33 -23.5 -56t-55.5 -23q-35 0 -57 23t-22 56v1118z" />
    <glyph glyph-name="l" unicode="l" horiz-adv-x="390" 
d="M116 1192q0 33 22 56t57 23q32 0 55.5 -23t23.5 -56v-1118q0 -33 -23.5 -56t-55.5 -23q-35 0 -57 23t-22 56v1118z" />
    <glyph glyph-name="m" unicode="m" horiz-adv-x="1648" 
d="M1374 499q0 67 -9.5 126t-34.5 102t-67.5 68t-109.5 25q-63 0 -110.5 -26t-78.5 -70.5t-46.5 -103.5t-15.5 -124l-68 246q12 31 36.5 71t64 75t96 59t132.5 24q108 0 179.5 -38.5t113.5 -104.5t59 -155t17 -189v-411q0 -13 -5 -26.5t-15 -25t-25 -19t-34 -7.5
q-34 0 -56.5 23t-22.5 57v424zM116 931q0 20 11 31t31 11q14 0 27.5 -6t24.5 -19.5t19 -36t11 -56.5l21 -139l13 -25v-617q0 -33 -23.5 -56t-55.5 -23q-35 0 -57 23t-22 56v857zM746 499q0 67 -9.5 126t-34.5 102t-68 68t-109 25q-63 0 -110.5 -26t-78.5 -70.5t-46.5 -103.5
t-15.5 -124l-72 231q12 31 37 73.5t65.5 80t97.5 64t132 26.5q109 0 180.5 -37.5t113.5 -102.5t59 -153t17 -189v-416q0 -13 -5.5 -27t-15.5 -25t-25 -18.5t-33 -7.5q-34 0 -56.5 23t-22.5 57v424z" />
    <glyph glyph-name="n" unicode="n" 
d="M937 482q0 70 -23.5 131.5t-65.5 107.5t-100 72.5t-127 26.5q-68 0 -130.5 -28t-110.5 -75t-77 -109t-29 -129l-43 270q24 39 65 79t94 71.5t115.5 51.5t130.5 20q101 0 185 -38.5t145 -104.5t94.5 -155t33.5 -189v-409q0 -14 -5.5 -28t-15.5 -25.5t-24.5 -19t-32.5 -7.5
q-34 0 -56.5 23t-22.5 57v407zM116 931q0 20 11 31t31 11q14 0 27 -5.5t24.5 -19t19.5 -36.5t11 -57l21 -184l13 -25v-572q0 -33 -23.5 -56t-55.5 -23q-35 0 -57 23t-22 56v857z" />
    <glyph glyph-name="o" unicode="o" horiz-adv-x="1099" 
d="M60 484q0 100 38.5 189t105.5 156t155.5 105.5t189.5 38.5t190 -38.5t155.5 -105.5t105 -156t38.5 -189q0 -101 -38.5 -190t-105 -155.5t-155.5 -105t-190 -38.5t-189.5 38.5t-155.5 105t-105.5 155.5t-38.5 190zM221 484q0 -70 25.5 -131.5t69.5 -107.5t104 -72.5
t129 -26.5t129 26.5t104 72.5t69.5 107.5t25.5 131.5q0 69 -25.5 130.5t-69.5 107.5t-104 72.5t-129 26.5t-129 -26.5t-104 -72.5t-69.5 -107.5t-25.5 -130.5z" />
    <glyph glyph-name="p" unicode="p" horiz-adv-x="1154" 
d="M116 931q0 20 11 31t31 11q14 0 27.5 -6t24.5 -19.5t19 -36t11 -56.5l21 -109l13 -25v-958q0 -34 -23.5 -56.5t-55.5 -22.5q-35 0 -57 22.5t-22 56.5v1168zM158 484q0 100 33.5 189t94.5 156t144.5 105.5t184.5 38.5t188.5 -38.5t152 -105.5t101.5 -156t37 -189
q0 -101 -37 -190t-101.5 -155.5t-152 -105t-188.5 -38.5q-95 0 -178 38.5t-145 105t-98 155.5t-36 190zM277 484q0 -70 25.5 -131.5t69.5 -107.5t104 -72.5t129 -26.5t129 26.5t104 72.5t69.5 107.5t25.5 131.5q0 69 -25.5 130.5t-69.5 107.5t-104 72.5t-129 26.5
t-129 -26.5t-104 -72.5t-69.5 -107.5t-25.5 -130.5z" />
    <glyph glyph-name="q" unicode="q" horiz-adv-x="1154" 
d="M1038 -237q0 -34 -22 -56.5t-57 -22.5q-32 0 -55.5 22.5t-23.5 56.5v958l13 25l21 109q6 67 30 92.5t52 25.5q20 0 31 -11t11 -31v-1168zM992 484q0 -101 -35 -190t-96 -155.5t-143.5 -105t-178.5 -38.5q-101 0 -188.5 38.5t-152 105t-101.5 155.5t-37 190q0 100 37 189
t101.5 156t152 105.5t188.5 38.5t184.5 -38.5t143 -105.5t92.5 -156t33 -189zM877 484q0 69 -25.5 130.5t-69.5 107.5t-104 72.5t-129 26.5t-129 -26.5t-104 -72.5t-69.5 -107.5t-25.5 -130.5q0 -70 25.5 -131.5t69.5 -107.5t104 -72.5t129 -26.5t129 26.5t104 72.5
t69.5 107.5t25.5 131.5z" />
    <glyph glyph-name="r" unicode="r" horiz-adv-x="811" 
d="M235 759q13 24 39 55t62.5 60.5t83.5 54t102 35.5q29 4 71.5 3.5t81.5 -10t66.5 -29.5t27.5 -54q0 -23 -14 -39.5t-33 -23.5q-11 -3 -20 -3t-19.5 1l-25 2.5t-35.5 2.5q-29 2 -59.5 1.5t-61.5 -10.5q-43 -13 -81.5 -39.5t-68.5 -63t-50 -83t-27 -98.5zM116 931
q0 20 11 31t31 11q14 0 27 -5.5t24.5 -19t19.5 -36.5t11 -57l21 -184l13 -25v-572q0 -33 -23.5 -56t-55.5 -23q-35 0 -57 23t-22 56v857z" />
    <glyph glyph-name="s" unicode="s" horiz-adv-x="982" 
d="M488 -5q-68 0 -138 16.5t-130 49t-102.5 79.5t-55.5 109q-3 19 3.5 35.5t18.5 26t28.5 11t33.5 -9.5q16 -8 41 -36t64.5 -58.5t95 -56t132.5 -29.5q57 -1 108 5.5t90 24t62 46.5t23 72q0 33 -28 57.5t-74 44.5t-104.5 38l-119 37.5t-117.5 43.5t-101 56t-69 74.5
t-21 99.5q3 45 25 90t66.5 80t113.5 57t166 22q59 0 116 -10.5t106.5 -32t89.5 -55.5t64 -80q8 -21 2 -39.5t-20.5 -29.5t-34 -13.5t-37.5 6.5q-20 12 -43.5 30t-53.5 35.5t-69.5 31t-92.5 16.5q-112 5 -177.5 -27t-65.5 -101q0 -40 59 -77.5t193 -76.5l138 -42t124.5 -54
t90 -78t34.5 -115q0 -75 -37.5 -127t-98.5 -84.5t-139 -47t-159 -14.5z" />
    <glyph glyph-name="t" unicode="t" horiz-adv-x="641" 
d="M538 943q32 0 55 -22t23 -56q0 -16 -6 -30t-16.5 -24.5t-25 -16.5t-30.5 -6h-430q-33 0 -55.5 22.5t-22.5 54.5q0 34 22.5 56t55.5 22h430zM241 1192q0 33 22 56t57 23q33 0 56 -23t23 -56v-1118q0 -33 -23 -56t-56 -23q-35 0 -57 23t-22 56v1118z" />
    <glyph glyph-name="u" unicode="u" 
d="M274 485q0 -69 23.5 -130.5t65.5 -107.5t100 -73t126 -27t131 28t111 75.5t77 109t29 128.5l42 -270q-24 -39 -65 -79t-94 -71.5t-116 -51.5t-130 -20q-101 0 -185 38.5t-144.5 104.5t-94.5 155t-34 190v409q0 14 5.5 28t15.5 25.5t24.5 19t32.5 7.5q34 0 57 -23.5
t23 -56.5v-408zM1094 37q0 -42 -42 -42q-14 0 -27 5.5t-24.5 19t-19.5 36t-11 57.5l-21 183l-12 25v573q0 33 23 56t55 23q35 0 57 -23t22 -56v-857z" />
    <glyph glyph-name="w" unicode="w" horiz-adv-x="1617" 
d="M808 716l-233 -590q-10 -25 -21.5 -47.5t-25 -40.5t-28 -29.5t-30.5 -13.5q-25 -4 -46 8t-32 37l-312 726q-14 30 -25.5 60t-20.5 60q-4 24 6.5 46t36.5 33q30 14 59.5 2.5t45.5 -41.5l283 -685l271 687q8 20 25.5 31.5t38.5 13.5q25 2 47 -10t35 -35l267 -687l287 687
q13 30 44 40.5t62 -3.5q24 -11 35 -32t8 -45q0 -3 -4.5 -16.5t-11.5 -31.5l-15 -37.5t-15 -34.5l-320 -728q-17 -38 -60 -44q-25 -5 -51 7t-36 38z" />
    <glyph glyph-name="v" unicode="v" horiz-adv-x="942" 
d="M545 40q-11 -22 -30.5 -34t-39.5 -11q-25 -4 -46 9t-33 36l-357 820q-14 30 -4.5 60.5t41.5 44.5q30 14 60 2.5t45 -41.5l288 -691l291 693q6 15 18 25.5t26 16t30 4.5t31 -9q15 -6 25.5 -17t16 -25t5 -29.5t-6.5 -30.5z" />
    <glyph glyph-name="x" unicode="x" horiz-adv-x="1054" 
d="M866 255l35.5 -34l40.5 -38l36.5 -35l24.5 -24q15 -14 18.5 -29.5t0.5 -30t-9 -26t-11 -17.5q-10 -12 -24 -18.5t-29 -7t-29.5 4t-26.5 15.5l-31 31.5l-35 36l-35.5 36.5l-32.5 33l-233 231l-233 -233l-33.5 -34.5l-35 -36l-33 -33.5t-28.5 -28q-8 -9 -21 -15t-28 -7.5
t-31 3.5t-30 18q-9 9 -15.5 22t-8 27.5t3 29t17.5 26.5q11 12 28 28.5l36 34.5l38.5 36.5l35.5 33.5l239 227l-242 232q-17 15 -37.5 35l-39 37.5l-31.5 29.5l-13 12q-30 29 -33.5 63t20.5 57q10 10 24 17t30.5 6.5t35 -10t39.5 -31.5q7 -8 17 -18l19.5 -20l25.5 -26
l284 -285l365 368q6 6 17.5 13t26.5 9.5t32 -1.5t33 -20q19 -19 23 -49.5t-20 -56.5q-11 -13 -28 -30l-36.5 -35.5l-39 -36l-35.5 -32.5l-239 -226z" />
    <glyph glyph-name="y" unicode="y" horiz-adv-x="954" 
d="M395 60l-15 34.5l-39.5 90.5l-55.5 127l-63 145l-173 394q-14 35 -10 68t41 50q31 14 65 1.5t51 -56.5l282 -693l117 287l89 219l57 141.5l22 55.5q6 13 16 24.5t24 19t31 9t37 -7.5q11 -5 21.5 -14.5t17 -23.5t7 -31t-8.5 -37l-399 -924q-22 -52 -45.5 -94.5t-56 -74
t-79 -50t-115.5 -21.5q-36 -1 -64 17.5t-28 59.5q0 22 11.5 34t30.5 19.5t43 13.5t48.5 16t47 27t39.5 47z" />
    <glyph glyph-name="z" unicode="z" horiz-adv-x="1061" 
d="M946 874q0 -13 -3 -25.5t-13 -28t-29 -37.5t-51 -55l-563 -572h617q37 0 60.5 -17.5t23.5 -52.5q0 -36 -25.5 -56t-55.5 -20h-761q-29 0 -53 11.5t-31 43.5q-8 32 3 63.5t47 65.5l625 615l-535 -2q-39 0 -65.5 17.5t-26.5 52.5q0 31 23 53.5t68 22.5h659q21 0 37 -7
t27 -18t16.5 -25t5.5 -29z" />
    <glyph glyph-name="c" unicode="c" horiz-adv-x="977" 
d="M888 845q25 -26 25 -57q0 -19 -8.5 -34.5t-22.5 -25.5t-32 -12.5t-36 5.5q-51 37 -111.5 62.5t-128.5 30.5q-70 4 -134 -19t-112.5 -67t-77.5 -107t-29 -139q0 -72 27.5 -134.5t75 -107.5t112 -69.5t138.5 -20.5q61 2 119 25.5t103 65.5q14 9 32.5 12t35.5 -3
q22 -5 37 -24.5t15 -45.5q0 -31 -31 -64t-82.5 -60.5t-117.5 -45t-136 -17.5q-101 0 -190 38.5t-155.5 105t-105 155.5t-38.5 190t38.5 190t105 155.5t155.5 105t190 38.5q46 0 93.5 -7.5t92.5 -23t84.5 -39.5t68.5 -56z" />
    <glyph glyph-name="a" unicode="a" horiz-adv-x="1162" 
d="M1041 54q0 -29 -15 -45t-40 -16q-28 0 -45.5 16.5t-23.5 45.5l-21 165l-13 25v234q0 33 23.5 56t55.5 23q35 0 57 -23t22 -56v-425zM1001 482q0 -101 -32.5 -190t-91.5 -155.5t-141.5 -105t-183.5 -38.5t-189.5 38.5t-155.5 105t-105.5 155.5t-38.5 190t38.5 190
t105.5 155.5t155.5 105t189.5 38.5t183.5 -38.5t141.5 -105t91.5 -155.5t32.5 -190zM880 482q0 70 -25.5 131.5t-69.5 107.5t-104 72.5t-129 26.5t-129 -26.5t-104 -72.5t-69.5 -107.5t-25.5 -131.5q0 -69 25.5 -130.5t69.5 -107.5t104 -73t129 -27t129 27t104 73
t69.5 107.5t25.5 130.5zM1041 435q0 -33 -22 -56t-57 -23q-32 0 -55.5 23t-23.5 56v284l13 25l21 108q6 67 30 92.5t52 25.5q42 0 42 -42v-493z" />
    <glyph glyph-name="d" unicode="d" horiz-adv-x="1159" 
d="M880 1203q0 33 23.5 56t55.5 23q35 0 57 -23t22 -56v-1168q0 -20 -11 -31t-31 -11q-14 0 -27.5 6t-24.5 19.5t-19 36t-11 56.5l-21 109l-13 25v958zM992 482q0 -101 -33 -190t-92.5 -155.5t-143 -105t-184.5 -38.5t-188.5 38.5t-152 105t-101.5 155.5t-37 190t37 190
t101.5 155.5t152 105t188.5 38.5q92 0 174.5 -38.5t144.5 -105t98 -155.5t36 -190zM880 482q0 70 -26 131.5t-70.5 107.5t-105 72.5t-129.5 26.5t-129 -26.5t-104 -72.5t-69.5 -107.5t-25.5 -131.5q0 -69 25.5 -130.5t69.5 -107.5t104 -73t129 -27t129.5 27t105 73
t70.5 107.5t26 130.5z" />
    <glyph glyph-name="exclam" unicode="!" horiz-adv-x="391" 
d="M196 284q-32 0 -55.5 22.5t-23.5 69.5v818q0 47 22 73t57 26t57 -26t22 -73v-818q0 -47 -23.5 -69.5t-55.5 -22.5zM287 38q0 -38 -26.5 -64.5t-64.5 -26.5q-20 0 -36.5 7t-29.5 19.5t-20 29t-7 35.5q0 39 27 64.5t66 25.5q38 0 64.5 -25.5t26.5 -64.5z" />
    <glyph glyph-name="quotedbl" unicode="&#x22;" horiz-adv-x="539" 
d="M151 1282q23 0 38.5 -10.5t24.5 -27.5t13 -37.5t4 -39.5l-6 -104q-2 -21 -4.5 -42.5t-10 -39t-21.5 -28.5t-38 -11q-25 0 -39 11.5t-21 29t-9.5 39t-3.5 41.5l-6 103q0 20 3.5 41t12.5 37.5t24 27t39 10.5zM391 1282q23 0 38.5 -10.5t24.5 -27.5t13 -37.5t4 -39.5
l-6 -104q-2 -21 -4.5 -42.5t-10 -39t-21.5 -28.5t-38 -11q-25 0 -39 11t-21 28t-9.5 39t-4.5 43l-5 102q0 20 3.5 41t12 38t24 27.5t39.5 10.5z" />
    <glyph glyph-name="percent" unicode="%" horiz-adv-x="1261" 
d="M43 1001q0 58 21.5 108.5t58.5 88t87 59t107 21.5q58 0 108.5 -21.5t88 -59t59 -88t21.5 -108.5q0 -57 -21.5 -107t-59 -87t-88 -58.5t-108.5 -21.5q-57 0 -107 21.5t-87 58.5t-58.5 87t-21.5 107zM162 1001q0 -35 11.5 -63.5t32 -49.5t49 -32.5t62.5 -11.5t63 11.5
t50 32.5t33 49.5t12 63.5q0 34 -12 63.5t-33 50.5t-50 33t-63 12t-62.5 -12t-49 -33t-32 -50.5t-11.5 -63.5zM849 1275q34 -2 52.5 -23.5t21.5 -47.5q0 -8 -3 -19t-8 -23t-9.5 -24t-7.5 -21l-106 -277l-99 -254.5l-98.5 -254l-105.5 -276.5q-8 -26 -25.5 -41.5t-40.5 -17.5
q-39 -3 -62.5 20t-26.5 54q0 8 3 19t7.5 23t9.5 24t8 21l105 277l98.5 253.5l98.5 253.5l106 277q5 17 17 28.5t26 16.5q15 10 39 12zM662 279q0 57 21.5 107.5t58.5 88t87 59.5t107 22q58 0 108.5 -22t88 -59.5t59 -88t21.5 -107.5q0 -58 -21.5 -108t-59 -87t-88 -58.5
t-108.5 -21.5q-57 0 -107 21.5t-87 58.5t-58.5 87t-21.5 108zM781 279q0 -35 11.5 -64t32 -50t49 -32.5t62.5 -11.5t63 11.5t50 32.5t33 50t12 64q0 34 -12 63t-33 50.5t-50 33.5t-63 12t-62.5 -12t-49 -33.5t-32 -50.5t-11.5 -63z" />
    <glyph glyph-name="ampersand" unicode="&#x26;" horiz-adv-x="1069" 
d="M715 168l77.5 -34l77.5 -34q-3 -39 -11 -60t-22.5 -31t-35 -12t-48.5 -2h-288q-83 0 -155.5 27.5t-127.5 77.5t-87.5 119t-36.5 152q-2 36 3 71q12 89 61.5 158.5t122.5 111.5q-44 35 -73 82.5t-40 106.5q-5 31 -3 66q3 63 29.5 118.5t70 97.5t101 66t121.5 24
q19 0 36 -3t30 -10.5t20.5 -21.5t7.5 -35q0 -23 -11.5 -40.5t-30.5 -24.5q-46 -6 -86.5 -18.5t-71 -34.5t-48.5 -55t-18 -81q0 -36 13 -68t36.5 -55.5t55 -37.5t67.5 -14h77l-56 -148l-21 -1q-49 0 -92 -19t-75 -51t-50.5 -75t-18.5 -92t18.5 -92t50.5 -75.5t75 -51
t92 -18.5h264v17zM420 774h123t143 0.5t143 0.5h123q32 0 53.5 -21t21.5 -54q0 -31 -21.5 -53t-53.5 -22h-530q-16 0 -31.5 6t-27.5 16t-19.5 24t-7.5 29q0 16 7 30t19 23.5t27 15t31 5.5zM715 973q0 33 22 56t57 23q33 0 56 -23t23 -56v-896q0 -33 -23 -56t-56 -23
q-35 0 -57 23t-22 56v896z" />
    <glyph glyph-name="quotesingle" unicode="'" horiz-adv-x="313" 
d="M152 1283q24 0 39 -11t24 -28.5t12.5 -39t3.5 -42.5v-98q0 -21 -3.5 -42t-12.5 -38.5t-24 -28.5t-39 -11t-39.5 11t-24.5 28.5t-12 38.5t-3 42v98q0 21 3 42.5t12 39t24.5 28.5t39.5 11z" />
    <glyph glyph-name="parenleft" unicode="(" horiz-adv-x="577" 
d="M589 -234q0 -33 -23 -54.5t-56 -21.5q-81 0 -152.5 30.5t-125.5 84t-85 125t-31 153.5v798q0 68 23.5 130t64 111.5t95.5 84.5t120 50q27 7 57 9.5t59 -0.5q23 -5 38.5 -24.5t15.5 -45.5q0 -16 -6 -31t-17 -26t-26 -18t-33 -7q-49 0 -91.5 -19t-74 -51.5t-49.5 -75
t-18 -90.5v-795q0 -36 10.5 -69.5t30 -61.5t46.5 -50.5t59 -35.5q25 -7 55 -14t55 -17.5t42 -27t17 -41.5z" />
    <glyph glyph-name="parenright" unicode=")" horiz-adv-x="598" 
d="M9 -233q0 13 4.5 26.5t13.5 25t23.5 19.5t34.5 10q48 0 91.5 19t76.5 51t52.5 75t19.5 91v795q0 48 -19 90.5t-51 74.5t-74.5 51t-89.5 19q-17 0 -32 7t-26 18t-17.5 26t-6.5 32q0 26 15.5 45t38.5 25q29 3 58.5 0.5t57.5 -9.5q64 -15 119.5 -50t96 -84.5t64 -111.5
t23.5 -131v-797q0 -82 -31 -154t-85 -125t-125.5 -84t-152.5 -31q-32 0 -55.5 22t-23.5 55z" />
    <glyph glyph-name="asterisk" unicode="*" horiz-adv-x="843" 
d="M277 891l-206 136q-12 8 -19 20t-9 25.5t0.5 27t10.5 25.5q17 25 45 31t51 -9l191 -125v212q0 27 20 46.5t49 19.5q27 0 48 -19.5t21 -46.5v-211l187 122q24 14 52 7.5t45 -30.5q7 -12 9.5 -26t0.5 -27.5t-9 -25.5t-19 -19l-205 -133l220 -144q23 -16 28.5 -44t-10.5 -53
q-8 -12 -20 -19.5t-25 -11t-26.5 -2t-25.5 9.5l-202 132v-231q0 -27 -21 -46t-48 -19q-29 0 -49 19t-20 46v233l-207 -135q-25 -15 -53 -7.5t-44 31.5q-15 24 -10.5 52.5t27.5 43.5z" />
    <glyph glyph-name="bracketleft" unicode="[" horiz-adv-x="465" 
d="M458 -231q0 -32 -23.5 -54t-55.5 -22h-182q-26 0 -41.5 14t-24 35.5t-11 47t-2.5 49.5v1355q0 32 23.5 53t55.5 21h182q32 0 55.5 -21.5t23.5 -55.5q0 -16 -6.5 -31t-17 -26t-25 -17.5t-30.5 -6.5l-103 3v-1265l103 3q16 0 30.5 -6.5t25 -18t17 -26.5t6.5 -31z" />
    <glyph glyph-name="bracketright" unicode="]" horiz-adv-x="462" 
d="M2 -231q0 16 6 31.5t17 26.5t25 17.5t31 6.5l102 -3v1265l-102 -3q-17 0 -31 6.5t-25 17.5t-17 26t-6 31q0 34 23 55.5t56 21.5h181q25 0 41 -13.5t24 -34.5t11 -46.5t3 -48.5v-1286q0 -24 -2.5 -49.5t-11 -47t-24 -35.5t-41.5 -14h-181q-16 0 -30 6t-25 16t-17.5 24
t-6.5 30z" />
    <glyph glyph-name="plus" unicode="+" horiz-adv-x="867" 
d="M495 170q0 -24 -18 -41t-43 -17q-24 0 -43 17t-19 41v562q0 24 19 41t43 17q25 0 43 -17t18 -41v-562zM713 520q24 0 41 -18t17 -43q0 -24 -17 -43t-41 -19h-562q-23 0 -40 19t-17 43q0 25 17 43t40 18h562z" />
    <glyph glyph-name="comma" unicode="," horiz-adv-x="303" 
d="M164 148q36 0 62 -25.5t22 -69.5q-11 -46 -30 -80t-40 -57t-42 -34.5t-35 -12.5q-18 0 -33 16t-17 50q-2 14 2 45.5t11 63.5q3 21 11.5 39.5t21 33t29.5 23t38 8.5z" />
    <glyph glyph-name="hyphen" unicode="-" horiz-adv-x="893" 
d="M740 504q24 0 41 -18t17 -44q0 -24 -17 -42.5t-41 -18.5h-562q-24 0 -41 18.5t-17 42.5q0 26 17 44t41 18h562z" />
    <glyph glyph-name="period" unicode="." horiz-adv-x="287" 
d="M52 85q0 38 26 64.5t65 26.5q19 0 36 -7t29.5 -19.5t19.5 -29t7 -35.5q0 -39 -27 -64.5t-65 -25.5q-39 0 -65 25.5t-26 64.5z" />
    <glyph glyph-name="slash" unicode="/" horiz-adv-x="803" 
d="M681 1274q17 -2 30 -10t21.5 -19t12.5 -24.5t4 -26.5q0 -8 -3.5 -19t-9 -23l-10.5 -23.5t-8 -20.5l-252 -579.5l-251 -579.5q-5 -12 -14 -22.5t-20.5 -17.5t-25.5 -10t-30 1q-19 4 -33.5 15.5t-22.5 27t-9 32t6 30.5q11 21 32.5 68.5l51 114l65 149.5l74.5 174l80 186.5
l80.5 188.5l76.5 179l68 159q13 32 47 42q18 10 40 8z" />
    <glyph glyph-name="braceleft" unicode="{" horiz-adv-x="483" 
d="M295 643v-349v-425q0 -7 5 -7h83q14 0 29 -5t27.5 -14.5t20.5 -24.5t8 -35q0 -24 -11 -39t-28.5 -23.5t-38.5 -11t-42 -2.5h-67q-35 1 -62 14.5t-45 34.5t-27.5 46t-9.5 49v530q0 25 -15 35.5t-33.5 18t-33.5 18.5t-15 38q0 26 15 36t33.5 17t33.5 18t15 41v116zM137 631
v507q0 24 9.5 49t27.5 45.5t45 34t62 15.5h67q21 0 42 -3t38.5 -11t28.5 -23.5t11 -39.5q0 -20 -8 -35t-20.5 -24.5t-27.5 -14.5t-29 -5h-83q-5 0 -5 -6v-577z" />
    <glyph glyph-name="one.001" horiz-adv-x="414" 
d="M143 352v402q-6 -5 -14 -13.5t-17.5 -16.5t-20 -13.5t-20.5 -5.5q-13 0 -23.5 5.5t-18 14.5t-11.5 19.5t-4 20.5q0 29 26 55l96 99l29 28t32 21q25 8 49 2q27 -7 41 -30t14 -59v-616zM301 448v-374q0 -33 -23 -56t-56 -23q-35 0 -57 23t-22 56v374h158z" />
    <glyph glyph-name="two.001" horiz-adv-x="1015" 
d="M944 73q0 -43 -31.5 -60.5t-81.5 -17.5h-651q-18 0 -37 4t-35 13t-26 23.5t-10 34.5q0 22 17 53.5t46.5 67.5t70 75t87.5 77q55 45 115 84t120 72l108.5 61.5t69 47.5t36 42.5t10.5 46.5q0 40 -26 68t-63.5 45t-79.5 24t-75 4q-46 -3 -92 -16t-83.5 -33t-61.5 -47
t-25 -58q-7 -21 -24.5 -33t-37.5 -13t-38 8t-26 30q-7 23 -5 48t10 49q17 40 53 76.5t88 64.5t118 44t142 16q108 0 183 -23.5t121.5 -61t67 -84t20.5 -91.5q-2 -60 -28.5 -103t-70.5 -78.5t-101 -67l-118 -67.5q-99 -60 -171 -120t-129 -129h520q27 0 50 -1t39.5 -8.5
t25.5 -23t9 -43.5z" />
    <glyph glyph-name="three.001" horiz-adv-x="934" 
d="M321 976h465q23 0 44.5 -13.5t30.5 -34.5q13 -30 1 -58.5t-37 -46.5l-343 -240q85 -5 157.5 -40t126 -92.5t84 -133t30.5 -162.5q0 -102 -34.5 -186t-96 -144t-145 -93t-182.5 -33q-39 0 -82 8t-84 21.5t-78.5 32.5t-65.5 40.5t-44.5 45t-16.5 47.5q0 26 16 46t39 25
q12 3 27 1t26 -9q25 -20 53.5 -39t60.5 -34t68.5 -24.5t78.5 -9.5q69 0 125.5 22t96.5 62.5t61.5 97.5t21.5 127q0 69 -23.5 126t-65.5 97.5t-101 63t-130 22.5q-29 0 -52.5 -4.5t-46.5 -4.5q-29 0 -50 16.5t-21 43.5q0 20 21 45t55 52.5t76 56l84 55l78.5 50t60.5 40.5
h-306zM363 818q-54 0 -108.5 -0.5t-108.5 -0.5q-42 0 -69.5 19.5t-27.5 58.5q0 36 23.5 58.5t71.5 22.5h191z" />
    <glyph glyph-name="four.001" horiz-adv-x="972" 
d="M298 916q4 15 14 26.5t23 18t28.5 8t30.5 -2.5q31 -9 48 -36.5t8 -58.5l-255 -822q-9 -30 -37.5 -44.5t-58.5 -5.5q-32 10 -48.5 37t-7.5 58zM859 152q31 0 53 -23t22 -55q0 -31 -22 -55t-53 -24h-741q-31 0 -52.5 24t-21.5 55q0 32 21.5 55t52.5 23h741zM598 20v81v109
v40.5v35.5v26v12q-1 33 20 54t53 21t53 -21t21 -54v-114q0 -48 1 -109l4 -313q0 -32 -23.5 -53t-55.5 -21t-55.5 21t-22.5 53z" />
    <glyph glyph-name="five.001" horiz-adv-x="960" 
d="M548 817h-319v-225q54 2 105 2.5t104 0.5q99 0 183.5 -31t146 -88t96.5 -137t35 -179q0 -101 -34 -185.5t-94.5 -145t-145 -94.5t-185.5 -34q-121 0 -209 41t-133 106q-15 26 -10 51q5 20 23 35t44 15q11 0 23.5 -4.5t20.5 -9.5q80 -71 216 -77q70 -5 130 14t104 58
t69.5 97t25.5 133q0 72 -26.5 129.5t-73 97t-109 59.5t-135.5 16q-45 -5 -90 -11t-93 -6q-24 0 -49.5 1.5t-47 9t-35.5 22t-14 40.5q0 100 -2 201t-2 200q0 22 14 36.5t46 14.5h439zM497 970h249q31 0 52 -22.5t21 -53.5q0 -30 -21 -53.5t-52 -23.5h-280z" />
    <glyph glyph-name="six.001" horiz-adv-x="1058" 
d="M577 962q91 -7 171.5 -47.5t140 -104.5t94 -148t34.5 -178q0 -101 -38.5 -190t-105 -155.5t-155.5 -105t-190 -38.5t-190 38.5t-155.5 105t-105 155.5t-38.5 190q0 61 16 119t40 109l39.5 82l49.5 103.5l52.5 109l47.5 98l34 71l13 27.5q6 14 16.5 29.5t25 26t33 13
t40.5 -7.5q22 -11 31.5 -27t10 -35.5t-6 -40.5t-16.5 -40l-98 -203q47 23 99 34.5t111 9.5zM202 484q0 -70 25 -131t69 -106.5t103.5 -72t128.5 -26.5t128.5 26.5t104 72t69.5 106.5t25 131q0 69 -25 130t-69.5 106.5t-104 72t-128.5 26.5t-128.5 -26.5t-103.5 -72
t-69 -106.5t-25 -130z" />
    <glyph glyph-name="eight.001" horiz-adv-x="1011" 
d="M243 1017q0 54 20.5 102t56 84t83 57t102.5 21q54 0 102 -21t84 -57t57 -84t21 -102q0 -51 -20 -93t-52 -72q57 -24 106 -64t84.5 -92t56 -114t20.5 -129q0 -95 -36.5 -178t-98.5 -145.5t-146 -98.5t-178 -36q-95 0 -178.5 36t-146 98.5t-98.5 145.5t-36 178
q0 67 20 129.5t56 115t85 92.5t106 63q-70 63 -70 164zM205 453q0 -63 23 -118t63.5 -95.5t95.5 -64t118 -23.5t117.5 23.5t95 64t64 95.5t23.5 118q0 61 -23 115.5t-63.5 95.5t-95.5 65t-118 26q-63 0 -118 -23.5t-95.5 -64.5t-63.5 -96t-23 -118zM389 1020q0 -49 31 -83.5
t85 -34.5q25 0 47 8.5t38 24.5t25 37.5t9 47.5q0 25 -9 47t-25 38.5t-38 25.5t-47 9t-46 -9t-36.5 -25.5t-24.5 -38.5t-9 -47z" />
    <glyph glyph-name="nine.001" horiz-adv-x="1078" 
d="M642 -300q-20 3 -33.5 14t-21.5 28q-14 22 -11 47q27 68 58.5 129.5l64.5 128.5q-48 -23 -99.5 -34.5t-110.5 -8.5q-92 7 -172.5 47.5t-140 104.5t-94 148t-34.5 178q0 101 38.5 190t105 155.5t155.5 105t190 38.5t190 -38.5t155.5 -105t105 -155.5t38.5 -190
q0 -63 -16.5 -122.5t-40.5 -109.5l-244 -507q-15 -37 -52 -43q-8 -2 -15.5 -2t-15.5 2zM864 482q0 70 -25 131t-69.5 106.5t-104 72t-128.5 26.5t-128.5 -26.5t-103.5 -72t-69 -106.5t-25 -131t25 -131t69 -106.5t103.5 -71.5t128.5 -26t128.5 26t104 71.5t69.5 106.5
t25 131z" />
    <glyph glyph-name="seven.001" horiz-adv-x="990" 
d="M863 972q31 0 53 -23t22 -55q0 -31 -22 -55t-53 -24h-726q-32 0 -53.5 24t-21.5 55q0 32 21.5 55t53.5 23h726zM793 938q16 26 46.5 32.5t58.5 -10.5q27 -17 36 -47t-7 -57l-698 -1123q-8 -13 -21 -21.5t-27.5 -12t-29.5 -1t-28 10.5q-29 17 -37 47.5t8 57.5z" />
    <glyph glyph-name="zero.001" horiz-adv-x="1091" 
d="M56 484q0 100 38.5 189t105.5 156t155.5 105.5t189.5 38.5t190 -38.5t155.5 -105.5t105 -156t38.5 -189q0 -101 -38.5 -190t-105 -155.5t-155.5 -105t-190 -38.5t-189.5 38.5t-155.5 105t-105.5 155.5t-38.5 190zM219 484q0 -70 25 -131t69 -106.5t103.5 -72t128.5 -26.5
t128.5 26.5t104 72t69.5 106.5t25 131q0 69 -25 130t-69.5 106.5t-104 72t-128.5 26.5t-128.5 -26.5t-103.5 -72t-69 -106.5t-25 -130z" />
    <glyph glyph-name="backslash" unicode="\" horiz-adv-x="816" 
d="M84 1261q13 10 27.5 14t28.5 2.5t27 -8t22 -15.5q6 -6 11 -16.5l10.5 -22.5t10 -23.5t8.5 -20.5l87.5 -194.5l92.5 -203l93.5 -204.5l90.5 -199.5l84.5 -188l74.5 -169.5q13 -24 8 -51t-26 -43q-17 -12 -35.5 -16t-36 0t-33.5 17t-26 35l-135.5 301l-139 310.5l-137 308
l-130.5 294.5q-16 31 0 59q2 9 8 18t15 16z" />
    <glyph glyph-name="bar" unicode="|" horiz-adv-x="391" 
d="M194 1283q37 0 58 -25.5t21 -57.5v-1396q0 -33 -23 -56t-56 -23q-42 0 -60 23t-18 55v1401q0 32 22.5 55.5t55.5 23.5z" />
    <glyph glyph-name="braceright" unicode="}" horiz-adv-x="483" 
d="M346 719v-116q0 -30 15 -41t33 -18t33 -17t15 -36q0 -18 -7 -28.5t-18 -17t-23 -11t-23 -11t-18 -16t-7 -26.5v-530q0 -24 -9.5 -49t-27.5 -46t-45 -34.5t-63 -14.5h-66q-21 0 -42 2.5t-38.5 11t-28.5 23.5t-11 39q0 20 8 35t20 24.5t27 14.5t29 5h83q6 0 6 7v425v349z
M188 543v577q0 6 -6 6h-83q-14 0 -29 5t-27 14.5t-20 24.5t-8 35q0 24 11 39.5t28.5 23.5t38.5 11t42 3h66q36 -2 63 -15.5t45 -34t27.5 -45.5t9.5 -49v-507z" />
    <glyph glyph-name="colon" unicode=":" horiz-adv-x="304" 
d="M60 879q0 19 7 36t19.5 29.5t29 19.5t35.5 7t36 -7t29.5 -19.5t20 -29.5t7.5 -36t-7.5 -35.5t-20 -29t-29.5 -19.5t-36 -7q-38 0 -64.5 26.5t-26.5 64.5zM60 86q0 19 7 36t19.5 29.5t29 19.5t35.5 7t36 -7t29.5 -19.5t20 -29.5t7.5 -36t-7.5 -35.5t-20 -29t-29.5 -19.5
t-36 -7q-38 0 -64.5 26.5t-26.5 64.5z" />
    <glyph glyph-name="semicolon" unicode=";" horiz-adv-x="321" 
d="M67 880q0 38 26 64.5t65 26.5q19 0 36 -7t29.5 -19.5t19.5 -29t7 -35.5q0 -39 -27 -64.5t-65 -25.5q-39 0 -65 25.5t-26 64.5zM183 144q30 -5 49 -29.5t14 -61.5q-10 -46 -29 -80.5t-41 -57t-43 -34t-34 -12.5q-18 0 -33 16t-17 50q-1 7 -0.5 19t2.5 27t5 31.5l6 32.5
q7 42 32.5 73t67.5 31q8 0 21 -5z" />
    <glyph glyph-name="quoteleft" unicode="&#x2018;" horiz-adv-x="292" 
d="M122 999q-32 0 -53 21.5t-25 50.5q-7 25 6 59t37 64t54 51.5t57 23.5q26 2 42 -13t16 -47q0 -21 -8.5 -56.5t-25.5 -69.5t-42 -59t-58 -25z" />
    <glyph glyph-name="quoteright" unicode="&#x2019;" horiz-adv-x="300" 
d="M172 1266q34 0 58.5 -20.5t28.5 -51.5q5 -26 -9 -60t-37.5 -64.5t-53 -52t-56.5 -21.5q-26 0 -41.5 13.5t-15.5 45.5q-1 13 2.5 33.5t10 44t17 47.5t24.5 43t32 31t40 12z" />
    <glyph glyph-name="quotedblleft" unicode="&#x201c;" horiz-adv-x="581" 
d="M133 1001q-33 7 -51 26.5t-23 43.5q-1 5 -1.5 12t0.5 14q10 47 31.5 79.5t45.5 53t47 30t37 9.5q26 0 42.5 -14t16.5 -46q0 -17 -4 -41t-12 -50t-20 -50.5t-28 -42t-36.5 -25t-44.5 0.5zM397 995q-17 0 -32.5 6.5t-28 17t-21 24t-11.5 28.5q-1 6 -1.5 12t0.5 14
q10 47 31.5 79.5t45.5 53t47 30t37 9.5q26 0 42 -14t16 -46q0 -21 -7 -57t-22.5 -71t-39 -60.5t-56.5 -25.5z" />
    <glyph glyph-name="quotedblright" unicode="&#x201d;" horiz-adv-x="577" 
d="M457 1264q31 -7 49.5 -26.5t23.5 -43.5q1 -7 1.5 -13.5t-0.5 -12.5q-11 -46 -32.5 -78.5t-46 -53.5t-47.5 -30.5t-36 -9.5q-26 0 -41.5 13.5t-15.5 45.5q-1 13 2 34t9.5 44.5t16.5 48t24 44t32 31.5t40 12q8 0 21 -5zM211 1264q32 -7 50 -26.5t23 -43.5l2 -13.5t-1 -12.5
q-11 -46 -32.5 -78.5t-46 -53.5t-47.5 -30.5t-36 -9.5q-26 0 -41.5 13.5t-15.5 45.5q-1 13 2 34t9.5 44.5t16.5 48t24 44t32 31.5t40 12q8 0 21 -5z" />
    <glyph glyph-name="quotesinglbase" unicode="&#x201a;" horiz-adv-x="315" 
d="M48 -65q-1 7 -0.5 19t2 27.5t4.5 32.5l6 33q3 21 11.5 39.5t21.5 33t30 23t37 8.5q30 0 54 -17.5t29 -51.5q4 -26 -8 -62t-34 -69t-49 -57t-53 -25q-19 0 -33.5 16t-17.5 50z" />
    <glyph glyph-name="quotedblbase" unicode="&#x201e;" horiz-adv-x="540" 
d="M52 -70q-1 7 -0.5 19t2 27.5t4.5 32.5l6 33q3 21 11.5 39.5t21.5 33t30 23t37 8.5q30 0 54 -17.5t29 -51.5q4 -26 -8 -62t-34 -69t-49 -57t-53 -25q-19 0 -33.5 16t-17.5 50zM290 -70q-1 7 -0.5 19t2 27.5t4.5 32.5l6 33q3 21 11.5 39.5t21.5 33t30 23t37 8.5
q30 0 54 -17.5t29 -51.5q4 -26 -8 -62t-34 -69t-49 -57t-53 -25q-19 0 -33.5 16t-17.5 50z" />
    <glyph glyph-name="grave" unicode="`" horiz-adv-x="286" 
d="M104 1300q19 0 45 -19.5t49.5 -44t40 -48t17.5 -31.5q2 -7 3.5 -14.5t-0.5 -13.5q-2 -15 -10.5 -25.5t-22.5 -14.5q-18 -8 -36 -3q-10 1 -35 16t-51.5 36t-47.5 43.5t-23 37.5q-5 34 15 57.5t56 23.5z" />
    <glyph glyph-name="acute" unicode="&#xb4;" horiz-adv-x="677" 
d="M184 1300q36 0 56 -23.5t15 -57.5q-2 -15 -23 -37.5t-47.5 -43.5t-51.5 -36t-35 -16q-18 -5 -36 3q-14 4 -22.5 14.5t-10.5 25.5q-3 13 2 28q1 8 18 31.5t40.5 48t49 44t45.5 19.5z" />
    <glyph glyph-name="question" unicode="?" horiz-adv-x="973" 
d="M368 352q0 60 13.5 101t39 73t62 60.5l82.5 61.5q33 23 63 49.5t53 56t36.5 61.5t13.5 66q0 61 -21.5 108.5t-56 79t-78.5 48t-89 16.5q-84 0 -143 -38t-95 -97q-11 -20 -21 -36.5t-21.5 -28.5t-26 -18.5t-32.5 -4.5q-15 1 -28.5 8.5t-22.5 19.5t-12.5 27t1.5 32
q7 47 40 98.5t86.5 94.5t125.5 71t159 28q74 0 144.5 -29t125.5 -81.5t88.5 -126t33.5 -161.5q0 -99 -53 -177t-153 -151l-66 -47t-52.5 -45.5t-38 -56t-22.5 -79.5q-3 -18 -10.5 -30t-16.5 -19t-18.5 -10t-16.5 -3q-11 0 -24 3.5t-24 12.5t-18 24t-7 39zM344 49q0 19 7 36
t19.5 29.5t29 20t35.5 7.5t36 -7.5t29.5 -20t19.5 -29.5t7 -36t-7 -35.5t-19.5 -29t-29.5 -19.5t-36 -7q-38 0 -64.5 26.5t-26.5 64.5z" />
    <glyph glyph-name="B" unicode="B" horiz-adv-x="1130" 
d="M126 1207q0 -2 0.5 -3t0.5 -2zM121 1237q0 14 11.5 23t46.5 9h501q64 0 121 -22t101.5 -61t72 -92.5t33.5 -116.5q4 -55 -8 -114q-6 -29 -18.5 -54.5t-27.5 -46t-32.5 -36.5t-33.5 -26q27 -12 55.5 -33.5t53.5 -51.5t44 -67.5t28 -82.5q5 -28 7 -56.5t0 -57.5
q-5 -77 -37.5 -142t-85 -112.5t-121 -74.5t-144.5 -27h-478q-48 0 -63.5 26.5t-15.5 77.5v1079q0 6 -1 12t-3 12l-1 5q-2 8 -3.5 15t-1.5 15zM287 623v-480h394q50 0 94 18.5t77 50.5t52.5 76t19.5 95t-19.5 95t-52.5 76.5t-77 50.5t-93 18h-395zM287 1125v-367h392
q37 0 70.5 14.5t58 39.5t39 58.5t14.5 71.5t-14.5 71.5t-39.5 58t-58.5 39t-70.5 14.5h-391z" />
    <glyph glyph-name="equal" unicode="=" horiz-adv-x="917" 
d="M840 419q0 -43 -29 -61t-86 -18h-532q-57 0 -87 18t-30 61q0 44 30 61.5t87 17.5h532q57 0 86 -18t29 -61zM840 713q0 -43 -29 -61t-86 -18h-532q-57 0 -87 16.5t-30 62.5q0 44 30 61.5t87 17.5h532q57 0 86 -18t29 -61z" />
    <glyph glyph-name="less" unicode="&#x3c;" horiz-adv-x="633" 
d="M502 158q-13 -8 -35 -6q-12 1 -28.5 12t-33.5 26.5t-33 32.5l-29 30l-231 231q-20 20 -38 42.5t-18 44.5q0 27 19.5 49.5t38.5 41.5l240 240q14 13 29 29t31.5 31t33.5 27.5t34 18.5q17 4 34.5 -2.5t31 -19t20.5 -30.5t3 -37q-4 -13 -12.5 -26.5t-19.5 -26t-23 -24.5
l-23 -22l-271 -248l255 -231l24.5 -23t23.5 -25t19.5 -26.5t12.5 -25.5q2 -12 -0.5 -22t-7.5 -20q-7 -15 -19.5 -25.5t-27.5 -15.5z" />
    <glyph glyph-name="greater" unicode="&#x3e;" horiz-adv-x="630" 
d="M177 155q-29 -9 -55.5 2.5t-35.5 41.5q-10 19 -9 42q3 13 12 26t20.5 26t24 25l24.5 23l255 231l-272 248q-23 20 -46.5 45.5t-30.5 53.5q-2 10 1 25q5 32 30.5 50t56.5 14q32 -14 66 -46l63 -60l240 -240l18.5 -20.5t18 -21.5t14.5 -23.5t6 -25.5q0 -22 -18 -44.5
t-38 -42.5l-230 -231l-24.5 -25l-28.5 -28.5t-31 -26.5t-31 -18z" />
    <glyph glyph-name="tilde" unicode="&#x2dc;" horiz-adv-x="927" 
d="M727 1649q10 10 27 10t29.5 -10t17 -28t-8.5 -43q-25 -49 -65 -76.5t-96 -27.5q-29 0 -49 8.5t-35.5 21t-27.5 27.5t-25 27.5t-28 21t-36 8.5q-26 0 -41 -10.5t-25.5 -24t-20.5 -25t-25 -12.5q-9 -2 -19 2q-16 4 -22.5 15t-7.5 24t3.5 27t10.5 25q26 46 64 69
q10 7 19.5 11t20.5 7q19 6 42 6q33 0 55.5 -8.5t38.5 -21t28 -27.5t24 -27.5t26.5 -21t35.5 -8.5q12 0 21.5 5t19 13t21 19.5t28.5 23.5z" />
    <glyph glyph-name="exclamdown" unicode="&#xa1;" horiz-adv-x="280" 
d="M153 733.052q-32 0 -55.5 -22.4951q-23.5 -22.4961 -23.5 -69.4883v-817.85q0 -46.9912 22 -72.9863q22 -25.9961 57 -25.9961t57 25.9961q22 25.9951 22 72.9863v817.85q0 46.9922 -23.5 69.4883q-23.5 22.4951 -55.5 22.4951zM244 979.007q0 37.9932 -26.5 64.4883
t-64.5 26.4951q-20 0 -36.5 -6.99902q-16.5 -6.99805 -29.5 -19.4961t-20 -28.9951q-7 -16.4961 -7 -35.4932q0 -38.9932 27 -64.4883t66 -25.4951q38 0 64.5 25.4951t26.5 64.4883z" />
    <glyph glyph-name="questiondown" unicode="&#xbf;" horiz-adv-x="1036" 
d="M664.067 623.064q0 -59.9893 -13.4971 -100.981q-13.498 -40.9922 -38.9932 -72.9863t-61.9893 -60.4893l-82.4844 -61.4883q-32.9941 -22.9961 -62.9883 -49.4912q-29.9951 -26.4951 -52.9902 -55.9902q-22.9961 -29.4941 -36.4941 -61.4883
q-13.4971 -31.9941 -13.4971 -65.9883q0 -60.9883 21.4961 -108.479q21.4961 -47.4922 55.9893 -78.9863q34.4941 -31.4941 78.4863 -47.9912t88.9834 -16.4971q83.9844 0 142.974 37.9932t94.9824 96.9824q10.998 19.9961 20.9971 36.4932q9.99805 16.4971 21.4951 28.4951
q11.498 11.998 25.9961 18.4971q14.4971 6.49805 32.4941 4.49902q14.9971 -1 28.4941 -8.49902q13.498 -7.49805 22.4961 -19.4961t12.498 -26.9951q3.49902 -14.9971 -1.5 -31.9941q-6.99902 -46.9912 -39.9932 -98.4824q-32.9932 -51.4902 -86.4834 -94.4824
t-125.478 -70.9873q-71.9863 -27.9941 -158.971 -27.9941q-73.9863 0 -144.474 28.9941q-70.4873 28.9951 -125.477 81.4854q-54.9902 52.4902 -88.4844 125.977q-33.4941 73.4873 -33.4941 161.471q0 98.9814 52.9912 176.968q52.9902 77.9854 152.972 150.973
l65.9883 46.9912q29.9941 20.9961 52.4902 45.4912q22.4951 24.4961 37.9922 55.9902q15.498 31.4941 22.4961 79.4854q3 17.9961 10.498 29.9941q7.49902 11.998 16.4971 18.9971q8.99902 6.99805 18.4971 9.99805q9.49805 2.99902 16.4971 2.99902
q10.998 0 23.9951 -3.49902q12.998 -3.5 23.9961 -12.498t17.9961 -23.9951q6.99902 -14.9971 6.99902 -38.9932zM688.062 926.009q0 -18.9961 -6.99805 -35.9932q-6.99902 -16.9971 -19.4961 -29.4941q-12.498 -12.498 -28.9951 -19.9971
q-16.4971 -7.49805 -35.4932 -7.49805q-18.9971 0 -35.9941 7.49805q-16.9961 7.49902 -29.4941 19.9971q-12.498 12.4971 -19.4961 29.4941q-6.99902 16.9971 -6.99902 35.9932q0 18.9971 6.99902 35.4932q6.99805 16.4971 19.4961 28.9951t29.4941 19.4961
q16.9971 6.99902 35.9941 6.99902q37.9922 0 64.4883 -26.4951q26.4941 -26.4951 26.4941 -64.4883z" />
    <glyph glyph-name="dieresis" unicode="&#xa8;" horiz-adv-x="641" 
d="M55 1365q0 35 23.5 59t58.5 24q34 0 58.5 -24t24.5 -59t-24.5 -58.5t-58.5 -23.5q-35 0 -58.5 23.5t-23.5 58.5zM362 1365q0 35 23.5 59t57.5 24q35 0 59 -24t24 -59t-24 -58.5t-59 -23.5q-34 0 -57.5 23.5t-23.5 58.5z" />
    <glyph glyph-name="egrave" unicode="&#xe8;" horiz-adv-x="1100" 
d="M549 -5q-101 0 -189.5 38.5t-155.5 104.5t-105.5 154.5t-38.5 189.5q0 110 40.5 200.5t109 155t159.5 100t192 35.5t188.5 -37t152 -101.5t101.5 -152.5t37 -190q0 -18 -3 -30t-12 -19t-26.5 -10t-46.5 -3h-729q5 -62 32.5 -116.5t71.5 -95.5t101 -65t122 -24
q61 0 119 21.5t103 63.5q15 10 36 12t39.5 -5.5t32 -23.5t13.5 -41q0 -30 -31.5 -59t-81.5 -51.5t-111 -36.5t-120 -14zM561 840q-65 0 -123 -23t-103.5 -63.5t-75 -94.5t-36.5 -117h657q-5 63 -31.5 117t-69 94.5t-98.5 63.5t-120 23zM432 1306q19 0 45 -19.5t49.5 -44
t40 -48t17.5 -31.5q2 -7 3.5 -14.5t-0.5 -13.5q-2 -15 -10.5 -25.5t-22.5 -14.5q-18 -8 -36 -3q-10 1 -35 16t-51.5 36t-47.5 43.5t-23 37.5q-5 34 15 57.5t56 23.5z" />
    <glyph glyph-name="eacute" unicode="&#xe9;" horiz-adv-x="1100" 
d="M549 -5q-101 0 -189.5 38.5t-155.5 104.5t-105.5 154.5t-38.5 189.5q0 110 40.5 200.5t109 155t159.5 100t192 35.5t188.5 -37t152 -101.5t101.5 -152.5t37 -190q0 -18 -3 -30t-12 -19t-26.5 -10t-46.5 -3h-729q5 -62 32.5 -116.5t71.5 -95.5t101 -65t122 -24
q61 0 119 21.5t103 63.5q15 10 36 12t39.5 -5.5t32 -23.5t13.5 -41q0 -30 -31.5 -59t-81.5 -51.5t-111 -36.5t-120 -14zM561 840q-65 0 -123 -23t-103.5 -63.5t-75 -94.5t-36.5 -117h657q-5 63 -31.5 117t-69 94.5t-98.5 63.5t-120 23zM672 1319q36 0 56 -23.5t15 -57.5
q-2 -15 -23 -37.5t-47.5 -43.5t-51.5 -36t-35 -16q-18 -5 -36 3q-14 4 -22.5 14.5t-10.5 25.5q-3 13 2 28q1 8 18 31.5t40.5 48t49 44t45.5 19.5z" />
    <glyph glyph-name="edieresis" unicode="&#xeb;" horiz-adv-x="1100" 
d="M549 -5q-101 0 -189.5 38.5t-155.5 104.5t-105.5 154.5t-38.5 189.5q0 110 40.5 200.5t109 155t159.5 100t192 35.5t188.5 -37t152 -101.5t101.5 -152.5t37 -190q0 -18 -3 -30t-12 -19t-26.5 -10t-46.5 -3h-729q5 -62 32.5 -116.5t71.5 -95.5t101 -65t122 -24
q61 0 119 21.5t103 63.5q15 10 36 12t39.5 -5.5t32 -23.5t13.5 -41q0 -30 -31.5 -59t-81.5 -51.5t-111 -36.5t-120 -14zM561 840q-65 0 -123 -23t-103.5 -63.5t-75 -94.5t-36.5 -117h657q-5 63 -31.5 117t-69 94.5t-98.5 63.5t-120 23zM308 1172q0 35 23.5 59t58.5 24
q34 0 58.5 -24t24.5 -59t-24.5 -58.5t-58.5 -23.5q-35 0 -58.5 23.5t-23.5 58.5zM615 1172q0 35 23.5 59t57.5 24q35 0 59 -24t24 -59t-24 -58.5t-59 -23.5q-34 0 -57.5 23.5t-23.5 58.5z" />
    <glyph glyph-name="ograve" unicode="&#xf2;" horiz-adv-x="1099" 
d="M60 484q0 100 38.5 189t105.5 156t155.5 105.5t189.5 38.5t190 -38.5t155.5 -105.5t105 -156t38.5 -189q0 -101 -38.5 -190t-105 -155.5t-155.5 -105t-190 -38.5t-189.5 38.5t-155.5 105t-105.5 155.5t-38.5 190zM221 484q0 -70 25.5 -131.5t69.5 -107.5t104 -72.5
t129 -26.5t129 26.5t104 72.5t69.5 107.5t25.5 131.5q0 69 -25.5 130.5t-69.5 107.5t-104 72.5t-129 26.5t-129 -26.5t-104 -72.5t-69.5 -107.5t-25.5 -130.5zM440 1308q19 0 45 -19.5t49.5 -44t40 -48t17.5 -31.5q2 -7 3.5 -14.5t-0.5 -13.5q-2 -15 -10.5 -25.5
t-22.5 -14.5q-18 -8 -36 -3q-10 1 -35 16t-51.5 36t-47.5 43.5t-23 37.5q-5 34 15 57.5t56 23.5z" />
    <glyph glyph-name="oacute" unicode="&#xf3;" horiz-adv-x="1099" 
d="M60 484q0 100 38.5 189t105.5 156t155.5 105.5t189.5 38.5t190 -38.5t155.5 -105.5t105 -156t38.5 -189q0 -101 -38.5 -190t-105 -155.5t-155.5 -105t-190 -38.5t-189.5 38.5t-155.5 105t-105.5 155.5t-38.5 190zM221 484q0 -70 25.5 -131.5t69.5 -107.5t104 -72.5
t129 -26.5t129 26.5t104 72.5t69.5 107.5t25.5 131.5q0 69 -25.5 130.5t-69.5 107.5t-104 72.5t-129 26.5t-129 -26.5t-104 -72.5t-69.5 -107.5t-25.5 -130.5zM672 1302q36 0 56 -23.5t15 -57.5q-2 -15 -23 -37.5t-47.5 -43.5t-51.5 -36t-35 -16q-18 -5 -36 3
q-14 4 -22.5 14.5t-10.5 25.5q-3 13 2 28q1 8 18 31.5t40.5 48t49 44t45.5 19.5z" />
    <glyph glyph-name="otilde" unicode="&#xf5;" horiz-adv-x="1099" 
d="M60 484q0 100 38.5 189t105.5 156t155.5 105.5t189.5 38.5t190 -38.5t155.5 -105.5t105 -156t38.5 -189q0 -101 -38.5 -190t-105 -155.5t-155.5 -105t-190 -38.5t-189.5 38.5t-155.5 105t-105.5 155.5t-38.5 190zM221 484q0 -70 25.5 -131.5t69.5 -107.5t104 -72.5
t129 -26.5t129 26.5t104 72.5t69.5 107.5t25.5 131.5q0 69 -25.5 130.5t-69.5 107.5t-104 72.5t-129 26.5t-129 -26.5t-104 -72.5t-69.5 -107.5t-25.5 -130.5zM764 1271q10 10 27 10t29.5 -10t17 -28t-8.5 -43q-25 -49 -65 -76.5t-96 -27.5q-29 0 -49 8.5t-35.5 21
t-27.5 27.5t-25 27.5t-28 21t-36 8.5q-26 0 -41 -10.5t-25.5 -24t-20.5 -25t-25 -12.5q-9 -2 -19 2q-16 4 -22.5 15t-7.5 24t3.5 27t10.5 25q26 46 64 69q10 7 19.5 11t20.5 7q19 6 42 6q33 0 55.5 -8.5t38.5 -21t28 -27.5t24 -27.5t26.5 -21t35.5 -8.5q12 0 21.5 5t19 13
t21 19.5t28.5 23.5z" />
    <glyph glyph-name="odieresis" unicode="&#xf6;" horiz-adv-x="1099" 
d="M60 484q0 100 38.5 189t105.5 156t155.5 105.5t189.5 38.5t190 -38.5t155.5 -105.5t105 -156t38.5 -189q0 -101 -38.5 -190t-105 -155.5t-155.5 -105t-190 -38.5t-189.5 38.5t-155.5 105t-105.5 155.5t-38.5 190zM221 484q0 -70 25.5 -131.5t69.5 -107.5t104 -72.5
t129 -26.5t129 26.5t104 72.5t69.5 107.5t25.5 131.5q0 69 -25.5 130.5t-69.5 107.5t-104 72.5t-129 26.5t-129 -26.5t-104 -72.5t-69.5 -107.5t-25.5 -130.5zM312 1177q0 35 23.5 59t58.5 24q34 0 58.5 -24t24.5 -59t-24.5 -58.5t-58.5 -23.5q-35 0 -58.5 23.5t-23.5 58.5z
M619 1177q0 35 23.5 59t57.5 24q35 0 59 -24t24 -59t-24 -58.5t-59 -23.5q-34 0 -57.5 23.5t-23.5 58.5z" />
    <glyph glyph-name="ugrave" unicode="&#xf9;" 
d="M274 485q0 -69 23.5 -130.5t65.5 -107.5t100 -73t126 -27t131 28t111 75.5t77 109t29 128.5l42 -270q-24 -39 -65 -79t-94 -71.5t-116 -51.5t-130 -20q-101 0 -185 38.5t-144.5 104.5t-94.5 155t-34 190v409q0 14 5.5 28t15.5 25.5t24.5 19t32.5 7.5q34 0 57 -23.5
t23 -56.5v-408zM1094 37q0 -42 -42 -42q-14 0 -27 5.5t-24.5 19t-19.5 36t-11 57.5l-21 183l-12 25v573q0 33 23 56t55 23q35 0 57 -23t22 -56v-857zM517 1307q19 0 45 -19.5t49.5 -44t40 -48t17.5 -31.5q2 -7 3.5 -14.5t-0.5 -13.5q-2 -15 -10.5 -25.5t-22.5 -14.5
q-18 -8 -36 -3q-10 1 -35 16t-51.5 36t-47.5 43.5t-23 37.5q-5 34 15 57.5t56 23.5z" />
    <glyph glyph-name="uacute" unicode="&#xfa;" 
d="M274 485q0 -69 23.5 -130.5t65.5 -107.5t100 -73t126 -27t131 28t111 75.5t77 109t29 128.5l42 -270q-24 -39 -65 -79t-94 -71.5t-116 -51.5t-130 -20q-101 0 -185 38.5t-144.5 104.5t-94.5 155t-34 190v409q0 14 5.5 28t15.5 25.5t24.5 19t32.5 7.5q34 0 57 -23.5
t23 -56.5v-408zM1094 37q0 -42 -42 -42q-14 0 -27 5.5t-24.5 19t-19.5 36t-11 57.5l-21 183l-12 25v573q0 33 23 56t55 23q35 0 57 -23t22 -56v-857zM698 1297q36 0 56 -23.5t15 -57.5q-2 -15 -23 -37.5t-47.5 -43.5t-51.5 -36t-35 -16q-18 -5 -36 3q-14 4 -22.5 14.5
t-10.5 25.5q-3 13 2 28q1 8 18 31.5t40.5 48t49 44t45.5 19.5z" />
    <glyph glyph-name="udieresis" unicode="&#xfc;" 
d="M274 485q0 -69 23.5 -130.5t65.5 -107.5t100 -73t126 -27t131 28t111 75.5t77 109t29 128.5l42 -270q-24 -39 -65 -79t-94 -71.5t-116 -51.5t-130 -20q-101 0 -185 38.5t-144.5 104.5t-94.5 155t-34 190v409q0 14 5.5 28t15.5 25.5t24.5 19t32.5 7.5q34 0 57 -23.5
t23 -56.5v-408zM1094 37q0 -42 -42 -42q-14 0 -27 5.5t-24.5 19t-19.5 36t-11 57.5l-21 183l-12 25v573q0 33 23 56t55 23q35 0 57 -23t22 -56v-857zM356 1177q0 35 23.5 59t58.5 24q34 0 58.5 -24t24.5 -59t-24.5 -58.5t-58.5 -23.5q-35 0 -58.5 23.5t-23.5 58.5zM663 1177
q0 35 23.5 59t57.5 24q35 0 59 -24t24 -59t-24 -58.5t-59 -23.5q-34 0 -57.5 23.5t-23.5 58.5z" />
    <glyph glyph-name="yacute" unicode="&#xfd;" horiz-adv-x="954" 
d="M395 60l-15 34.5l-39.5 90.5l-55.5 127l-63 145l-173 394q-14 35 -10 68t41 50q31 14 65 1.5t51 -56.5l282 -693l117 287l89 219l57 141.5l22 55.5q6 13 16 24.5t24 19t31 9t37 -7.5q11 -5 21.5 -14.5t17 -23.5t7 -31t-8.5 -37l-399 -924q-22 -52 -45.5 -94.5t-56 -74
t-79 -50t-115.5 -21.5q-36 -1 -64 17.5t-28 59.5q0 22 11.5 34t30.5 19.5t43 13.5t48.5 16t47 27t39.5 47zM574 1255q36 0 56 -23.5t15 -57.5q-2 -15 -23 -37.5t-47.5 -43.5t-51.5 -36t-35 -16q-18 -5 -36 3q-14 4 -22.5 14.5t-10.5 25.5q-3 13 2 28q1 8 18 31.5t40.5 48
t49 44t45.5 19.5z" />
    <glyph glyph-name="ydieresis" unicode="&#xff;" horiz-adv-x="954" 
d="M395 60l-15 34.5l-39.5 90.5l-55.5 127l-63 145l-173 394q-14 35 -10 68t41 50q31 14 65 1.5t51 -56.5l282 -693l117 287l89 219l57 141.5l22 55.5q6 13 16 24.5t24 19t31 9t37 -7.5q11 -5 21.5 -14.5t17 -23.5t7 -31t-8.5 -37l-399 -924q-22 -52 -45.5 -94.5t-56 -74
t-79 -50t-115.5 -21.5q-36 -1 -64 17.5t-28 59.5q0 22 11.5 34t30.5 19.5t43 13.5t48.5 16t47 27t39.5 47zM250 1120q0 35 23.5 59t58.5 24q34 0 58.5 -24t24.5 -59t-24.5 -58.5t-58.5 -23.5q-35 0 -58.5 23.5t-23.5 58.5zM557 1120q0 35 23.5 59t57.5 24q35 0 59 -24
t24 -59t-24 -58.5t-59 -23.5q-34 0 -57.5 23.5t-23.5 58.5z" />
    <glyph glyph-name="C" unicode="C" horiz-adv-x="1257" 
d="M1043 958q-74 78 -163 114.5t-183 36.5q-99 0 -186.5 -38t-152.5 -103t-102.5 -152.5t-37.5 -186.5t37.5 -186.5t103 -152.5t152.5 -103t186 -38q58 0 110 13t97.5 36t86.5 55t78 71q17 13 40 16.5t43 -8.5q19 -8 31.5 -25t12.5 -38q0 -34 -26 -60q-51 -56 -101.5 -96.5
t-106.5 -67t-121 -39.5t-144 -13q-132 0 -248 50t-202.5 136.5t-136.5 202.5t-50 248q0 87 22.5 168t64 152t100 129t129 99.5t152 64.5t169.5 23q66 0 126.5 -10t116.5 -33.5t109 -61t105 -92.5q11 -12 17 -27.5t6 -31.5q1 -17 -6.5 -32t-21.5 -26q-20 -17 -49 -18.5
t-57 24.5z" />
    <glyph glyph-name="D" unicode="D" horiz-adv-x="1220" 
d="M207 -5q-29 0 -50 18t-27 45q-1 4 -1.5 7.5t-0.5 8.5v1113q0 12 -3.5 25t-3.5 25q0 14 12 23t49 9h339q87 0 168.5 -23t152.5 -64.5t129.5 -100t100 -129.5t64.5 -152.5t23 -168.5q0 -88 -23 -169t-64.5 -152t-100 -129t-129.5 -99.5t-152.5 -64t-168.5 -22.5h-314z
M1001 631q0 102 -38 190.5t-103.5 154t-153 103.5t-185.5 39h-235v-967h235q98 1 185.5 38.5t153 102t103.5 151.5t38 188z" />
    <glyph glyph-name="E" unicode="E" horiz-adv-x="1063" 
d="M1028 74q0 -38 -27.5 -58.5t-63.5 -20.5h-704q-53 0 -78 28t-25 79v1074q-1 14 -5 29.5t-4 29.5q0 15 10 24.5t40 9.5h770q42 0 63 -24t21 -52.5t-20.5 -52.5t-61.5 -24h-656v-409h527q18 0 34 -7t27.5 -19t16 -29t-0.5 -37q-5 -26 -25.5 -41.5t-49.5 -15.5h-529v-405
h647q19 0 36 -4.5t30 -14.5t20.5 -24.5t7.5 -35.5z" />
    <glyph glyph-name="F" unicode="F" horiz-adv-x="1052" 
d="M130 1176q-1 14 -5 29.5t-4 29.5q0 15 10 24.5t40 9.5h759q10 0 23 -3.5t25 -11.5t20.5 -22t8.5 -35q0 -18 -6 -32.5t-17 -25.5t-25 -17t-29 -6h-643v-436h506q13 0 27 -4.5t25 -14t18.5 -23.5t7.5 -33t-7 -34t-18.5 -25.5t-25.5 -16t-27 -5.5h-506v-442q0 -16 -5 -31.5
t-15 -28t-24.5 -20t-33.5 -7.5q-38 0 -58.5 27t-20.5 60v1094v0z" />
    <glyph glyph-name="H" unicode="H" horiz-adv-x="1267" 
d="M1149 84q0 -38 -22 -63.5t-57 -25.5q-38 0 -58.5 27t-20.5 62v460h-705v-461q0 -33 -19.5 -60.5t-59.5 -27.5t-59.5 27.5t-19.5 60.5v1104q0 12 -3.5 25t-3.5 25q0 14 9.5 23t46.5 9q56 0 82.5 -20.5t26.5 -58.5v-489h705v486q0 12 -3.5 25t-3.5 25q0 14 12 23t49 9
q22 0 41 -4t33 -13.5t22 -24.5t8 -37v-1106z" />
    <glyph glyph-name="I" unicode="I" horiz-adv-x="407" 
d="M286 80q0 -15 -5 -30.5t-15 -27.5t-25 -19.5t-34 -7.5q-20 0 -35 8.5t-25 21t-14.5 27.5t-4.5 28v1105q0 13 -3.5 25.5t-3.5 24.5q0 15 12 24t49 9q45 0 73.5 -18t30.5 -62v-1108z" />
    <glyph glyph-name="J" unicode="J" horiz-adv-x="401" 
d="M-123 -237q0 33 23.5 56t58.5 23q42 1 74 19t53.5 48.5t32.5 72t11 89.5l-2 1097q0 17 -1.5 26.5t-3 15.5t-2.5 11.5t-1 13.5q0 14 11 23.5t48 9.5q55 0 82 -25t27 -87v-996q0 -100 -16.5 -186.5t-55.5 -151t-102.5 -101.5t-157.5 -37q-33 0 -56 23t-23 56z" />
    <glyph glyph-name="K" unicode="K" horiz-adv-x="1183" 
d="M182 1271q50 0 77 -25t27 -88v-507l691 584q25 21 45 27.5t39 1.5q20 -2 40 -16.5t23 -37.5q7 -27 -3.5 -52t-36.5 -45l-396 -323l420 -656q10 -17 16 -28.5t7.5 -21t0 -19.5t-4.5 -22q-6 -21 -25.5 -36t-47.5 -15q-25 0 -45 13t-43 51l-399 637l-282 -234l1 -351
q0 -50 -18.5 -81.5t-60.5 -31.5q-44 0 -61.5 30.5t-17.5 81.5v1082q0 13 -3.5 25.5t-3.5 24.5q0 14 12 23t49 9z" />
    <glyph glyph-name="L" unicode="L" horiz-adv-x="1080" 
d="M1023 80q0 -38 -24 -59t-53 -21h-713q-47 1 -76 31.5t-29 77.5v1081q0 13 -3.5 25.5t-3.5 24.5q0 15 12 24t49 9q52 0 78 -25t26 -89v-1001h658q13 0 27 -5t25.5 -15t19 -24.5t7.5 -33.5z" />
    <glyph glyph-name="M" unicode="M" horiz-adv-x="1446" 
d="M281 1010v-236.5t0.5 -244t0.5 -237.5v-218q0 -33 -22 -56t-57 -23q-33 0 -56 22.5t-23 56.5v166.5v186v197v198t-0.5 190t-0.5 173.5q0 15 -4 25t-4 25q0 7 2 13.5t8.5 11t19 7t33.5 2.5q18 0 31.5 -1t24 -4t19 -9t17.5 -16l459 -580l169 215l119.5 152.5l78 101
l46.5 61l24 32t10 14.5l11.5 13.5t13.5 11t19 7t28 2.5q31 0 48 -13t25 -38.5t9 -63t1 -87.5v-993q0 -33 -20 -56t-58 -23q-14 0 -28 5t-25 15t-18 24.5t-7 34.5v933l-372 -478q-14 -17 -32 -32t-41 -15q-25 0 -41 13.5t-33 33.5z" />
    <glyph glyph-name="N" unicode="N" horiz-adv-x="1363" 
d="M1241 79q0 -34 -21 -59t-57 -25q-25 0 -47 17.5t-37 34.5l-794 925v-898q0 -34 -22.5 -56.5t-55.5 -22.5q-35 0 -57 23t-22 54v1113q0 14 -3.5 24.5t-3.5 27.5q0 14 12 22.5t49 8.5t58.5 -11.5t43.5 -34.5l800 -938v899q0 16 -4 27t-4 25q0 8 2 14.5t9.5 10.5t22 6
t39.5 2q48 0 70 -21.5t22 -59.5v-1108z" />
    <glyph glyph-name="R" unicode="R" horiz-adv-x="1079" 
d="M785 469l227 -353q18 -24 14.5 -55.5t-31.5 -51.5t-58.5 -14t-50.5 33l-241 390zM1032 785q0 -104 -41 -190t-110.5 -148t-162.5 -96t-197 -34h-235v-243q0 -33 -23 -56t-56 -23t-56 23t-23 56v1116q0 13 -3.5 26t-3.5 24q0 15 12 24t49 9h339q104 0 197 -37
t162.5 -102.5t110.5 -155t41 -193.5zM876 782q0 73 -28 136t-76.5 109t-113 72.5t-137.5 26.5h-237v-666h237q73 0 137.5 23t113 65t76.5 101.5t28 132.5z" />
    <glyph glyph-name="S" unicode="S" horiz-adv-x="980" 
d="M808 967q-22 -2 -37.5 6t-36.5 28q-29 31 -56.5 54t-57.5 38.5t-63 23t-72 7.5q-40 0 -81 -12.5t-74.5 -35.5t-55 -56.5t-21.5 -75.5q0 -45 28.5 -79.5t75.5 -62.5t107 -53l123 -51.5t123 -57.5t107 -71.5t75.5 -93t28.5 -122.5q0 -81 -37.5 -147t-99.5 -113.5t-143 -73
t-169 -25.5q-87 0 -156.5 21t-120.5 55.5t-84.5 77t-48.5 86.5q-4 16 -3 33.5t8 32t21 23.5t36 9q19 0 35.5 -10t32.5 -27q14 -28 40.5 -55.5t63 -49t81.5 -34.5t95 -13q49 0 99.5 13.5t91.5 39t67 63.5t26 86t-28 84t-74.5 65.5t-105.5 54.5l-120.5 51t-120 56t-105 69.5
t-74.5 91t-28 120.5q0 73 31.5 133.5t85.5 104t125.5 67.5t151.5 24q72 0 141 -22.5t124 -57t88.5 -74.5t33.5 -75q0 -21 -6.5 -34.5t-17 -21.5t-23.5 -11t-26 -3z" />
    <glyph glyph-name="T" unicode="T" horiz-adv-x="1091" 
d="M1060 1190q0 -36 -24 -57.5t-62 -21.5h-349l-1 -1037q-1 -33 -22 -56t-56 -23t-56.5 22.5t-21.5 56.5l-1 1037h-352q-36 0 -60.5 21.5t-24.5 57.5q0 31 23.5 55t61.5 24h857q38 0 63 -20.5t25 -58.5z" />
    <glyph glyph-name="U" unicode="U" horiz-adv-x="1273" 
d="M104 1185q-1 13 -4.5 25.5t-3.5 24.5q0 15 12 24t49 9q22 0 40.5 -5t32.5 -17t22 -32.5t9 -51.5v-670q0 -73 26 -136.5t74.5 -110.5t118.5 -74t159 -27q84 0 153.5 27t120 74.5t78.5 111t28 135.5l-1 693q0 13 -3.5 25.5t-3.5 24.5q0 15 12 24t49 9q23 0 42 -5t33 -17
t21.5 -33t7.5 -53l1 -666q-1 -105 -40 -197.5t-109.5 -161t-169.5 -108.5t-219 -40q-122 0 -221 39.5t-169 108t-107.5 161t-37.5 198.5v691z" />
    <glyph glyph-name="V" unicode="V" horiz-adv-x="1055" 
d="M36 1166q-11 31 1.5 60t44.5 41q30 12 59.5 -0.5t41.5 -43.5l397 -1095l20 -25q6 -15 5.5 -31t-7 -30t-18 -24.5t-26.5 -16.5q-32 -11 -61 1.5t-41 43.5zM602 46q-13 -31 -41 -43.5t-60 -1.5q-15 6 -26.5 16.5t-18 24.5t-7.5 30t5 31l20 25l397 1095q11 31 41 43.5
t61 0.5q32 -12 44.5 -41t1.5 -60z" />
    <glyph glyph-name="W" unicode="W" horiz-adv-x="1638" 
d="M758 830q-10 27 -3 54t37 38q27 10 54 -1.5t38 -39.5l274 -753l25 -25q6 -15 5.5 -31t-7 -30t-18 -24.5t-26.5 -16.5q-32 -11 -61 1.5t-41 43.5zM1185 46q-13 -31 -41 -43.5t-60 -1.5q-15 6 -26.5 16.5t-18 24.5t-7.5 30t5 31l25 25l392 1095q5 13 15 20.5t23 9.5
q11 12 28.5 16.5t35.5 -2.5q32 -12 44.5 -41.5t1.5 -59.5zM36 1166q-11 31 1.5 60t44.5 41q30 12 60 -0.5t41 -43.5l392 -1095l25 -25q6 -15 5.5 -31t-7 -30t-18 -24.5t-26.5 -16.5q-32 -11 -61 1.5t-41 43.5zM602 46q-13 -31 -41 -43.5t-60 -1.5q-15 6 -26.5 16.5t-18 24.5
t-7.5 30t5 31l26 25l269 753q10 29 37.5 40.5t55.5 0.5q29 -11 36.5 -38t-3.5 -55z" />
    <glyph glyph-name="X" unicode="X" horiz-adv-x="1314" 
d="M1124 1245q22 23 54.5 24t56.5 -22q23 -23 24 -56t-22 -56l-578 -601q-12 -12 -16.5 -9t-7.5 13l-7.5 24t-16.5 26q-24 25 -24 56t23 54zM687 705q24 -23 24 -54t-24 -56q-12 -11 -17.5 -24.5t-10 -22.5t-10 -10.5t-17.5 10.5l-562 587q-11 11 -16.5 25.5t-5.5 30t6 30
t18 26.5q24 23 56.5 22.5t54.5 -24.5zM179 17q-21 -23 -54 -24t-57 22q-12 11 -18.5 25.5t-6.5 30t6 30t17 26.5l575 604q11 12 16 8.5t8.5 -14t9 -25.5t17.5 -26q24 -25 23 -55t-24 -53zM619 558q-24 23 -25 53.5t24 54.5q11 11 17 24.5l10.5 23t10.5 12t18 -9.5l560 -589
q11 -11 17 -25.5t6 -30t-6 -30t-18 -26.5q-25 -23 -57.5 -22.5t-53.5 24.5z" />
    <glyph glyph-name="Y" unicode="Y" horiz-adv-x="1185" 
d="M517 608q0 32 22.5 55.5t56.5 23.5q33 0 56 -23.5t23 -55.5v-534q0 -33 -23 -56t-56 -23q-34 0 -56.5 23t-22.5 56v534zM1028 1245q10 12 24 18t29.5 6t30.5 -5.5t27 -17.5q23 -23 23 -54.5t-21 -56.5l-501 -612q-12 -12 -17 -9t-9 14l-9 26t-17 27q-24 25 -23.5 55.5
t24.5 53.5zM601 690q24 -23 24.5 -53.5t-23.5 -55.5q-12 -11 -18 -25.5t-11.5 -24.5t-11.5 -12.5t-17 9.5l-494 607q-21 25 -22 56.5t23 54.5q12 12 27 17.5t30.5 5.5t29.5 -6t24 -18z" />
    <glyph glyph-name="Z" unicode="Z" horiz-adv-x="1142" 
d="M1071 1190q0 -13 -9.5 -31.5t-22.5 -38t-28 -39l-27 -34.5l-697 -898h728q37 0 59 -20.5t22 -54.5q0 -18 -7 -32.5t-18.5 -25t-25.5 -16t-29 -5.5h-867q-29 0 -53 11.5t-31 43.5q-8 28 3.5 56t34.5 59l180 232.5l189 242.5l189.5 242.5l182.5 232.5l-670 -2
q-36 0 -58.5 23t-22.5 54q0 14 5 28t15.5 25.5t26 18.5t35.5 7h811q21 0 36.5 -7t26.5 -18t16.5 -25t5.5 -29z" />
    <glyph glyph-name="Egrave" unicode="&#xc8;" horiz-adv-x="1063" 
d="M1028 74q0 -38 -27.5 -58.5t-63.5 -20.5h-704q-53 0 -78 28t-25 79v1074q-1 14 -5 29.5t-4 29.5q0 15 10 24.5t40 9.5h770q42 0 63 -24t21 -52.5t-20.5 -52.5t-61.5 -24h-656v-409h527q18 0 34 -7t27.5 -19t16 -29t-0.5 -37q-5 -26 -25.5 -41.5t-49.5 -15.5h-529v-405
h647q19 0 36 -4.5t30 -14.5t20.5 -24.5t7.5 -35.5zM434 1606q19 0 45 -19.5t49.5 -44t40 -48t17.5 -31.5q2 -7 3.5 -14.5t-0.5 -13.5q-2 -15 -10.5 -25.5t-22.5 -14.5q-18 -8 -36 -3q-10 1 -35 16t-51.5 36t-47.5 43.5t-23 37.5q-5 34 15 57.5t56 23.5z" />
    <glyph glyph-name="Eacute" unicode="&#xc9;" horiz-adv-x="1063" 
d="M619 1606q36 0 56 -23.5t15 -57.5q-2 -15 -23 -37.5t-47.5 -43.5t-51.5 -36t-35 -16q-18 -5 -36 3q-14 4 -22.5 14.5t-10.5 25.5q-3 13 2 28q1 8 18 31.5t40.5 48t49 44t45.5 19.5zM1028 74q0 -38 -27.5 -58.5t-63.5 -20.5h-704q-53 0 -78 28t-25 79v1074q-1 14 -5 29.5
t-4 29.5q0 15 10 24.5t40 9.5h770q42 0 63 -24t21 -52.5t-20.5 -52.5t-61.5 -24h-656v-409h527q18 0 34 -7t27.5 -19t16 -29t-0.5 -37q-5 -26 -25.5 -41.5t-49.5 -15.5h-529v-405h647q19 0 36 -4.5t30 -14.5t20.5 -24.5t7.5 -35.5z" />
    <glyph glyph-name="Edieresis" unicode="&#xcb;" horiz-adv-x="1063" 
d="M1028 74q0 -38 -27.5 -58.5t-63.5 -20.5h-704q-53 0 -78 28t-25 79v1074q-1 14 -5 29.5t-4 29.5q0 15 10 24.5t40 9.5h770q42 0 63 -24t21 -52.5t-20.5 -52.5t-61.5 -24h-656v-409h527q18 0 34 -7t27.5 -19t16 -29t-0.5 -37q-5 -26 -25.5 -41.5t-49.5 -15.5h-529v-405
h647q19 0 36 -4.5t30 -14.5t20.5 -24.5t7.5 -35.5zM320 1477q0 35 23.5 59t58.5 24q34 0 58.5 -24t24.5 -59t-24.5 -58.5t-58.5 -23.5q-35 0 -58.5 23.5t-23.5 58.5zM627 1477q0 35 23.5 59t57.5 24q35 0 59 -24t24 -59t-24 -58.5t-59 -23.5q-34 0 -57.5 23.5t-23.5 58.5z
" />
    <glyph glyph-name="Igrave" unicode="&#xcc;" horiz-adv-x="407" 
d="M286 80q0 -15 -5 -30.5t-15 -27.5t-25 -19.5t-34 -7.5q-20 0 -35 8.5t-25 21t-14.5 27.5t-4.5 28v1105q0 13 -3.5 25.5t-3.5 24.5q0 15 12 24t49 9q45 0 73.5 -18t30.5 -62v-1108zM97 1616q19 0 45 -19.5t49.5 -44t40 -48t17.5 -31.5q2 -7 3.5 -14.5t-0.5 -13.5
q-2 -15 -10.5 -25.5t-22.5 -14.5q-18 -8 -36 -3q-10 1 -35 16t-51.5 36t-47.5 43.5t-23 37.5q-5 34 15 57.5t56 23.5z" />
    <glyph glyph-name="Iacute" unicode="&#xcd;" horiz-adv-x="407" 
d="M286 80q0 -15 -5 -30.5t-15 -27.5t-25 -19.5t-34 -7.5q-20 0 -35 8.5t-25 21t-14.5 27.5t-4.5 28v1105q0 13 -3.5 25.5t-3.5 24.5q0 15 12 24t49 9q45 0 73.5 -18t30.5 -62v-1108zM295 1611q36 0 56 -23.5t15 -57.5q-2 -15 -23 -37.5t-47.5 -43.5t-51.5 -36t-35 -16
q-18 -5 -36 3q-14 4 -22.5 14.5t-10.5 25.5q-3 13 2 28q1 8 18 31.5t40.5 48t49 44t45.5 19.5z" />
    <glyph glyph-name="Idieresis" unicode="&#xcf;" horiz-adv-x="407" 
d="M286 80q0 -15 -5 -30.5t-15 -27.5t-25 -19.5t-34 -7.5q-20 0 -35 8.5t-25 21t-14.5 27.5t-4.5 28v1105q0 13 -3.5 25.5t-3.5 24.5q0 15 12 24t49 9q45 0 73.5 -18t30.5 -62v-1108zM-45 1488q0 35 23.5 59t58.5 24q34 0 58.5 -24t24.5 -59t-24.5 -58.5t-58.5 -23.5
q-35 0 -58.5 23.5t-23.5 58.5zM262 1488q0 35 23.5 59t57.5 24q35 0 59 -24t24 -59t-24 -58.5t-59 -23.5q-34 0 -57.5 23.5t-23.5 58.5z" />
    <glyph glyph-name="Ugrave" unicode="&#xd9;" horiz-adv-x="1273" 
d="M104 1185q-1 13 -4.5 25.5t-3.5 24.5q0 15 12 24t49 9q22 0 40.5 -5t32.5 -17t22 -32.5t9 -51.5v-670q0 -73 26 -136.5t74.5 -110.5t118.5 -74t159 -27q84 0 153.5 27t120 74.5t78.5 111t28 135.5l-1 693q0 13 -3.5 25.5t-3.5 24.5q0 15 12 24t49 9q23 0 42 -5t33 -17
t21.5 -33t7.5 -53l1 -666q-1 -105 -40 -197.5t-109.5 -161t-169.5 -108.5t-219 -40q-122 0 -221 39.5t-169 108t-107.5 161t-37.5 198.5v691zM502 1606q19 0 45 -19.5t49.5 -44t40 -48t17.5 -31.5q2 -7 3.5 -14.5t-0.5 -13.5q-2 -15 -10.5 -25.5t-22.5 -14.5q-18 -8 -36 -3
q-10 1 -35 16t-51.5 36t-47.5 43.5t-23 37.5q-5 34 15 57.5t56 23.5z" />
    <glyph glyph-name="Uacute" unicode="&#xda;" horiz-adv-x="1273" 
d="M104 1185q-1 13 -4.5 25.5t-3.5 24.5q0 15 12 24t49 9q22 0 40.5 -5t32.5 -17t22 -32.5t9 -51.5v-670q0 -73 26 -136.5t74.5 -110.5t118.5 -74t159 -27q84 0 153.5 27t120 74.5t78.5 111t28 135.5l-1 693q0 13 -3.5 25.5t-3.5 24.5q0 15 12 24t49 9q23 0 42 -5t33 -17
t21.5 -33t7.5 -53l1 -666q-1 -105 -40 -197.5t-109.5 -161t-169.5 -108.5t-219 -40q-122 0 -221 39.5t-169 108t-107.5 161t-37.5 198.5v691zM707 1604q36 0 56 -23.5t15 -57.5q-2 -15 -23 -37.5t-47.5 -43.5t-51.5 -36t-35 -16q-18 -5 -36 3q-14 4 -22.5 14.5t-10.5 25.5
q-3 13 2 28q1 8 18 31.5t40.5 48t49 44t45.5 19.5z" />
    <glyph glyph-name="ntilde" unicode="&#xf1;" 
d="M937 482q0 70 -23.5 131.5t-65.5 107.5t-100 72.5t-127 26.5q-68 0 -130.5 -28t-110.5 -75t-77 -109t-29 -129l-43 270q24 39 65 79t94 71.5t115.5 51.5t130.5 20q101 0 185 -38.5t145 -104.5t94.5 -155t33.5 -189v-409q0 -14 -5.5 -28t-15.5 -25.5t-24.5 -19t-32.5 -7.5
q-34 0 -56.5 23t-22.5 57v407zM116 931q0 20 11 31t31 11q14 0 27 -5.5t24.5 -19t19.5 -36.5t11 -57l21 -184l13 -25v-572q0 -33 -23.5 -56t-55.5 -23q-35 0 -57 23t-22 56v857zM811 1301q10 10 27 10t29.5 -10t17 -28t-8.5 -43q-25 -49 -65 -76.5t-96 -27.5q-29 0 -49 8.5
t-35.5 21t-27.5 27.5t-25 27.5t-28 21t-36 8.5q-26 0 -41 -10.5t-25.5 -24t-20.5 -25t-25 -12.5q-9 -2 -19 2q-16 4 -22.5 15t-7.5 24t3.5 27t10.5 25q26 46 64 69q10 7 19.5 11t20.5 7q19 6 42 6q33 0 55.5 -8.5t38.5 -21t28 -27.5t24 -27.5t26.5 -21t35.5 -8.5
q12 0 21.5 5t19 13t21 19.5t28.5 23.5z" />
    <glyph glyph-name="Yacute" unicode="&#xdd;" horiz-adv-x="1184" 
d="M517 608q0 32 22.5 55.5t56.5 23.5q33 0 56 -23.5t23 -55.5v-534q0 -33 -23 -56t-56 -23q-34 0 -56.5 23t-22.5 56v534zM1028 1245q10 12 24 18t29.5 6t30.5 -5.5t27 -17.5q23 -23 23 -54.5t-21 -56.5l-501 -612q-12 -12 -17 -9t-9 14l-9 26t-17 27q-24 25 -23.5 55.5
t24.5 53.5zM601 690q24 -23 24.5 -53.5t-23.5 -55.5q-12 -11 -18 -25.5t-11.5 -24.5t-11.5 -12.5t-17 9.5l-494 607q-21 25 -22 56.5t23 54.5q12 12 27 17.5t30.5 5.5t29.5 -6t24 -18zM688 1607q36 0 56 -23.5t15 -57.5q-2 -15 -23 -37.5t-47.5 -43.5t-51.5 -36t-35 -16
q-18 -5 -36 3q-14 4 -22.5 14.5t-10.5 25.5q-3 13 2 28q1 8 18 31.5t40.5 48t49 44t45.5 19.5z" />
    <glyph glyph-name="numbersign" unicode="#" horiz-adv-x="1347" 
d="M527 1228q8 31 35.5 47.5t59.5 8.5q15 -4 28 -13.5t21 -22t11.5 -27.5t-0.5 -30l-255 -1139q-4 -15 -14 -26.5t-23 -19t-28.5 -10t-30.5 0.5q-16 4 -28.5 13.5t-20.5 22t-11 27t1 29.5zM914 1234q4 15 13.5 26.5t22.5 18t28.5 8.5t31.5 -2q15 -4 27 -13.5t19.5 -22
t10 -27t-1.5 -29.5l-256 -1145q-8 -31 -36.5 -45t-59.5 -6q-32 8 -48 35t-8 57zM1236 949q31 0 53 -23t22 -55t-22 -56t-53 -24h-1041q-32 0 -53.5 24t-21.5 56t21.5 55t53.5 23h1041zM1142 508q31 0 53 -23t22 -56q0 -31 -22 -55t-53 -24h-1041q-32 0 -53.5 24t-21.5 55
q0 33 21.5 56t53.5 23h1041z" />
    <glyph glyph-name="Ydieresis" unicode="&#x178;" horiz-adv-x="1185" 
d="M517 608q0 32 22.5 55.5t56.5 23.5q33 0 56 -23.5t23 -55.5v-534q0 -33 -23 -56t-56 -23q-34 0 -56.5 23t-22.5 56v534zM1028 1245q10 12 24 18t29.5 6t30.5 -5.5t27 -17.5q23 -23 23 -54.5t-21 -56.5l-501 -612q-12 -12 -17 -9t-9 14l-9 26t-17 27q-24 25 -23.5 55.5
t24.5 53.5zM601 690q24 -23 24.5 -53.5t-23.5 -55.5q-12 -11 -18 -25.5t-11.5 -24.5t-11.5 -12.5t-17 9.5l-494 607q-21 25 -22 56.5t23 54.5q12 12 27 17.5t30.5 5.5t29.5 -6t24 -18zM356 1465q0 35 23.5 59t58.5 24q34 0 58.5 -24t24.5 -59t-24.5 -58.5t-58.5 -23.5
q-35 0 -58.5 23.5t-23.5 58.5zM663 1465q0 35 23.5 59t57.5 24q35 0 59 -24t24 -59t-24 -58.5t-59 -23.5q-34 0 -57.5 23.5t-23.5 58.5z" />
    <glyph glyph-name="at" unicode="@" horiz-adv-x="13653" 
d="M13246 0q36 0 73 9.5t66.5 23t48.5 29t19 28.5q0 9 -5 15.5t-12 9t-14.5 1t-12.5 -6.5q-32 -32 -75 -48t-88 -16q-48 0 -90.5 17.5t-75 48t-52.5 71.5t-24 88h499q16 0 23.5 1t10.5 4t3 7.5v11.5q0 62 -21.5 115.5t-60 92.5t-90.5 61.5t-112 22.5q-61 0 -116 -20.5
t-96.5 -59t-66 -93t-24.5 -121.5q0 -60 23 -113.5t63 -93t93.5 -62.5t113.5 -23zM13256 541q49 0 90.5 -17.5t72.5 -48t49.5 -71.5t22.5 -88h-486q5 47 26.5 88t55 71.5t77 48t92.5 17.5zM12370 560q0 11 -6.5 18.5t-17.5 7.5q-14 0 -19 -9.5t-5 -16.5v-267q0 -60 21 -113.5
t58.5 -93t89 -62.5t111.5 -23q49 0 92.5 16t77 39t56.5 50t31 50v140q0 -49 -21.5 -94.5t-57 -80t-82 -55t-96.5 -20.5t-92.5 19.5t-73.5 53t-48.5 79t-17.5 96.5v266zM12907 561q0 11 -6.5 18t-17.5 7q-10 0 -17 -7t-7 -18v-355v-22v-111q0 -23 3.5 -37t9 -22t11.5 -11
t12 -3q12 0 12 12v549zM11993 0q36 0 73 9.5t66.5 23t48.5 29t19 28.5q0 9 -5 15.5t-11.5 9t-14 1t-12.5 -6.5q-32 -32 -75.5 -48t-88.5 -16q-48 0 -90.5 17.5t-75 48t-52.5 71.5t-24 88h499q16 0 23.5 1t10.5 4t3 7.5v11.5q0 62 -21.5 115.5t-60 92.5t-90.5 61.5t-112 22.5
q-61 0 -116 -20.5t-96.5 -59t-66 -93t-24.5 -121.5q0 -60 23 -113.5t63 -93t93.5 -62.5t113.5 -23zM12003 541q49 0 90.5 -17.5t72.5 -48t49.5 -71.5t22.5 -88h-485q5 47 26 88t54.5 71.5t77 48t92.5 17.5zM11618 25q0 -11 6.5 -18t17.5 -7q14 0 19.5 9.5t5.5 15.5v268
q0 60 -21.5 113t-59 92.5t-89 62.5t-111.5 23q-50 0 -93 -15.5t-77 -39t-56.5 -50.5t-30.5 -49v-141q0 49 21.5 94.5t57 80.5t82 55.5t96.5 20.5t92.5 -19.5t73.5 -53.5t48.5 -79t17.5 -96v-267zM11081 24q0 -10 6.5 -17t17.5 -7t17.5 7t6.5 17v356v22v111q0 44 -12 58.5
t-24 14.5t-12 -12v-550zM220 1203q0 33 22 56t57 23q32 0 55.5 -23t23.5 -56v-879l-13 -104l-21 -109q-3 -34 -11 -56.5t-19 -36t-24.5 -19.5t-27.5 -6q-20 0 -31 11t-11 31v1168zM261 482q0 101 35.5 190t97 155.5t145.5 105t180 38.5q101 0 188.5 -38.5t152 -105
t101.5 -155.5t37 -190t-37 -190t-101.5 -155.5t-152 -105t-188.5 -38.5t-185 38.5t-144.5 105t-94.5 155.5t-34 190zM378 482q0 -69 26 -130.5t70.5 -107.5t105 -73t129.5 -27t129 27t104 73t69.5 107.5t25.5 130.5q0 70 -25.5 131.5t-69.5 107.5t-104 72.5t-129 26.5
t-129.5 -26.5t-105 -72.5t-70.5 -107.5t-26 -131.5zM1460 893q0 33 -23 56.5t-57 23.5q-18 0 -32.5 -7.5t-24.5 -19t-15.5 -25.5t-5.5 -28v-409q0 -101 34 -190t94.5 -155t144.5 -104.5t185 -38.5q67 0 130 20t116 51.5t94 71.5t65 79l-42 270q0 -67 -29 -128.5t-77 -109
t-111 -75.5t-131 -28t-126 27t-100 73t-65.5 107.5t-23.5 130.5v408zM2280 894q0 33 -22 56t-57 23q-32 0 -55 -23t-23 -56v-573l12 -25l21 -183q3 -35 11 -57.5t19.5 -36t24.5 -19t27 -5.5q42 0 42 42v857zM2385 1203q0 33 22 56t57 23q32 0 55.5 -23t23.5 -56v-879
l-13 -104l-21 -109q-3 -34 -11 -56.5t-19 -36t-24.5 -19.5t-27.5 -6q-20 0 -31 11t-11 31v1168zM2426 482q0 101 35.5 190t97 155.5t145.5 105t180 38.5q101 0 188.5 -38.5t152 -105t101.5 -155.5t37 -190t-37 -190t-101.5 -155.5t-152 -105t-188.5 -38.5t-185 38.5
t-144.5 105t-94.5 155.5t-34 190zM2543 482q0 -69 26 -130.5t70.5 -107.5t105 -73t129.5 -27t129 27t104 73t69.5 107.5t25.5 130.5q0 70 -25.5 131.5t-69.5 107.5t-104 72.5t-129 26.5t-129.5 -26.5t-105 -72.5t-70.5 -107.5t-26 -131.5zM3448 1203q0 33 22 56t57 23
q32 0 55.5 -23t23.5 -56v-879l-13 -104l-21 -109q-3 -34 -11 -56.5t-19 -36t-24.5 -19.5t-27.5 -6q-20 0 -31 11t-11 31v1168zM3489 482q0 101 35.5 190t97 155.5t145.5 105t180 38.5q101 0 188.5 -38.5t152 -105t101.5 -155.5t37 -190t-37 -190t-101.5 -155.5t-152 -105
t-188.5 -38.5t-185 38.5t-144.5 105t-94.5 155.5t-34 190zM3606 482q0 -69 26 -130.5t70.5 -107.5t105 -73t129.5 -27t129 27t104 73t69.5 107.5t25.5 130.5q0 70 -25.5 131.5t-69.5 107.5t-104 72.5t-129 26.5t-129.5 -26.5t-105 -72.5t-70.5 -107.5t-26 -131.5zM4520 74
q0 -33 22 -56t57 -23q32 0 55.5 23t23.5 56v1118q0 33 -23.5 56t-55.5 23q-35 0 -57 -23t-22 -56v-1118zM5246 -5q59 0 120 14t111 36.5t81.5 51.5t31.5 59q0 25 -13.5 41t-32 23.5t-39.5 5.5t-36 -12q-45 -42 -103 -63.5t-119 -21.5q-65 0 -122 24t-101 65t-71.5 95.5
t-32.5 116.5h729q29 0 46.5 3t26.5 10t12 19t3 30q0 102 -37 190t-101.5 152.5t-152 101.5t-188.5 37t-192 -35.5t-159.5 -100t-109 -155t-40.5 -200.5q0 -101 38.5 -189.5t105.5 -154.5t155.5 -104.5t189.5 -38.5zM5258 840q64 0 120 -23t98.5 -63.5t69 -94.5t31.5 -117
h-657q7 63 36.5 117t75 94.5t103.5 63.5t123 23zM5821 1203q0 33 22 56t57 23q32 0 55.5 -23t23.5 -56v-879l-13 -104l-21 -109q-3 -34 -11 -56.5t-19 -36t-24.5 -19.5t-27.5 -6q-20 0 -31 11t-11 31v1168zM5862 482q0 101 35.5 190t97 155.5t145.5 105t180 38.5
q101 0 188.5 -38.5t152 -105t101.5 -155.5t37 -190t-37 -190t-101.5 -155.5t-152 -105t-188.5 -38.5t-185 38.5t-144.5 105t-94.5 155.5t-34 190zM5979 482q0 -69 26 -130.5t70.5 -107.5t105 -73t129.5 -27t129 27t104 73t69.5 107.5t25.5 130.5q0 70 -25.5 131.5
t-69.5 107.5t-104 72.5t-129 26.5t-129.5 -26.5t-105 -72.5t-70.5 -107.5t-26 -131.5zM6874 484q0 -101 38.5 -190t105.5 -155.5t155.5 -105t189.5 -38.5t190 38.5t155.5 105t105 155.5t38.5 190q0 100 -38.5 189t-105 156t-155.5 105.5t-190 38.5t-189.5 -38.5
t-155.5 -105.5t-105.5 -156t-38.5 -189zM7035 484q0 69 25.5 130.5t69.5 107.5t104 72.5t129 26.5t129 -26.5t104 -72.5t69.5 -107.5t25.5 -130.5q0 -70 -25.5 -131.5t-69.5 -107.5t-104 -72.5t-129 -26.5t-129 26.5t-104 72.5t-69.5 107.5t-25.5 131.5zM8749 1203v-958
l13 -25l21 -109q3 -34 11 -56.5t19 -36t24.5 -19.5t27.5 -6q20 0 31 11t11 31v1168q0 33 -22 56t-57 23q-32 0 -55.5 -23t-23.5 -56zM8861 482q0 101 -36 190t-98 155.5t-144.5 105t-174.5 38.5q-101 0 -188.5 -38.5t-152 -105t-101.5 -155.5t-37 -190t37 -190t101.5 -155.5
t152 -105t188.5 -38.5t184.5 38.5t143 105t92.5 155.5t33 190zM8749 482q0 -69 -26 -130.5t-70.5 -107.5t-105 -73t-129.5 -27t-129 27t-104 73t-69.5 107.5t-25.5 130.5q0 70 25.5 131.5t69.5 107.5t104 72.5t129 26.5t129.5 -26.5t105 -72.5t70.5 -107.5t26 -131.5z
M9800 1203v-958l13 -25l21 -109q3 -34 11 -56.5t19 -36t24.5 -19.5t27.5 -6q20 0 31 11t11 31v1168q0 33 -22 56t-57 23q-32 0 -55.5 -23t-23.5 -56zM9912 482q0 101 -36 190t-98 155.5t-144.5 105t-174.5 38.5q-101 0 -188.5 -38.5t-152 -105t-101.5 -155.5t-37 -190
t37 -190t101.5 -155.5t152 -105t188.5 -38.5t184.5 38.5t143 105t92.5 155.5t33 190zM9800 482q0 -69 -26 -130.5t-70.5 -107.5t-105 -73t-129.5 -27t-129 27t-104 73t-69.5 107.5t-25.5 130.5q0 70 25.5 131.5t69.5 107.5t104 72.5t129 26.5t129.5 -26.5t105 -72.5
t70.5 -107.5t26 -131.5zM10402 60l-15 34.5l-39.5 90.5l-55.5 127l-63 145l-173 394q-14 35 -10 68t41 50q31 14 65 1.5t51 -56.5l282 -693l117 287l89 219l57 141.5l22 55.5q6 13 16 24.5t24 19t31 9t37 -7.5q11 -5 21.5 -14.5t17 -23.5t7 -31t-8.5 -37l-399 -924
q-22 -52 -45.5 -94.5t-56 -74t-79 -50t-115.5 -21.5q-36 -1 -64 17.5t-28 59.5q0 22 11.5 34t30.5 19.5t43 13.5t48.5 16t47 27t39.5 47z" />
    <glyph glyph-name="endash" unicode="&#x2013;" horiz-adv-x="937" 
d="M860 604q0 -32 -24.5 -55.5t-81.5 -23.5h-573q-29 0 -49 6.5t-32.5 17.5t-18 25.5t-5.5 29.5t5.5 29.5t18 25.5t32.5 17.5t49 6.5h573q57 0 81.5 -23.5t24.5 -55.5z" />
    <glyph glyph-name="emdash" unicode="&#x2014;" horiz-adv-x="1103" 
d="M1026 604q0 -38 -33 -58.5t-93 -20.5h-726q-48 0 -73 23.5t-25 58.5q0 31 25 53.5t75 22.5h724q23 0 45.5 -3.5t40.5 -12.5t29 -24t11 -39z" />
    <glyph glyph-name="underscore" unicode="_" horiz-adv-x="1053" 
d="M932 69q0 -26 -13 -41.5t-32.5 -23.5t-44 -11t-46.5 -3h-539q-23 0 -47 3t-43.5 11t-32.5 23.5t-13 41.5q0 25 13 40.5t32.5 24t43.5 11.5t47 3h539q22 0 46.5 -3t44 -11.5t32.5 -24t13 -40.5z" />
    <glyph glyph-name="brokenbar" unicode="&#xa6;" horiz-adv-x="388" 
d="M194 1282q11 0 24.5 -4.5t25.5 -15t20.5 -28t8.5 -43.5v-580q0 -23 -7.5 -38.5t-19 -25.5t-25.5 -14.5t-27 -4.5q-14 0 -27.5 4.5t-25 14t-18.5 25.5t-7 39v580q0 26 8 43.5t20 28t25.5 15t24.5 4.5zM194 445q36 0 57.5 -25t21.5 -55v-591q0 -21 -7.5 -36.5t-19.5 -25
t-26 -14.5t-26 -5q-31 0 -54.5 21t-23.5 60v591q0 17 6.5 32t17.5 25.5t25 16.5t29 6z" />
    <glyph glyph-name="oe" unicode="&#x153;" horiz-adv-x="1902" 
d="M1369 10q-101 0 -189.5 38.5t-155.5 104.5t-105.5 154.5t-38.5 189.5q0 110 40.5 200.5t109 155t159.5 100t192 35.5t188.5 -37t152 -101.5t101.5 -152.5t37 -190q0 -18 -3 -30t-12 -19t-26.5 -10t-46.5 -3h-729q5 -62 32.5 -116.5t71.5 -95.5t101 -65t122 -24
q61 0 119 21.5t103 63.5q15 10 36 12t39.5 -5.5t32 -23.5t13.5 -41q0 -30 -31.5 -59t-81.5 -51.5t-111 -36.5t-120 -14zM1381 855q-65 0 -123 -23t-103.5 -63.5t-75 -94.5t-36.5 -117h657q-5 63 -31.5 117t-69 94.5t-98.5 63.5t-120 23zM61 484q0 100 38.5 189t105.5 156
t155.5 105.5t189.5 38.5t190 -38.5t155.5 -105.5t105 -156t38.5 -189q0 -101 -38.5 -190t-105 -155.5t-155.5 -105t-190 -38.5t-189.5 38.5t-155.5 105t-105.5 155.5t-38.5 190zM222 484q0 -70 25.5 -131.5t69.5 -107.5t104 -72.5t129 -26.5t129 26.5t104 72.5t69.5 107.5
t25.5 131.5q0 69 -25.5 130.5t-69.5 107.5t-104 72.5t-129 26.5t-129 -26.5t-104 -72.5t-69.5 -107.5t-25.5 -130.5z" />
    <glyph glyph-name="divide" unicode="&#xf7;" horiz-adv-x="838" 
d="M338 299q0 35 24 59t59 24q18 0 33 -6.5t26.5 -18t18 -26.5t6.5 -32q0 -35 -24.5 -59.5t-59.5 -24.5q-17 0 -32.5 6.5t-26.5 18t-17.5 26.5t-6.5 33zM505 996q0 -35 -25 -59t-59 -24q-35 0 -59 24t-24 59q0 34 24 59t59 25q34 0 59 -25t25 -59zM698 701q26 0 43 -18.5
t17 -44.5q0 -25 -17 -44t-43 -19h-547q-25 0 -42.5 19t-17.5 44q0 26 17.5 44.5t42.5 18.5h547z" />
    <glyph glyph-name="periodcentered" unicode="&#xb7;" horiz-adv-x="274" 
d="M44 581q0 19 7 36t19.5 29.5t29 19.5t35.5 7t36 -7t29.5 -19.5t20 -29.5t7.5 -36t-7.5 -35.5t-20 -28.5t-29.5 -19t-36 -7q-38 0 -64.5 26t-26.5 64z" />
    <glyph glyph-name="space" unicode=" " horiz-adv-x="454" 
 />
    <glyph glyph-name="guillemotright" unicode="&#xbb;" horiz-adv-x="1111" 
d="M551 2q-25 9 -36.5 27.5t-11 41t11.5 45t31 39.5l355 329l-344 314q-14 13 -28 29.5t-23 34.5t-10.5 36.5t10.5 33.5q16 23 39.5 27t47.5 -2.5t45.5 -21t35.5 -27.5l330 -330l21 -22t20 -23t15 -25t6 -27q0 -23 -19.5 -47.5t-42.5 -45.5l-342 -339l-23.5 -21t-28.5 -20.5
t-30.5 -11.5t-28.5 6zM128 2q-26 9 -37 27.5t-10.5 41t11.5 45t31 39.5l355 329l-344 314q-14 13 -28 29.5t-23 34.5t-10.5 36.5t10.5 33.5q16 23 39 27t47 -2.5t46 -21t36 -27.5l330 -330l21 -22t20 -23t15 -25t6 -27q0 -23 -19.5 -47.5t-42.5 -45.5l-342 -339l-23.5 -21
t-28.5 -20.5t-30.5 -11.5t-28.5 6z" />
    <glyph glyph-name="oslash" unicode="&#xf8;" horiz-adv-x="1098" 
d="M63 526q9 100 55.5 185t118.5 145.5t164 91t192 21.5q59 -8 113 -30l19.5 35.5t25.5 44t29.5 43t31.5 33.5q13 11 28 17t35 1q27 -8 43 -30t13 -45q-1 -6 -3 -12.5t-10 -23t-24.5 -48l-47.5 -88.5q49 -36 87 -82.5t63 -101.5t35.5 -116.5t4.5 -126.5q-9 -101 -55.5 -186
t-118.5 -145t-164 -90.5t-192 -21.5q-66 7 -113 29l-27 -49l-23 -40t-25.5 -39t-29 -29t-33.5 -9q-20 1 -35.5 9t-25.5 20t-14.5 27t-2.5 31q1 5 5 13.5t12.5 25l22.5 43l37 68.5q-49 36 -87 83t-63.5 102.5t-36 117t-4.5 127.5zM224 518q-8 -69 10.5 -133t57.5 -114.5
t95.5 -83.5t125.5 -40q69 -8 131.5 12t111.5 61t80.5 99.5t39.5 127.5q7 69 -11.5 132.5t-57.5 114t-95.5 83.5t-124.5 41q-69 7 -131.5 -13t-111.5 -60.5t-81 -99t-39 -127.5z" />
    <glyph glyph-name="daggerdbl" unicode="&#x2021;" horiz-adv-x="853" 
d="M818 420q0 -21 -11 -37t-28 -22q-66 -8 -136.5 -12t-142.5 -4l-2 -351q-1 -62 -5 -120.5t-11 -115.5q-5 -17 -20.5 -28t-35.5 -11q-21 0 -36.5 11t-20.5 28q-15 137 -17.5 287.5t-1.5 299.5q-73 0 -142 4t-135 12q-17 6 -28 22t-11 37q0 20 11 36.5t28 22.5q31 9 64.5 14
t69.5 4l144 -3v191q-146 0 -278 15q-17 7 -28 23t-11 36q0 21 11 37t28 22q66 8 136 12t142 4q0 105 -0.5 208.5t15.5 199.5q7 17 23 28.5t37 11.5q20 0 36.5 -11.5t22.5 -28.5q8 -42 13 -87.5t5 -92.5l-3 -228q72 0 142.5 -4t136.5 -12q17 -6 28 -22t11 -37
q0 -20 -11 -36.5t-28 -22.5q-66 -8 -136.5 -11.5t-142.5 -3.5v-191q72 0 142.5 -3.5t136.5 -11.5q17 -6 28 -22.5t11 -36.5z" />
    <glyph glyph-name="dagger" unicode="&#x2020;" horiz-adv-x="859" 
d="M424 -282q-22 0 -34 12t-17.5 35t-7 57.5t-1.5 79.5q0 1 -0.5 35t-1.5 88.5t-2.5 124.5l-3 143l-3 143t-2.5 125t-1.5 88.5t-0.5 34.5q-72 1 -144 5t-135 16q-16 6 -26.5 21t-10.5 34q0 20 10.5 35t26.5 20q63 10 135 15.5t144 5.5v45q0 37 1.5 87t4 101.5t6.5 98.5t9 77
q5 16 20 26.5t34 10.5q20 0 35 -10.5t20 -26.5q5 -30 9 -76t6.5 -96.5t4 -100.5t1.5 -87v-49q72 0 145 -5.5t136 -15.5q16 -5 26.5 -20t10.5 -35q0 -19 -10.5 -34t-26.5 -21q-63 -11 -136 -16t-145 -5q0 -1 -0.5 -35t-1.5 -88.5t-2.5 -125t-2.5 -143.5t-2.5 -143t-2.5 -125
t-1.5 -89t-0.5 -35q0 -43 -1 -77t-7 -57t-18.5 -35.5t-35.5 -12.5z" />
    <glyph glyph-name="ellipsis" unicode="&#x2026;" horiz-adv-x="745" 
d="M51 78q0 35 24.5 59.5t59.5 24.5q17 0 32 -6.5t26.5 -18t18 -26.5t6.5 -33q0 -35 -24 -59t-59 -24q-18 0 -33 6.5t-26.5 17.5t-18 26.5t-6.5 32.5zM290 78q0 35 24.5 59.5t59.5 24.5q17 0 32 -6.5t26.5 -18t18 -26.5t6.5 -33q0 -35 -24 -59t-59 -24q-18 0 -33 6.5
t-26.5 17.5t-18 26.5t-6.5 32.5zM529 78q0 18 6.5 33t17.5 26.5t26.5 18t32.5 6.5q35 0 59.5 -24.5t24.5 -59.5q0 -17 -6.5 -32.5t-18 -26.5t-26.5 -17.5t-33 -6.5q-35 0 -59 24t-24 59z" />
    <glyph glyph-name="asciicircum" unicode="^" horiz-adv-x="996" 
d="M875 899q0 -23 -13 -40.5t-36 -24.5q-20 -8 -37 -7q-25 8 -48.5 28.5t-42.5 40.5l-200 219l-200 -219q-19 -20 -42.5 -40.5t-48.5 -28.5q-14 -2 -26 1q-14 2 -26 10t-20 19t-11.5 25t-1.5 29q4 14 14.5 29t23.5 29.5t26.5 28l25.5 25.5l204 205q16 17 37 34t47 17
q20 0 41 -16t40 -35l204 -205l28.5 -28.5t29 -32t23 -33t9.5 -30.5z" />
    <glyph glyph-name="plusminus" unicode="&#xb1;" horiz-adv-x="898" 
d="M522 317q0 -24 -18 -41t-44 -17q-24 0 -43 17t-19 41v562q0 23 19 40t43 17q26 0 44 -17t18 -40v-562zM740 667q24 0 41 -18t17 -44q0 -24 -17 -42.5t-41 -18.5h-562q-24 0 -41 18.5t-17 42.5q0 26 17 44t41 18h562zM740 124q24 0 41 -18t17 -44q0 -24 -17 -43t-41 -19
h-562q-24 0 -41 19t-17 43q0 26 17 44t41 18h562z" />
    <glyph glyph-name="guilsinglright" unicode="&#x203a;" horiz-adv-x="687" 
d="M128 2q-26 9 -37 27.5t-10.5 41t11.5 45t31 39.5l355 329l-344 314q-14 13 -28 29.5t-23 34.5t-10.5 36.5t10.5 33.5q16 23 39 27t47 -2.5t46 -21t36 -27.5l330 -330l21 -22t20 -23t15 -25t6 -27q0 -23 -19.5 -47.5t-42.5 -45.5l-342 -339l-23.5 -21t-28.5 -20.5
t-30.5 -11.5t-28.5 6z" />
    <glyph glyph-name="guilsinglleft" unicode="&#x2039;" horiz-adv-x="681" 
d="M551 2q-13 -9 -28.5 -6t-30.5 11.5t-28.5 20.5l-23.5 21l-342 339q-23 21 -42.5 45.5t-19.5 47.5q0 14 6 27t15 25t20 23l21 22l330 330q14 13 36 27.5t46 21t47 2.5t39 -27q12 -15 10.5 -33.5t-10.5 -36.5t-23 -34.5t-28 -29.5l-344 -314l355 -329q19 -17 30.5 -39.5
t12 -45t-11 -41t-36.5 -27.5z" />
    <glyph glyph-name="copyright" unicode="&#xa9;" horiz-adv-x="1384" 
d="M49 631q0 87 23 168.5t65.5 152t101 129t130 100t153 64.5t169.5 23q87 0 168.5 -23t153 -64.5t130 -100t101 -129t65.5 -152t23 -168.5q0 -132 -51 -247.5t-138.5 -202t-204 -136.5t-247.5 -50q-132 0 -248.5 50t-204 136.5t-138.5 202t-51 247.5zM159 630
q0 -108 42.5 -203t115 -166.5t169 -113t205.5 -41.5q108 0 204.5 41.5t169 113t115 167.5t42.5 204t-42.5 203t-115 166.5t-169 112.5t-204.5 41q-109 0 -205.5 -41.5t-169 -112.5t-115 -167t-42.5 -204zM907 838q-47 51 -103 73.5t-115 22.5q-62 0 -117 -24t-95.5 -65
t-64 -96t-23.5 -118q0 -62 23.5 -116.5t64 -95.5t95.5 -65t117 -24q74 0 131 30t103 79q9 8 27.5 11t33.5 -7q24 -15 24 -42q0 -19 -14 -36q-33 -35 -65.5 -61t-68.5 -42.5t-77 -24.5t-92 -8q-84 0 -157.5 31.5t-128.5 86t-86.5 128t-31.5 156.5q0 84 31.5 158t86.5 128.5
t128.5 86.5t157.5 32t155 -27t137 -98q13 -13 13 -35q0 -9 -4.5 -20.5t-13.5 -19.5q-14 -11 -35 -11.5t-36 13.5z" />
    <glyph glyph-name="registered" unicode="&#xae;" horiz-adv-x="1413" 
d="M49 631q0 87 23 168.5t65.5 152t101 129t130 100t153 64.5t169.5 23q87 0 168.5 -23t153 -64.5t130 -100t101 -129t65.5 -152t23 -168.5q0 -132 -51 -247.5t-138.5 -202t-204 -136.5t-247.5 -50q-132 0 -248.5 50t-204 136.5t-138.5 202t-51 247.5zM174 630
q0 -105 41 -198t111.5 -162.5t164.5 -110t200 -40.5q70 0 135.5 18.5t123 52t105 80.5t81.5 104t53 122t19 136q0 70 -19 135t-53 121.5t-81.5 103.5t-105 80t-123 51.5t-135.5 18.5q-106 0 -200 -40.5t-164.5 -110t-111.5 -163t-41 -198.5zM543 888v27t3 28t10 22t21 9
q32 0 48 -37.5t16 -119.5q21 49 69 90t108 58q51 8 89 -4q12 -2 25.5 -5.5t25 -10t19 -16.5t7.5 -25q0 -18 -11.5 -30t-25.5 -16q-15 -2 -22 -2.5t-13 -0.5t-13.5 0.5t-22.5 0.5q-14 0 -27.5 -0.5t-31.5 -4.5q-32 -9 -60.5 -33.5t-49.5 -60.5t-33 -82t-12 -98
q0 -43 -0.5 -84.5t-0.5 -83.5q0 -24 -1 -51t-6.5 -50.5t-17.5 -39t-34 -15.5q-23 0 -35.5 16.5t-17.5 40.5t-5.5 52t-0.5 51v475z" />
    <glyph glyph-name="ordmasculine" unicode="&#xba;" horiz-adv-x="887" 
d="M54 658q0 81 30.5 152t83.5 124t124 83.5t152 30.5t152.5 -30.5t124 -83.5t83 -124t30.5 -152t-30.5 -152t-83 -124t-124 -83.5t-152.5 -30.5t-152 30.5t-124 83.5t-83.5 124t-30.5 152zM836 79q0 -34 -22 -56.5t-61 -22.5h-614q-16 0 -32 5.5t-28.5 15.5t-20.5 24.5
t-8 33.5q0 35 26.5 57t62.5 22h614q35 0 59 -22.5t24 -56.5zM202 659q0 -51 19 -96t52 -78.5t77 -52.5t94 -19t94.5 19t77.5 52.5t52 78.5t19 96t-19 95.5t-52 77.5t-77.5 52t-94.5 19t-94 -19t-77 -52t-52 -77.5t-19 -95.5z" />
    <glyph glyph-name="O" unicode="O" horiz-adv-x="1394" 
d="M60 631q0 131 50 247t136.5 202.5t202.5 137t248 50.5q131 0 246.5 -50.5t202 -137t137 -202.5t50.5 -247q0 -132 -50.5 -247.5t-137 -202t-202 -136.5t-246.5 -50q-132 0 -248 50t-202.5 136.5t-136.5 202t-50 247.5zM218 630q0 -99 37.5 -186t102.5 -152.5
t152.5 -103.5t186.5 -38t186 38t152 103.5t102.5 153t37.5 186.5t-37.5 186.5t-102.5 152.5t-152 103t-186 38t-186.5 -38t-152.5 -103t-102.5 -153t-37.5 -187z" />
    <glyph glyph-name="P" unicode="P" horiz-adv-x="1062" 
d="M1032 785q0 -104 -41 -190t-110.5 -148t-162.5 -96t-197 -34h-235v-243q0 -33 -23 -56t-56 -23t-56 23t-23 56v1116q0 13 -3.5 26t-3.5 24q0 15 12 24t49 9h339q104 0 197 -37t162.5 -102.5t110.5 -155t41 -193.5zM876 782q0 73 -28 136t-76.5 109t-113 72.5t-137.5 26.5
h-237v-666h237q73 0 137.5 23t113 65t76.5 101.5t28 132.5z" />
    <glyph glyph-name="Q" unicode="Q" horiz-adv-x="1394" 
d="M698 -260q-35 0 -52 20t-19 54l-8 189q-118 14 -220 68t-177.5 137.5t-118.5 192t-43 230.5q0 131 50 247t136.5 202.5t202.5 137t248 50.5q131 0 246.5 -50.5t202 -137t137 -202.5t50.5 -247q0 -122 -43 -230t-118.5 -191.5t-177.5 -137.5t-219 -68l-7 -190
q-3 -35 -20 -54.5t-50 -19.5zM221 631q0 -99 37 -186.5t101.5 -153t151.5 -103.5t186 -38t185.5 38t151 103.5t102 153t37.5 186.5t-37.5 186.5t-102 152.5t-151 103t-185.5 38t-186 -38t-151.5 -103t-101.5 -152.5t-37 -186.5z" />
    <glyph glyph-name="G" unicode="G" horiz-adv-x="1302" 
d="M688 149q66 0 127.5 28.5t111 75t83 106t45.5 121.5q19 19 38 23t34.5 -3.5t26.5 -24t14 -37t-4.5 -44t-27.5 -44.5q-7 -31 -26 -69.5t-48 -78t-68 -76.5t-87 -66.5t-104 -47t-118 -17.5q-132 0 -246 50t-198.5 136.5t-132.5 202t-48 247.5q0 131 50 247t136.5 202.5
t202.5 137t248 50.5q79 0 144 -14t121 -41.5t107 -68.5t103 -96q23 -25 23 -55q0 -26 -16 -46t-39 -26q-17 -5 -35.5 -3t-34.5 15q-43 40 -84 72.5t-85.5 56t-94 36.5t-109.5 13q-99 0 -186.5 -38t-152.5 -103t-102.5 -153t-37.5 -187q0 -101 36 -189t99.5 -153t149.5 -102
t185 -37zM1053 419h-252q-34 0 -53.5 21t-21.5 44q-1 12 3.5 25t14.5 23t24.5 16.5t33.5 6.5h357q29 -2 46.5 -19.5t17.5 -55.5v-417q0 -29 -19 -48t-49 -19q-31 0 -48.5 20t-17.5 51v352h-36z" />
    <glyph glyph-name="b" unicode="b" horiz-adv-x="1159" 
d="M121 1203q0 33 22 56t57 23q32 0 55.5 -23t23.5 -56v-879l-13 -104l-21 -109q-3 -34 -11 -56.5t-19 -36t-24.5 -19.5t-27.5 -6q-20 0 -31 11t-11 31v1168zM162 482q0 101 35.5 190t97 155.5t145.5 105t180 38.5q101 0 188.5 -38.5t152 -105t101.5 -155.5t37 -190
t-37 -190t-101.5 -155.5t-152 -105t-188.5 -38.5t-185 38.5t-144.5 105t-94.5 155.5t-34 190zM279 482q0 -69 26 -130.5t70.5 -107.5t105 -73t129.5 -27t129 27t104 73t69.5 107.5t25.5 130.5q0 70 -25.5 131.5t-69.5 107.5t-104 72.5t-129 26.5t-129.5 -26.5t-105 -72.5
t-70.5 -107.5t-26 -131.5z" />
    <glyph glyph-name="Ograve" unicode="&#xd2;" horiz-adv-x="1394" 
d="M60 631q0 131 50 247t136.5 202.5t202.5 137t248 50.5q131 0 246.5 -50.5t202 -137t137 -202.5t50.5 -247q0 -132 -50.5 -247.5t-137 -202t-202 -136.5t-246.5 -50q-132 0 -248 50t-202.5 136.5t-136.5 202t-50 247.5zM218 630q0 -99 37.5 -186t102.5 -152.5
t152.5 -103.5t186.5 -38t186 38t152 103.5t102.5 153t37.5 186.5t-37.5 186.5t-102.5 152.5t-152 103t-186 38t-186.5 -38t-152.5 -103t-102.5 -153t-37.5 -187zM586 1615q19 0 45 -19.5t49.5 -44t40 -48t17.5 -31.5q2 -7 3.5 -14.5t-0.5 -13.5q-2 -15 -10.5 -25.5
t-22.5 -14.5q-18 -8 -36 -3q-10 1 -35 16t-51.5 36t-47.5 43.5t-23 37.5q-5 34 15 57.5t56 23.5z" />
    <glyph glyph-name="Oacute" unicode="&#xd3;" horiz-adv-x="1394" 
d="M60 631q0 131 50 247t136.5 202.5t202.5 137t248 50.5q131 0 246.5 -50.5t202 -137t137 -202.5t50.5 -247q0 -132 -50.5 -247.5t-137 -202t-202 -136.5t-246.5 -50q-132 0 -248 50t-202.5 136.5t-136.5 202t-50 247.5zM218 630q0 -99 37.5 -186t102.5 -152.5
t152.5 -103.5t186.5 -38t186 38t152 103.5t102.5 153t37.5 186.5t-37.5 186.5t-102.5 152.5t-152 103t-186 38t-186.5 -38t-152.5 -103t-102.5 -153t-37.5 -187zM799 1597q36 0 56 -23.5t15 -57.5q-2 -15 -23 -37.5t-47.5 -43.5t-51.5 -36t-35 -16q-18 -5 -36 3
q-14 4 -22.5 14.5t-10.5 25.5q-3 13 2 28q1 8 18 31.5t40.5 48t49 44t45.5 19.5z" />
    <glyph glyph-name="Odieresis" unicode="&#xd6;" horiz-adv-x="1394" 
d="M60 631q0 131 50 247t136.5 202.5t202.5 137t248 50.5q131 0 246.5 -50.5t202 -137t137 -202.5t50.5 -247q0 -132 -50.5 -247.5t-137 -202t-202 -136.5t-246.5 -50q-132 0 -248 50t-202.5 136.5t-136.5 202t-50 247.5zM218 630q0 -99 37.5 -186t102.5 -152.5
t152.5 -103.5t186.5 -38t186 38t152 103.5t102.5 153t37.5 186.5t-37.5 186.5t-102.5 152.5t-152 103t-186 38t-186.5 -38t-152.5 -103t-102.5 -153t-37.5 -187zM439 1472q0 35 23.5 59t58.5 24q34 0 58.5 -24t24.5 -59t-24.5 -58.5t-58.5 -23.5q-35 0 -58.5 23.5
t-23.5 58.5zM746 1472q0 35 23.5 59t57.5 24q35 0 59 -24t24 -59t-24 -58.5t-59 -23.5q-34 0 -57.5 23.5t-23.5 58.5z" />
    <glyph glyph-name="agrave" unicode="&#xe0;" horiz-adv-x="1162" 
d="M457 1319q19 0 45 -19.5t49.5 -44t40 -48t17.5 -31.5q2 -7 3.5 -14.5t-0.5 -13.5q-2 -15 -10.5 -25.5t-22.5 -14.5q-18 -8 -36 -3q-10 1 -35 16t-51.5 36t-47.5 43.5t-23 37.5q-5 34 15 57.5t56 23.5zM1041 54q0 -29 -15 -45t-40 -16q-28 0 -45.5 16.5t-23.5 45.5
l-21 165l-13 25v234q0 33 23.5 56t55.5 23q35 0 57 -23t22 -56v-425zM1001 482q0 -101 -32.5 -190t-91.5 -155.5t-141.5 -105t-183.5 -38.5t-189.5 38.5t-155.5 105t-105.5 155.5t-38.5 190t38.5 190t105.5 155.5t155.5 105t189.5 38.5t183.5 -38.5t141.5 -105t91.5 -155.5
t32.5 -190zM880 482q0 70 -25.5 131.5t-69.5 107.5t-104 72.5t-129 26.5t-129 -26.5t-104 -72.5t-69.5 -107.5t-25.5 -131.5q0 -69 25.5 -130.5t69.5 -107.5t104 -73t129 -27t129 27t104 73t69.5 107.5t25.5 130.5zM1041 435q0 -33 -22 -56t-57 -23q-32 0 -55.5 23t-23.5 56
v284l13 25l21 108q6 67 30 92.5t52 25.5q42 0 42 -42v-493z" />
    <glyph glyph-name="aacute" unicode="&#xe1;" horiz-adv-x="1162" 
d="M679 1312q36 0 56 -23.5t15 -57.5q-2 -15 -23 -37.5t-47.5 -43.5t-51.5 -36t-35 -16q-18 -5 -36 3q-14 4 -22.5 14.5t-10.5 25.5q-3 13 2 28q1 8 18 31.5t40.5 48t49 44t45.5 19.5zM1041 54q0 -29 -15 -45t-40 -16q-28 0 -45.5 16.5t-23.5 45.5l-21 165l-13 25v234
q0 33 23.5 56t55.5 23q35 0 57 -23t22 -56v-425zM1001 482q0 -101 -32.5 -190t-91.5 -155.5t-141.5 -105t-183.5 -38.5t-189.5 38.5t-155.5 105t-105.5 155.5t-38.5 190t38.5 190t105.5 155.5t155.5 105t189.5 38.5t183.5 -38.5t141.5 -105t91.5 -155.5t32.5 -190zM880 482
q0 70 -25.5 131.5t-69.5 107.5t-104 72.5t-129 26.5t-129 -26.5t-104 -72.5t-69.5 -107.5t-25.5 -131.5q0 -69 25.5 -130.5t69.5 -107.5t104 -73t129 -27t129 27t104 73t69.5 107.5t25.5 130.5zM1041 435q0 -33 -22 -56t-57 -23q-32 0 -55.5 23t-23.5 56v284l13 25l21 108
q6 67 30 92.5t52 25.5q42 0 42 -42v-493z" />
    <glyph glyph-name="ae" unicode="&#xe6;" horiz-adv-x="1907" 
d="M1030 54q0 -29 -15 -45t-40 -16q-28 0 -45.5 16.5t-23.5 45.5l-21 165l-13 25v234q0 33 23.5 56t55.5 23q35 0 57 -23t22 -56v-425zM990 482q0 -101 -32.5 -190t-91.5 -155.5t-141.5 -105t-183.5 -38.5t-189.5 38.5t-155.5 105t-105.5 155.5t-38.5 190t38.5 190
t105.5 155.5t155.5 105t189.5 38.5t183.5 -38.5t141.5 -105t91.5 -155.5t32.5 -190zM869 482q0 70 -25.5 131.5t-69.5 107.5t-104 72.5t-129 26.5t-129 -26.5t-104 -72.5t-69.5 -107.5t-25.5 -131.5q0 -69 25.5 -130.5t69.5 -107.5t104 -73t129 -27t129 27t104 73
t69.5 107.5t25.5 130.5zM1030 435q0 -33 -22 -56t-57 -23q-32 0 -55.5 23t-23.5 56v284l13 25l21 108q6 67 30 92.5t52 25.5q42 0 42 -42v-493zM1397 -5q-101 0 -189.5 38.5t-155.5 104.5t-105.5 154.5t-38.5 189.5q0 110 40.5 200.5t109 155t159.5 100t192 35.5t188.5 -37
t152 -101.5t101.5 -152.5t37 -190q0 -18 -3 -30t-12 -19t-26.5 -10t-46.5 -3h-729q5 -62 32.5 -116.5t71.5 -95.5t101 -65t122 -24q61 0 119 21.5t103 63.5q15 10 36 12t39.5 -5.5t32 -23.5t13.5 -41q0 -30 -31.5 -59t-81.5 -51.5t-111 -36.5t-120 -14zM1409 840
q-65 0 -123 -23t-103.5 -63.5t-75 -94.5t-36.5 -117h657q-5 63 -31.5 117t-69 94.5t-98.5 63.5t-120 23z" />
    <glyph glyph-name="adieresis" unicode="&#xe4;" horiz-adv-x="1162" 
d="M324 1194q0 35 23.5 59t58.5 24q34 0 58.5 -24t24.5 -59t-24.5 -58.5t-58.5 -23.5q-35 0 -58.5 23.5t-23.5 58.5zM631 1194q0 35 23.5 59t57.5 24q35 0 59 -24t24 -59t-24 -58.5t-59 -23.5q-34 0 -57.5 23.5t-23.5 58.5zM1041 54q0 -29 -15 -45t-40 -16q-28 0 -45.5 16.5
t-23.5 45.5l-21 165l-13 25v234q0 33 23.5 56t55.5 23q35 0 57 -23t22 -56v-425zM1001 482q0 -101 -32.5 -190t-91.5 -155.5t-141.5 -105t-183.5 -38.5t-189.5 38.5t-155.5 105t-105.5 155.5t-38.5 190t38.5 190t105.5 155.5t155.5 105t189.5 38.5t183.5 -38.5t141.5 -105
t91.5 -155.5t32.5 -190zM880 482q0 70 -25.5 131.5t-69.5 107.5t-104 72.5t-129 26.5t-129 -26.5t-104 -72.5t-69.5 -107.5t-25.5 -131.5q0 -69 25.5 -130.5t69.5 -107.5t104 -73t129 -27t129 27t104 73t69.5 107.5t25.5 130.5zM1041 435q0 -33 -22 -56t-57 -23
q-32 0 -55.5 23t-23.5 56v284l13 25l21 108q6 67 30 92.5t52 25.5q42 0 42 -42v-493z" />
    <glyph glyph-name="Udieresis" unicode="&#xdc;" horiz-adv-x="1273" 
d="M104 1185q-1 13 -4.5 25.5t-3.5 24.5q0 15 12 24t49 9q22 0 40.5 -5t32.5 -17t22 -32.5t9 -51.5v-670q0 -73 26 -136.5t74.5 -110.5t118.5 -74t159 -27q84 0 153.5 27t120 74.5t78.5 111t28 135.5l-1 693q0 13 -3.5 25.5t-3.5 24.5q0 15 12 24t49 9q23 0 42 -5t33 -17
t21.5 -33t7.5 -53l1 -666q-1 -105 -40 -197.5t-109.5 -161t-169.5 -108.5t-219 -40q-122 0 -221 39.5t-169 108t-107.5 161t-37.5 198.5v691zM376 1492q0 35 23.5 59t58.5 24q34 0 58.5 -24t24.5 -59t-24.5 -58.5t-58.5 -23.5q-35 0 -58.5 23.5t-23.5 58.5zM683 1492
q0 35 23.5 59t57.5 24q35 0 59 -24t24 -59t-24 -58.5t-59 -23.5q-34 0 -57.5 23.5t-23.5 58.5z" />
    <glyph glyph-name="OE" unicode="&#x152;" horiz-adv-x="2144" 
d="M2086 74q0 -38 -27.5 -58.5t-63.5 -20.5h-704q-53 0 -78 28t-25 79v1074q-1 14 -5 29.5t-4 29.5q0 15 10 24.5t40 9.5h770q42 0 63 -24t21 -52.5t-20.5 -52.5t-61.5 -24h-656v-409h527q18 0 34 -7t27.5 -19t16 -29t-0.5 -37q-5 -26 -25.5 -41.5t-49.5 -15.5h-529v-405
h647q19 0 36 -4.5t30 -14.5t20.5 -24.5t7.5 -35.5zM60 631q0 131 50 247t136.5 202.5t202.5 137t248 50.5q131 0 246.5 -50.5t202 -137t137 -202.5t50.5 -247q0 -132 -50.5 -247.5t-137 -202t-202 -136.5t-246.5 -50q-132 0 -248 50t-202.5 136.5t-136.5 202t-50 247.5z
M218 630q0 -99 37.5 -186t102.5 -152.5t152.5 -103.5t186.5 -38t186 38t152 103.5t102.5 153t37.5 186.5t-37.5 186.5t-102.5 152.5t-152 103t-186 38t-186.5 -38t-152.5 -103t-102.5 -153t-37.5 -187z" />
    <glyph glyph-name="caron" unicode="&#x2c7;" horiz-adv-x="630" 
d="M107 1454q-11 12 -22.5 26t-18 29t-5 30.5t15.5 29.5q23 23 51.5 14.5t56.5 -37.5l108 -108l108 109q28 29 56.5 36.5t50.5 -14.5q20 -21 15 -47.5t-26 -48.5l-168 -163q-18 -14 -40 -12.5t-40 19.5z" />
    <glyph glyph-name="Tcaron" unicode="&#x164;" horiz-adv-x="1091" 
d="M1060 1190q0 -36 -24 -57.5t-62 -21.5h-349l-1 -1037q-1 -33 -22 -56t-56 -23t-56.5 22.5t-21.5 56.5l-1 1037h-352q-36 0 -60.5 21.5t-24.5 57.5q0 31 23.5 55t61.5 24h857q38 0 63 -20.5t25 -58.5zM365 1545q-11 12 -22.5 26t-18 29t-5 30.5t15.5 29.5q23 23 51.5 14.5
t56.5 -37.5l108 -108l108 109q28 29 56.5 36.5t50.5 -14.5q20 -21 15 -47.5t-26 -48.5l-168 -163q-18 -14 -40 -12.5t-40 19.5z" />
    <glyph glyph-name="zcaron" unicode="&#x17e;" horiz-adv-x="1061" 
d="M946 874q0 -13 -3 -25.5t-13 -28t-29 -37.5t-51 -55l-563 -572h617q37 0 60.5 -17.5t23.5 -52.5q0 -36 -25.5 -56t-55.5 -20h-761q-29 0 -53 11.5t-31 43.5q-8 32 3 63.5t47 65.5l625 615l-535 -2q-39 0 -65.5 17.5t-26.5 52.5q0 31 23 53.5t68 22.5h659q21 0 37 -7
t27 -18t16.5 -25t5.5 -29zM364 1255q-11 12 -22.5 26t-18 29t-5 30.5t15.5 29.5q23 23 51.5 14.5t56.5 -37.5l108 -108l108 109q28 29 56.5 36.5t50.5 -14.5q20 -21 15 -47.5t-26 -48.5l-168 -163q-18 -14 -40 -12.5t-40 19.5z" />
    <glyph glyph-name="Rcaron" unicode="&#x158;" horiz-adv-x="1079" 
d="M785 469l227 -353q18 -24 14.5 -55.5t-31.5 -51.5t-58.5 -14t-50.5 33l-241 390zM1032 785q0 -104 -41 -190t-110.5 -148t-162.5 -96t-197 -34h-235v-243q0 -33 -23 -56t-56 -23t-56 23t-23 56v1116q0 13 -3.5 26t-3.5 24q0 15 12 24t49 9h339q104 0 197 -37
t162.5 -102.5t110.5 -155t41 -193.5zM876 782q0 73 -28 136t-76.5 109t-113 72.5t-137.5 26.5h-237v-666h237q73 0 137.5 23t113 65t76.5 101.5t28 132.5zM320 1521q-11 12 -22.5 26t-18 29t-5 30.5t15.5 29.5q23 23 51.5 14.5t56.5 -37.5l108 -108l108 109q28 29 56.5 36.5
t50.5 -14.5q20 -21 15 -47.5t-26 -48.5l-168 -163q-18 -14 -40 -12.5t-40 19.5z" />
    <glyph glyph-name="Ncaron" unicode="&#x147;" horiz-adv-x="1363" 
d="M1241 79q0 -34 -21 -59t-57 -25q-25 0 -47 17.5t-37 34.5l-794 925v-898q0 -34 -22.5 -56.5t-55.5 -22.5q-35 0 -57 23t-22 54v1113q0 14 -3.5 24.5t-3.5 27.5q0 14 12 22.5t49 8.5t58.5 -11.5t43.5 -34.5l800 -938v899q0 16 -4 27t-4 25q0 8 2 14.5t9.5 10.5t22 6
t39.5 2q48 0 70 -21.5t22 -59.5v-1108zM515 1525q-11 12 -22.5 26t-18 29t-5 30.5t15.5 29.5q23 23 51.5 14.5t56.5 -37.5l108 -108l108 109q28 29 56.5 36.5t50.5 -14.5q20 -21 15 -47.5t-26 -48.5l-168 -163q-18 -14 -40 -12.5t-40 19.5z" />
    <glyph glyph-name="ccaron" unicode="&#x10d;" horiz-adv-x="977" 
d="M888 845q25 -26 25 -57q0 -19 -8.5 -34.5t-22.5 -25.5t-32 -12.5t-36 5.5q-51 37 -111.5 62.5t-128.5 30.5q-70 4 -134 -19t-112.5 -67t-77.5 -107t-29 -139q0 -72 27.5 -134.5t75 -107.5t112 -69.5t138.5 -20.5q61 2 119 25.5t103 65.5q14 9 32.5 12t35.5 -3
q22 -5 37 -24.5t15 -45.5q0 -31 -31 -64t-82.5 -60.5t-117.5 -45t-136 -17.5q-101 0 -190 38.5t-155.5 105t-105 155.5t-38.5 190t38.5 190t105 155.5t155.5 105t190 38.5q46 0 93.5 -7.5t92.5 -23t84.5 -39.5t68.5 -56zM354 1213q-11 12 -22.5 26t-18 29t-5 30.5t15.5 29.5
q23 23 51.5 14.5t56.5 -37.5l108 -108l108 109q28 29 56.5 36.5t50.5 -14.5q20 -21 15 -47.5t-26 -48.5l-168 -163q-18 -14 -40 -12.5t-40 19.5z" />
    <glyph glyph-name="Ccaron" unicode="&#x10c;" horiz-adv-x="1257" 
d="M1043 958q-74 78 -163 114.5t-183 36.5q-99 0 -186.5 -38t-152.5 -103t-102.5 -152.5t-37.5 -186.5t37.5 -186.5t103 -152.5t152.5 -103t186 -38q58 0 110 13t97.5 36t86.5 55t78 71q17 13 40 16.5t43 -8.5q19 -8 31.5 -25t12.5 -38q0 -34 -26 -60q-51 -56 -101.5 -96.5
t-106.5 -67t-121 -39.5t-144 -13q-132 0 -248 50t-202.5 136.5t-136.5 202.5t-50 248q0 87 22.5 168t64 152t100 129t129 99.5t152 64.5t169.5 23q66 0 126.5 -10t116.5 -33.5t109 -61t105 -92.5q11 -12 17 -27.5t6 -31.5q1 -17 -6.5 -32t-21.5 -26q-20 -17 -49 -18.5
t-57 24.5zM499 1531q-11 12 -22.5 26t-18 29t-5 30.5t15.5 29.5q23 23 51.5 14.5t56.5 -37.5l108 -108l108 109q28 29 56.5 36.5t50.5 -14.5q20 -21 15 -47.5t-26 -48.5l-168 -163q-18 -14 -40 -12.5t-40 19.5z" />
    <glyph glyph-name="ecaron" unicode="&#x11b;" horiz-adv-x="1100" 
d="M549 -5q-101 0 -189.5 38.5t-155.5 104.5t-105.5 154.5t-38.5 189.5q0 110 40.5 200.5t109 155t159.5 100t192 35.5t188.5 -37t152 -101.5t101.5 -152.5t37 -190q0 -18 -3 -30t-12 -19t-26.5 -10t-46.5 -3h-729q5 -62 32.5 -116.5t71.5 -95.5t101 -65t122 -24
q61 0 119 21.5t103 63.5q15 10 36 12t39.5 -5.5t32 -23.5t13.5 -41q0 -30 -31.5 -59t-81.5 -51.5t-111 -36.5t-120 -14zM561 840q-65 0 -123 -23t-103.5 -63.5t-75 -94.5t-36.5 -117h657q-5 63 -31.5 117t-69 94.5t-98.5 63.5t-120 23zM370 1221q-11 12 -22.5 26t-18 29
t-5 30.5t15.5 29.5q23 23 51.5 14.5t56.5 -37.5l108 -108l108 109q28 29 56.5 36.5t50.5 -14.5q20 -21 15 -47.5t-26 -48.5l-168 -163q-18 -14 -40 -12.5t-40 19.5z" />
    <glyph glyph-name="rcaron" unicode="&#x159;" horiz-adv-x="811" 
d="M235 759q13 24 39 55t62.5 60.5t83.5 54t102 35.5q29 4 71.5 3.5t81.5 -10t66.5 -29.5t27.5 -54q0 -23 -14 -39.5t-33 -23.5q-11 -3 -20 -3t-19.5 1l-25 2.5t-35.5 2.5q-29 2 -59.5 1.5t-61.5 -10.5q-43 -13 -81.5 -39.5t-68.5 -63t-50 -83t-27 -98.5zM116 931
q0 20 11 31t31 11q14 0 27 -5.5t24.5 -19t19.5 -36.5t11 -57l21 -184l13 -25v-572q0 -33 -23.5 -56t-55.5 -23q-35 0 -57 23t-22 56v857zM260 1253q-11 12 -22.5 26t-18 29t-5 30.5t15.5 29.5q23 23 51.5 14.5t56.5 -37.5l108 -108l108 109q28 29 56.5 36.5t50.5 -14.5
q20 -21 15 -47.5t-26 -48.5l-168 -163q-18 -14 -40 -12.5t-40 19.5z" />
    <glyph glyph-name="ncaron" unicode="&#x148;" 
d="M937 482q0 70 -23.5 131.5t-65.5 107.5t-100 72.5t-127 26.5q-68 0 -130.5 -28t-110.5 -75t-77 -109t-29 -129l-43 270q24 39 65 79t94 71.5t115.5 51.5t130.5 20q101 0 185 -38.5t145 -104.5t94.5 -155t33.5 -189v-409q0 -14 -5.5 -28t-15.5 -25.5t-24.5 -19t-32.5 -7.5
q-34 0 -56.5 23t-22.5 57v407zM116 931q0 20 11 31t31 11q14 0 27 -5.5t24.5 -19t19.5 -36.5t11 -57l21 -184l13 -25v-572q0 -33 -23.5 -56t-55.5 -23q-35 0 -57 23t-22 56v857zM443 1260q-11 12 -22.5 26t-18 29t-5 30.5t15.5 29.5q23 23 51.5 14.5t56.5 -37.5l108 -108
l108 109q28 29 56.5 36.5t50.5 -14.5q20 -21 15 -47.5t-26 -48.5l-168 -163q-18 -14 -40 -12.5t-40 19.5z" />
    <glyph glyph-name="Dcaron" unicode="&#x10e;" horiz-adv-x="1220" 
d="M207 -5q-29 0 -50 18t-27 45q-1 4 -1.5 7.5t-0.5 8.5v1113q0 12 -3.5 25t-3.5 25q0 14 12 23t49 9h339q87 0 168.5 -23t152.5 -64.5t129.5 -100t100 -129.5t64.5 -152.5t23 -168.5q0 -88 -23 -169t-64.5 -152t-100 -129t-129.5 -99.5t-152.5 -64t-168.5 -22.5h-314z
M1001 631q0 102 -38 190.5t-103.5 154t-153 103.5t-185.5 39h-235v-967h235q98 1 185.5 38.5t153 102t103.5 151.5t38 188zM259 1536q-11 12 -22.5 26t-18 29t-5 30.5t15.5 29.5q23 23 51.5 14.5t56.5 -37.5l108 -108l108 109q28 29 56.5 36.5t50.5 -14.5q20 -21 15 -47.5
t-26 -48.5l-168 -163q-18 -14 -40 -12.5t-40 19.5z" />
    <glyph glyph-name="cacute" unicode="&#x107;" horiz-adv-x="977" 
d="M888 845q25 -26 25 -57q0 -19 -8.5 -34.5t-22.5 -25.5t-32 -12.5t-36 5.5q-51 37 -111.5 62.5t-128.5 30.5q-70 4 -134 -19t-112.5 -67t-77.5 -107t-29 -139q0 -72 27.5 -134.5t75 -107.5t112 -69.5t138.5 -20.5q61 2 119 25.5t103 65.5q14 9 32.5 12t35.5 -3
q22 -5 37 -24.5t15 -45.5q0 -31 -31 -64t-82.5 -60.5t-117.5 -45t-136 -17.5q-101 0 -190 38.5t-155.5 105t-105 155.5t-38.5 190t38.5 190t105 155.5t155.5 105t190 38.5q46 0 93.5 -7.5t92.5 -23t84.5 -39.5t68.5 -56zM642 1323q36 0 56 -23.5t15 -57.5q-2 -15 -23 -37.5
t-47.5 -43.5t-51.5 -36t-35 -16q-18 -5 -36 3q-14 4 -22.5 14.5t-10.5 25.5q-3 13 2 28q1 8 18 31.5t40.5 48t49 44t45.5 19.5z" />
    <glyph glyph-name="Ecaron" unicode="&#x11a;" horiz-adv-x="1063" 
d="M1028 74q0 -38 -27.5 -58.5t-63.5 -20.5h-704q-53 0 -78 28t-25 79v1074q-1 14 -5 29.5t-4 29.5q0 15 10 24.5t40 9.5h770q42 0 63 -24t21 -52.5t-20.5 -52.5t-61.5 -24h-656v-409h527q18 0 34 -7t27.5 -19t16 -29t-0.5 -37q-5 -26 -25.5 -41.5t-49.5 -15.5h-529v-405
h647q19 0 36 -4.5t30 -14.5t20.5 -24.5t7.5 -35.5zM383 1537q-11 12 -22.5 26t-18 29t-5 30.5t15.5 29.5q23 23 51.5 14.5t56.5 -37.5l108 -108l108 109q28 29 56.5 36.5t50.5 -14.5q20 -21 15 -47.5t-26 -48.5l-168 -163q-18 -14 -40 -12.5t-40 19.5z" />
    <glyph glyph-name="sacute" unicode="&#x15b;" horiz-adv-x="982" 
d="M614 1313q36 0 56 -23.5t15 -57.5q-2 -15 -23 -37.5t-47.5 -43.5t-51.5 -36t-35 -16q-18 -5 -36 3q-14 4 -22.5 14.5t-10.5 25.5q-3 13 2 28q1 8 18 31.5t40.5 48t49 44t45.5 19.5zM488 -5q-68 0 -138 16.5t-130 49t-102.5 79.5t-55.5 109q-3 19 3.5 35.5t18.5 26
t28.5 11t33.5 -9.5q16 -8 41 -36t64.5 -58.5t95 -56t132.5 -29.5q57 -1 108 5.5t90 24t62 46.5t23 72q0 33 -28 57.5t-74 44.5t-104.5 38l-119 37.5t-117.5 43.5t-101 56t-69 74.5t-21 99.5q3 45 25 90t66.5 80t113.5 57t166 22q59 0 116 -10.5t106.5 -32t89.5 -55.5t64 -80
q8 -21 2 -39.5t-20.5 -29.5t-34 -13.5t-37.5 6.5q-20 12 -43.5 30t-53.5 35.5t-69.5 31t-92.5 16.5q-112 5 -177.5 -27t-65.5 -101q0 -40 59 -77.5t193 -76.5l138 -42t124.5 -54t90 -78t34.5 -115q0 -75 -37.5 -127t-98.5 -84.5t-139 -47t-159 -14.5z" />
    <glyph glyph-name="A" unicode="A" horiz-adv-x="1110" 
d="M548 1269q21 0 36.5 -10.5t27.5 -27t21 -37l17 -39.5l416 -1052q2 -8 4 -17t3 -18q0 -21 -12 -38t-34 -25q-15 -9 -32 -10.5t-32.5 5t-29 19.5t-20.5 33l-94 243h-534l-98 -244q-16 -38 -39.5 -50.5t-50.5 -7.5q-15 1 -28.5 8.5t-22.5 20.5t-12 31t3 40q11 32 23 63
l24 63l385 972q2 10 2 19t2 17q2 17 16.5 29.5t58.5 12.5zM327 429h451l-226 576z" />
    <glyph glyph-name="Sacute" unicode="&#x15a;" horiz-adv-x="979" 
d="M808 967q-22 -2 -37.5 6t-36.5 28q-29 31 -56.5 54t-57.5 38.5t-63 23t-72 7.5q-40 0 -81 -12.5t-74.5 -35.5t-55 -56.5t-21.5 -75.5q0 -45 28.5 -79.5t75.5 -62.5t107 -53l123 -51.5t123 -57.5t107 -71.5t75.5 -93t28.5 -122.5q0 -81 -37.5 -147t-99.5 -113.5t-143 -73
t-169 -25.5q-87 0 -156.5 21t-120.5 55.5t-84.5 77t-48.5 86.5q-4 16 -3 33.5t8 32t21 23.5t36 9q19 0 35.5 -10t32.5 -27q14 -28 40.5 -55.5t63 -49t81.5 -34.5t95 -13q49 0 99.5 13.5t91.5 39t67 63.5t26 86t-28 84t-74.5 65.5t-105.5 54.5l-120.5 51t-120 56t-105 69.5
t-74.5 91t-28 120.5q0 73 31.5 133.5t85.5 104t125.5 67.5t151.5 24q72 0 141 -22.5t124 -57t88.5 -74.5t33.5 -75q0 -21 -6.5 -34.5t-17 -21.5t-23.5 -11t-26 -3zM572 1601q36 0 56 -23.5t15 -57.5q-2 -15 -23 -37.5t-47.5 -43.5t-51.5 -36t-35 -16q-18 -5 -36 3
q-14 4 -22.5 14.5t-10.5 25.5q-3 13 2 28q1 8 18 31.5t40.5 48t49 44t45.5 19.5z" />
    <glyph glyph-name="guillemotleft" unicode="&#xab;" horiz-adv-x="1111" 
d="M545 2q-13 -9 -28.5 -6t-30.5 11.5t-28.5 20.5l-23.5 21l-342 339q-23 21 -42.5 45.5t-19.5 47.5q0 14 6 27t15 25t20 23l21 22l330 330q14 13 36 27.5t46 21t47 2.5t39 -27q12 -15 10.5 -33.5t-10.5 -36.5t-23 -34.5t-28 -29.5l-344 -314l355 -329q19 -17 30.5 -39.5
t12 -45t-11 -41t-36.5 -27.5zM969 2q-14 -9 -29.5 -6t-30.5 11.5t-28.5 20.5t-22.5 21l-342 339q-23 21 -42.5 45.5t-19.5 47.5q0 28 20.5 52t41.5 45l330 330q13 13 35 27.5t46 21t47 2.5t39 -27q12 -15 10.5 -33.5t-10.5 -36.5t-23 -34.5t-28 -29.5l-344 -314l356 -329
q19 -17 30 -39.5t11.5 -45t-10.5 -41t-36 -27.5z" />
    <glyph glyph-name="multiply" unicode="&#xd7;" horiz-adv-x="882" 
d="M297 274q-17 -17 -42 -16t-42 19q-17 17 -18.5 42t15.5 43l397 397q17 17 42 15.5t42 -18.5q18 -18 19.5 -43t-15.5 -42zM699 368q17 -17 16 -42t-18 -43q-17 -17 -42.5 -18.5t-42.5 15.5l-398 398q-17 17 -15.5 42t18.5 42q18 18 43 19t42 -16z" />
    <glyph glyph-name="Cacute" unicode="&#x106;" horiz-adv-x="1257" 
d="M1043 958q-74 78 -163 114.5t-183 36.5q-99 0 -186.5 -38t-152.5 -103t-102.5 -152.5t-37.5 -186.5t37.5 -186.5t103 -152.5t152.5 -103t186 -38q58 0 110 13t97.5 36t86.5 55t78 71q17 13 40 16.5t43 -8.5q19 -8 31.5 -25t12.5 -38q0 -34 -26 -60q-51 -56 -101.5 -96.5
t-106.5 -67t-121 -39.5t-144 -13q-132 0 -248 50t-202.5 136.5t-136.5 202.5t-50 248q0 87 22.5 168t64 152t100 129t129 99.5t152 64.5t169.5 23q66 0 126.5 -10t116.5 -33.5t109 -61t105 -92.5q11 -12 17 -27.5t6 -31.5q1 -17 -6.5 -32t-21.5 -26q-20 -17 -49 -18.5
t-57 24.5zM786 1597q36 0 56 -23.5t15 -57.5q-2 -15 -23 -37.5t-47.5 -43.5t-51.5 -36t-35 -16q-18 -5 -36 3q-14 4 -22.5 14.5t-10.5 25.5q-3 13 2 28q1 8 18 31.5t40.5 48t49 44t45.5 19.5z" />
    <glyph glyph-name="scaron" unicode="&#x161;" horiz-adv-x="982" 
d="M328 1251q-11 12 -22.5 26t-18 29t-5 30.5t15.5 29.5q23 23 51.5 14.5t56.5 -37.5l108 -108l108 109q28 29 56.5 36.5t50.5 -14.5q20 -21 15 -47.5t-26 -48.5l-168 -163q-18 -14 -40 -12.5t-40 19.5zM488 -5q-68 0 -138 16.5t-130 49t-102.5 79.5t-55.5 109
q-3 19 3.5 35.5t18.5 26t28.5 11t33.5 -9.5q16 -8 41 -36t64.5 -58.5t95 -56t132.5 -29.5q57 -1 108 5.5t90 24t62 46.5t23 72q0 33 -28 57.5t-74 44.5t-104.5 38l-119 37.5t-117.5 43.5t-101 56t-69 74.5t-21 99.5q3 45 25 90t66.5 80t113.5 57t166 22q59 0 116 -10.5
t106.5 -32t89.5 -55.5t64 -80q8 -21 2 -39.5t-20.5 -29.5t-34 -13.5t-37.5 6.5q-20 12 -43.5 30t-53.5 35.5t-69.5 31t-92.5 16.5q-112 5 -177.5 -27t-65.5 -101q0 -40 59 -77.5t193 -76.5l138 -42t124.5 -54t90 -78t34.5 -115q0 -75 -37.5 -127t-98.5 -84.5t-139 -47
t-159 -14.5z" />
    <glyph glyph-name="zacute" unicode="&#x17a;" horiz-adv-x="1062" 
d="M946 874q0 -13 -3 -25.5t-13 -28t-29 -37.5t-51 -55l-563 -572h617q37 0 60.5 -17.5t23.5 -52.5q0 -36 -25.5 -56t-55.5 -20h-761q-29 0 -53 11.5t-31 43.5q-8 32 3 63.5t47 65.5l625 615l-535 -2q-39 0 -65.5 17.5t-26.5 52.5q0 31 23 53.5t68 22.5h659q21 0 37 -7
t27 -18t16.5 -25t5.5 -29zM644 1324q36 0 56 -23.5t15 -57.5q-2 -15 -23 -37.5t-47.5 -43.5t-51.5 -36t-35 -16q-18 -5 -36 3q-14 4 -22.5 14.5t-10.5 25.5q-3 13 2 28q1 8 18 31.5t40.5 48t49 44t45.5 19.5z" />
    <glyph glyph-name="asciitilde" unicode="~" horiz-adv-x="1275" 
d="M68 462q0 70 26 133t71 110t106 74.5t132 27.5q73 0 124.5 -23t90.5 -59t70 -79t64 -82q23 -24 54.5 -38.5t79.5 -14.5q63 0 104.5 38t58.5 96q6 23 11.5 49t15 48.5t24.5 37.5t40 15q26 0 43.5 -15t22.5 -38q2 -22 2 -44t-5 -44q-9 -60 -37.5 -111t-71 -88.5t-96.5 -59
t-114 -21.5q-73 0 -125.5 22.5t-94 58t-74.5 77.5t-67 81q-23 24 -53 39t-72 15q-62 0 -105 -38t-62 -95q-7 -23 -13 -49t-15.5 -48t-24.5 -36t-40 -14q-32 0 -51 21.5t-19 53.5z" />
    <glyph glyph-name="circumflex" unicode="&#x2c6;" horiz-adv-x="630" 
d="M250 1581q17 18 39.5 19.5t40.5 -12.5l167 -163q22 -22 27 -48.5t-15 -47.5q-22 -22 -50.5 -14.5t-56.5 36.5l-109 109l-107 -108q-29 -29 -57 -37.5t-51 14.5q-14 14 -15.5 29.5t4.5 30.5t17.5 29t23.5 26z" />
    <glyph glyph-name="Scaron" unicode="&#x160;" horiz-adv-x="979" 
d="M808 967q-22 -2 -37.5 6t-36.5 28q-29 31 -56.5 54t-57.5 38.5t-63 23t-72 7.5q-40 0 -81 -12.5t-74.5 -35.5t-55 -56.5t-21.5 -75.5q0 -45 28.5 -79.5t75.5 -62.5t107 -53l123 -51.5t123 -57.5t107 -71.5t75.5 -93t28.5 -122.5q0 -81 -37.5 -147t-99.5 -113.5t-143 -73
t-169 -25.5q-87 0 -156.5 21t-120.5 55.5t-84.5 77t-48.5 86.5q-4 16 -3 33.5t8 32t21 23.5t36 9q19 0 35.5 -10t32.5 -27q14 -28 40.5 -55.5t63 -49t81.5 -34.5t95 -13q49 0 99.5 13.5t91.5 39t67 63.5t26 86t-28 84t-74.5 65.5t-105.5 54.5l-120.5 51t-120 56t-105 69.5
t-74.5 91t-28 120.5q0 73 31.5 133.5t85.5 104t125.5 67.5t151.5 24q72 0 141 -22.5t124 -57t88.5 -74.5t33.5 -75q0 -21 -6.5 -34.5t-17 -21.5t-23.5 -11t-26 -3zM301 1545q-11 12 -22.5 26t-18 29t-5 30.5t15.5 29.5q23 23 51.5 14.5t56.5 -37.5l108 -108l108 109
q28 29 56.5 36.5t50.5 -14.5q20 -21 15 -47.5t-26 -48.5l-168 -163q-18 -14 -40 -12.5t-40 19.5z" />
    <glyph glyph-name="Ecircumflex" unicode="&#xca;" horiz-adv-x="1063" 
d="M1028 74q0 -38 -27.5 -58.5t-63.5 -20.5h-704q-53 0 -78 28t-25 79v1074q-1 14 -5 29.5t-4 29.5q0 15 10 24.5t40 9.5h770q42 0 63 -24t21 -52.5t-20.5 -52.5t-61.5 -24h-656v-409h527q18 0 34 -7t27.5 -19t16 -29t-0.5 -37q-5 -26 -25.5 -41.5t-49.5 -15.5h-529v-405
h647q19 0 36 -4.5t30 -14.5t20.5 -24.5t7.5 -35.5zM504 1656q17 18 39.5 19.5t40.5 -12.5l167 -163q22 -22 27 -48.5t-15 -47.5q-22 -22 -50.5 -14.5t-56.5 36.5l-109 109l-107 -108q-29 -29 -57 -37.5t-51 14.5q-14 14 -15.5 29.5t4.5 30.5t17.5 29t23.5 26z" />
    <glyph glyph-name="acircumflex" unicode="&#xe2;" horiz-adv-x="1162" 
d="M525 1352q17 18 39.5 19.5t40.5 -12.5l167 -163q22 -22 27 -48.5t-15 -47.5q-22 -22 -50.5 -14.5t-56.5 36.5l-109 109l-107 -108q-29 -29 -57 -37.5t-51 14.5q-14 14 -15.5 29.5t4.5 30.5t17.5 29t23.5 26zM1041 54q0 -29 -15 -45t-40 -16q-28 0 -45.5 16.5t-23.5 45.5
l-21 165l-13 25v234q0 33 23.5 56t55.5 23q35 0 57 -23t22 -56v-425zM1001 482q0 -101 -32.5 -190t-91.5 -155.5t-141.5 -105t-183.5 -38.5t-189.5 38.5t-155.5 105t-105.5 155.5t-38.5 190t38.5 190t105.5 155.5t155.5 105t189.5 38.5t183.5 -38.5t141.5 -105t91.5 -155.5
t32.5 -190zM880 482q0 70 -25.5 131.5t-69.5 107.5t-104 72.5t-129 26.5t-129 -26.5t-104 -72.5t-69.5 -107.5t-25.5 -131.5q0 -69 25.5 -130.5t69.5 -107.5t104 -73t129 -27t129 27t104 73t69.5 107.5t25.5 130.5zM1041 435q0 -33 -22 -56t-57 -23q-32 0 -55.5 23t-23.5 56
v284l13 25l21 108q6 67 30 92.5t52 25.5q42 0 42 -42v-493z" />
    <glyph glyph-name="ecircumflex" unicode="&#xea;" horiz-adv-x="1100" 
d="M549 -5q-101 0 -189.5 38.5t-155.5 104.5t-105.5 154.5t-38.5 189.5q0 110 40.5 200.5t109 155t159.5 100t192 35.5t188.5 -37t152 -101.5t101.5 -152.5t37 -190q0 -18 -3 -30t-12 -19t-26.5 -10t-46.5 -3h-729q5 -62 32.5 -116.5t71.5 -95.5t101 -65t122 -24
q61 0 119 21.5t103 63.5q15 10 36 12t39.5 -5.5t32 -23.5t13.5 -41q0 -30 -31.5 -59t-81.5 -51.5t-111 -36.5t-120 -14zM561 840q-65 0 -123 -23t-103.5 -63.5t-75 -94.5t-36.5 -117h657q-5 63 -31.5 117t-69 94.5t-98.5 63.5t-120 23zM514 1324q17 18 39.5 19.5t40.5 -12.5
l167 -163q22 -22 27 -48.5t-15 -47.5q-22 -22 -50.5 -14.5t-56.5 36.5l-109 109l-107 -108q-29 -29 -57 -37.5t-51 14.5q-14 14 -15.5 29.5t4.5 30.5t17.5 29t23.5 26z" />
    <glyph glyph-name="Ucircumflex" unicode="&#xdb;" horiz-adv-x="1273" 
d="M104 1185q-1 13 -4.5 25.5t-3.5 24.5q0 15 12 24t49 9q22 0 40.5 -5t32.5 -17t22 -32.5t9 -51.5v-670q0 -73 26 -136.5t74.5 -110.5t118.5 -74t159 -27q84 0 153.5 27t120 74.5t78.5 111t28 135.5l-1 693q0 13 -3.5 25.5t-3.5 24.5q0 15 12 24t49 9q23 0 42 -5t33 -17
t21.5 -33t7.5 -53l1 -666q-1 -105 -40 -197.5t-109.5 -161t-169.5 -108.5t-219 -40q-122 0 -221 39.5t-169 108t-107.5 161t-37.5 198.5v691zM588 1639q17 18 39.5 19.5t40.5 -12.5l167 -163q22 -22 27 -48.5t-15 -47.5q-22 -22 -50.5 -14.5t-56.5 36.5l-109 109l-107 -108
q-29 -29 -57 -37.5t-51 14.5q-14 14 -15.5 29.5t4.5 30.5t17.5 29t23.5 26z" />
    <glyph glyph-name="Ocircumflex" unicode="&#xd4;" horiz-adv-x="1394" 
d="M60 631q0 131 50 247t136.5 202.5t202.5 137t248 50.5q131 0 246.5 -50.5t202 -137t137 -202.5t50.5 -247q0 -132 -50.5 -247.5t-137 -202t-202 -136.5t-246.5 -50q-132 0 -248 50t-202.5 136.5t-136.5 202t-50 247.5zM218 630q0 -99 37.5 -186t102.5 -152.5
t152.5 -103.5t186.5 -38t186 38t152 103.5t102.5 153t37.5 186.5t-37.5 186.5t-102.5 152.5t-152 103t-186 38t-186.5 -38t-152.5 -103t-102.5 -153t-37.5 -187zM642 1634q17 18 39.5 19.5t40.5 -12.5l167 -163q22 -22 27 -48.5t-15 -47.5q-22 -22 -50.5 -14.5t-56.5 36.5
l-109 109l-107 -108q-29 -29 -57 -37.5t-51 14.5q-14 14 -15.5 29.5t4.5 30.5t17.5 29t23.5 26z" />
    <glyph glyph-name="Icircumflex" unicode="&#xce;" horiz-adv-x="407" 
d="M286 80q0 -15 -5 -30.5t-15 -27.5t-25 -19.5t-34 -7.5q-20 0 -35 8.5t-25 21t-14.5 27.5t-4.5 28v1105q0 13 -3.5 25.5t-3.5 24.5q0 15 12 24t49 9q45 0 73.5 -18t30.5 -62v-1108zM152 1653q17 18 39.5 19.5t40.5 -12.5l167 -163q22 -22 27 -48.5t-15 -47.5
q-22 -22 -50.5 -14.5t-56.5 36.5l-109 109l-107 -108q-29 -29 -57 -37.5t-51 14.5q-14 14 -15.5 29.5t4.5 30.5t17.5 29t23.5 26z" />
    <glyph glyph-name="ocircumflex" unicode="&#xf4;" horiz-adv-x="1099" 
d="M60 484q0 100 38.5 189t105.5 156t155.5 105.5t189.5 38.5t190 -38.5t155.5 -105.5t105 -156t38.5 -189q0 -101 -38.5 -190t-105 -155.5t-155.5 -105t-190 -38.5t-189.5 38.5t-155.5 105t-105.5 155.5t-38.5 190zM221 484q0 -70 25.5 -131.5t69.5 -107.5t104 -72.5
t129 -26.5t129 26.5t104 72.5t69.5 107.5t25.5 131.5q0 69 -25.5 130.5t-69.5 107.5t-104 72.5t-129 26.5t-129 -26.5t-104 -72.5t-69.5 -107.5t-25.5 -130.5zM505 1325q17 18 39.5 19.5t40.5 -12.5l167 -163q22 -22 27 -48.5t-15 -47.5q-22 -22 -50.5 -14.5t-56.5 36.5
l-109 109l-107 -108q-29 -29 -57 -37.5t-51 14.5q-14 14 -15.5 29.5t4.5 30.5t17.5 29t23.5 26z" />
    <glyph glyph-name="ucircumflex" unicode="&#xfb;" 
d="M274 485q0 -69 23.5 -130.5t65.5 -107.5t100 -73t126 -27t131 28t111 75.5t77 109t29 128.5l42 -270q-24 -39 -65 -79t-94 -71.5t-116 -51.5t-130 -20q-101 0 -185 38.5t-144.5 104.5t-94.5 155t-34 190v409q0 14 5.5 28t15.5 25.5t24.5 19t32.5 7.5q34 0 57 -23.5
t23 -56.5v-408zM1094 37q0 -42 -42 -42q-14 0 -27 5.5t-24.5 19t-19.5 36t-11 57.5l-21 183l-12 25v573q0 33 23 56t55 23q35 0 57 -23t22 -56v-857zM554 1359q17 18 39.5 19.5t40.5 -12.5l167 -163q22 -22 27 -48.5t-15 -47.5q-22 -22 -50.5 -14.5t-56.5 36.5l-109 109
l-107 -108q-29 -29 -57 -37.5t-51 14.5q-14 14 -15.5 29.5t4.5 30.5t17.5 29t23.5 26z" />
    <glyph glyph-name="Zcaron" unicode="&#x17d;" horiz-adv-x="1138" 
d="M1071 1190q0 -13 -9.5 -31.5t-22.5 -38t-28 -39l-27 -34.5l-697 -898h728q37 0 59 -20.5t22 -54.5q0 -18 -7 -32.5t-18.5 -25t-25.5 -16t-29 -5.5h-867q-29 0 -53 11.5t-31 43.5q-8 28 3.5 56t34.5 59l180 232.5l189 242.5l189.5 242.5l182.5 232.5l-670 -2
q-36 0 -58.5 23t-22.5 54q0 14 5 28t15.5 25.5t26 18.5t35.5 7h811q21 0 36.5 -7t26.5 -18t16.5 -25t5.5 -29zM388 1544q-11 12 -22.5 26t-18 29t-5 30.5t15.5 29.5q23 23 51.5 14.5t56.5 -37.5l108 -108l108 109q28 29 56.5 36.5t50.5 -14.5q20 -21 15 -47.5t-26 -48.5
l-168 -163q-18 -14 -40 -12.5t-40 19.5z" />
    <glyph glyph-name="cent" unicode="&#xa2;" horiz-adv-x="977" 
d="M440 919v186q0 17 3.5 34t11.5 30.5t22.5 22t35.5 8.5q26 0 46.5 -17t23.5 -42q2 -14 3 -28.5t1 -29.5v-187zM587 52v-228q0 -29 -22.5 -49.5t-51.5 -20.5q-30 0 -51.5 20.5t-21.5 49.5v228h147zM848 845q25 -26 25 -57q0 -19 -8.5 -34.5t-22.5 -25.5t-32 -12.5t-36 5.5
q-51 37 -111.5 62.5t-128.5 30.5q-70 4 -134 -19t-112.5 -67t-77.5 -107t-29 -139q0 -72 27.5 -134.5t75 -107.5t112 -69.5t138.5 -20.5q61 2 119 25.5t103 65.5q14 9 32.5 12t35.5 -3q22 -5 37 -24.5t15 -45.5q0 -31 -31 -64t-82.5 -60.5t-117.5 -45t-136 -17.5
q-101 0 -190 38.5t-155.5 105t-105 155.5t-38.5 190t38.5 190t105 155.5t155.5 105t190 38.5q46 0 93.5 -7.5t92.5 -23t84.5 -39.5t68.5 -56z" />
    <glyph glyph-name="atilde" unicode="&#xe3;" horiz-adv-x="1162" 
d="M762 1269q10 10 27 10t29.5 -10t17 -28t-8.5 -43q-25 -49 -65 -76.5t-96 -27.5q-29 0 -49 8.5t-35.5 21t-27.5 27.5t-25 27.5t-28 21t-36 8.5q-26 0 -41 -10.5t-25.5 -24t-20.5 -25t-25 -12.5q-9 -2 -19 2q-16 4 -22.5 15t-7.5 24t3.5 27t10.5 25q26 46 64 69
q10 7 19.5 11t20.5 7q19 6 42 6q33 0 55.5 -8.5t38.5 -21t28 -27.5t24 -27.5t26.5 -21t35.5 -8.5q12 0 21.5 5t19 13t21 19.5t28.5 23.5zM1041 54q0 -29 -15 -45t-40 -16q-28 0 -45.5 16.5t-23.5 45.5l-21 165l-13 25v234q0 33 23.5 56t55.5 23q35 0 57 -23t22 -56v-425z
M1001 482q0 -101 -32.5 -190t-91.5 -155.5t-141.5 -105t-183.5 -38.5t-189.5 38.5t-155.5 105t-105.5 155.5t-38.5 190t38.5 190t105.5 155.5t155.5 105t189.5 38.5t183.5 -38.5t141.5 -105t91.5 -155.5t32.5 -190zM880 482q0 70 -25.5 131.5t-69.5 107.5t-104 72.5
t-129 26.5t-129 -26.5t-104 -72.5t-69.5 -107.5t-25.5 -131.5q0 -69 25.5 -130.5t69.5 -107.5t104 -73t129 -27t129 27t104 73t69.5 107.5t25.5 130.5zM1041 435q0 -33 -22 -56t-57 -23q-32 0 -55.5 23t-23.5 56v284l13 25l21 108q6 67 30 92.5t52 25.5q42 0 42 -42v-493z
" />
    <glyph glyph-name="Oslash" unicode="&#xd8;" horiz-adv-x="1394" 
d="M507 93l-102 -177q-14 -25 -32.5 -42t-46.5 -16q-33 0 -57.5 22t-24.5 52q0 7 1.5 15.5t8.5 22.5l112 195zM911 1170l99 171q13 23 31.5 37t45.5 14q16 0 31.5 -6.5t26 -17t15.5 -25.5t2 -31q-1 -6 -13.5 -30.5l-27.5 -53l-28 -52t-14 -27.5l-29 -53zM60 630
q0 87 22.5 168t64 152t100 129t129 99.5t152 64.5t169.5 23q131 0 246.5 -50.5t202 -137t137 -202t50.5 -246.5q0 -88 -23 -169.5t-64.5 -152t-99.5 -129t-129 -100t-152 -64t-168 -22.5q-132 0 -248 50t-202.5 136.5t-136.5 202.5t-50 248zM218 629q0 -99 37.5 -186.5
t102.5 -152.5t152.5 -103t186.5 -38t186 38t152 103t102.5 153t37.5 187t-37.5 186t-102.5 152.5t-152 103t-186 37.5t-186.5 -38t-152.5 -103t-102.5 -152.5t-37.5 -186.5z" />
    <glyph glyph-name="e" unicode="e" horiz-adv-x="1100" 
d="M549 -5q-101 0 -189.5 38.5t-155.5 104.5t-105.5 154.5t-38.5 189.5q0 110 40.5 200.5t109 155t159.5 100t192 35.5t188.5 -37t152 -101.5t101.5 -152.5t37 -190q0 -18 -3 -30t-12 -19t-26.5 -10t-46.5 -3h-729q5 -62 32.5 -116.5t71.5 -95.5t101 -65t122 -24
q61 0 119 21.5t103 63.5q15 10 36 12t39.5 -5.5t32 -23.5t13.5 -41q0 -30 -31.5 -59t-81.5 -51.5t-111 -36.5t-120 -14zM561 840q-65 0 -123 -23t-103.5 -63.5t-75 -94.5t-36.5 -117h657q-5 63 -31.5 117t-69 94.5t-98.5 63.5t-120 23z" />
    <glyph glyph-name="germandbls" unicode="&#xdf;" horiz-adv-x="1011" 
d="M467 687q0 23 13 41t33 23q43 3 84.5 14t73.5 33t51.5 56.5t19.5 83.5q0 38 -21.5 72.5t-54.5 60.5t-72.5 41.5t-76.5 15.5q-52 0 -100.5 -14t-85 -44t-58.5 -77.5t-21 -115.5q0 -198 0.5 -396.5t0.5 -396.5q0 -16 -4.5 -32t-14 -28.5t-24 -20.5t-35.5 -8t-35.5 8
t-24.5 20.5t-14.5 28.5t-4.5 32v803q0 35 6 77.5t22.5 86t45 84t73 72.5t106 51t144.5 19q69 0 137 -23.5t123 -65.5t90 -99.5t40 -125.5q2 -42 -6 -78q-11 -58 -43 -108.5t-77 -79.5q43 -20 79.5 -53t62.5 -75t41 -91.5t15 -100.5q0 -81 -28.5 -150.5t-79 -121t-120 -81
t-151.5 -29.5q-48 0 -78.5 16t-30.5 61q0 18 6.5 28.5t17 16.5t24 9.5t27.5 6.5q51 6 99.5 26.5t86 52.5t60 75.5t22.5 95.5q0 51 -20 94.5t-54 75t-78.5 49.5t-92.5 18t-73 14t-25 53z" />
    <glyph glyph-name="Euro" unicode="&#x20ac;" horiz-adv-x="1466" 
d="M1197 961q-36 41 -73.5 71t-79.5 49.5t-90 28.5t-106 9q-101 0 -189.5 -38.5t-154.5 -105t-104.5 -155.5t-38.5 -190t38.5 -190t104.5 -156t154.5 -105.5t189.5 -38.5q60 0 113.5 15.5t100.5 41.5t88.5 60.5t78.5 73.5q17 13 40 16.5t43 -8.5q19 -8 31.5 -25t12.5 -38
q0 -34 -26 -59q-51 -56 -102.5 -98t-109.5 -70t-124 -42t-145 -14q-88 0 -169.5 23t-152 64.5t-128.5 100t-99.5 129t-64 152t-22.5 169.5q0 131 50 246.5t136 202t202 136.5t248 50q79 0 143 -12.5t119 -38t105 -65t101 -94.5q6 -6 12.5 -18t9.5 -27t-0.5 -31t-18.5 -31
q-9 -9 -22.5 -17t-29.5 -9t-34.5 7t-36.5 31zM788 584q24 0 41 -16t17 -40q0 -23 -17 -42t-41 -19h-676q-23 0 -40 19t-17 42q0 24 17 40t40 16h676zM788 804q24 0 41 -16.5t17 -41.5q0 -23 -17 -41t-41 -18h-676q-23 0 -40 18t-17 41q0 25 17 41.5t40 16.5h676z" />
    <glyph glyph-name="perthousand" unicode="&#x2030;" horiz-adv-x="1891" 
d="M43 1001q0 58 21.5 108.5t58.5 88t87 59t107 21.5q58 0 108.5 -21.5t88 -59t59 -88t21.5 -108.5q0 -57 -21.5 -107t-59 -87t-88 -58.5t-108.5 -21.5q-57 0 -107 21.5t-87 58.5t-58.5 87t-21.5 107zM162 1001q0 -35 11.5 -63.5t32 -49.5t49 -32.5t62.5 -11.5t63 11.5
t50 32.5t33 49.5t12 63.5q0 34 -12 63.5t-33 50.5t-50 33t-63 12t-62.5 -12t-49 -33t-32 -50.5t-11.5 -63.5zM849 1275q34 -2 52.5 -23.5t21.5 -47.5q0 -8 -3 -19t-8 -23t-9.5 -24t-7.5 -21l-106 -277l-99 -254.5l-98.5 -254l-105.5 -276.5q-8 -26 -25.5 -41.5t-40.5 -17.5
q-39 -3 -62.5 20t-26.5 54q0 8 3 19t7.5 23t9.5 24t8 21l105 277l98.5 253.5l98.5 253.5l106 277q5 17 17 28.5t26 16.5q15 10 39 12zM662 279q0 57 21.5 107.5t58.5 88t87 59.5t107 22q58 0 108.5 -22t88 -59.5t59 -88t21.5 -107.5q0 -58 -21.5 -108t-59 -87t-88 -58.5
t-108.5 -21.5q-57 0 -107 21.5t-87 58.5t-58.5 87t-21.5 108zM781 279q0 -35 11.5 -64t32 -50t49 -32.5t62.5 -11.5t63 11.5t50 32.5t33 50t12 64q0 34 -12 63t-33 50.5t-50 33.5t-63 12t-62.5 -12t-49 -33.5t-32 -50.5t-11.5 -63zM1275 279q0 57 21.5 107.5t58.5 88
t87 59.5t108 22q57 0 107.5 -22t88 -59.5t59.5 -88t22 -107.5q0 -58 -22 -108t-59.5 -87t-88 -58.5t-107.5 -21.5q-58 0 -108 21.5t-87 58.5t-58.5 87t-21.5 108zM1395 279q0 -35 11.5 -64t32 -50t48.5 -32.5t62 -11.5t63 11.5t50 32.5t33 50t12 64q0 34 -12 63t-33 50.5
t-50 33.5t-63 12t-62 -12t-48.5 -33.5t-32 -50.5t-11.5 -63z" />
    <glyph glyph-name="dollar" unicode="$" horiz-adv-x="979" 
d="M395 1169v151q0 16 6.5 29.5t17 24t25 16.5t30.5 6q36 0 58.5 -24.5t22.5 -59.5v-150zM555 54v-141q0 -31 -24 -53t-55 -22q-16 0 -30.5 6t-25 16t-17 24t-6.5 29v147zM784 956q-23 -2 -37.5 7t-34.5 31q-29 31 -55.5 55t-55.5 40.5t-62 25t-75 8.5q-41 0 -82 -12.5
t-74 -36t-53.5 -57.5t-20.5 -76q0 -31 12.5 -56.5t33.5 -47t48.5 -38.5t58.5 -31q54 -26 113 -51.5t116 -53t109 -59t91 -69t62 -84t23 -103.5q0 -81 -37 -147t-98 -113.5t-140 -73t-163 -25.5q-87 0 -157 21t-121.5 55t-85 77t-46.5 87q-10 32 3 58q6 15 23.5 27.5
t40.5 12.5q18 0 34.5 -9t28.5 -28q13 -29 38 -56.5t59.5 -48.5t78 -34t94.5 -13q49 0 99 13.5t91 39.5t67 64t26 86q0 51 -28.5 88t-74.5 65.5t-105 52.5l-121 48.5t-121 53t-105 66.5t-74.5 89t-28.5 120q0 73 31.5 135t84.5 107t124 70t151 25q63 0 118.5 -14.5t103 -40
t86 -60t68.5 -75.5q5 -8 8.5 -16.5t3.5 -17.5q1 -22 -5 -37t-17 -24.5t-24.5 -14t-26.5 -5.5z" />
    <glyph glyph-name="yen" unicode="&#xa5;" horiz-adv-x="1188" 
d="M931 724q24 0 41 -18t17 -43q0 -24 -17 -43t-41 -19h-639q-24 0 -41 19t-17 43q0 25 17 43t41 18h639zM933 467q24 0 41 -18t17 -44q0 -24 -17 -42.5t-41 -18.5h-641q-24 0 -41 18.5t-17 42.5q0 26 17 44t41 18h641zM536 698q0 33 22 56t57 23q33 0 56 -23t23 -56v-629
q0 -33 -23 -56t-56 -23q-35 0 -57 23t-22 56v629zM1042 1240q22 23 54.5 24t56.5 -22q23 -23 23.5 -56t-22.5 -56l-495 -517q-12 -12 -17.5 -8.5t-9.5 14.5l-9 26t-16 26q-24 25 -25 57t23 55zM622 783q24 -23 23.5 -55t-24.5 -57q-12 -11 -18.5 -25.5t-11.5 -24.5
t-11 -12.5t-18 9.5l-489 512q-11 11 -16.5 25.5t-5.5 30t6 30t18 26.5q24 23 56 22t55 -24z" />
    <glyph glyph-name="Ntilde" unicode="&#xd1;" horiz-adv-x="1363" 
d="M1241 79q0 -34 -21 -59t-57 -25q-25 0 -47 17.5t-37 34.5l-794 925v-898q0 -34 -22.5 -56.5t-55.5 -22.5q-35 0 -57 23t-22 54v1113q0 14 -3.5 24.5t-3.5 27.5q0 14 12 22.5t49 8.5t58.5 -11.5t43.5 -34.5l800 -938v899q0 16 -4 27t-4 25q0 8 2 14.5t9.5 10.5t22 6
t39.5 2q48 0 70 -21.5t22 -59.5v-1108zM860 1563q10 10 27 10t29.5 -10t17 -28t-8.5 -43q-25 -49 -65 -76.5t-96 -27.5q-29 0 -49 8.5t-35.5 21t-27.5 27.5t-25 27.5t-28 21t-36 8.5q-26 0 -41 -10.5t-25.5 -24t-20.5 -25t-25 -12.5q-9 -2 -19 2q-16 4 -22.5 15t-7.5 24
t3.5 27t10.5 25q26 46 64 69q10 7 19.5 11t20.5 7q19 6 42 6q33 0 55.5 -8.5t38.5 -21t28 -27.5t24 -27.5t26.5 -21t35.5 -8.5q12 0 21.5 5t19 13t21 19.5t28.5 23.5z" />
    <glyph glyph-name="AE" unicode="&#xc6;" horiz-adv-x="1632" 
d="M1343 0h-351q-28 0 -46 9t-31 29.5t-23.5 54t-22.5 82.5q-1 2 -5.5 21.5l-9.5 42.5q-6 27 -15 61h-538l-69 -123.5l-44 -76l-26 -43l-15 -23.5q-9 -14 -21.5 -23.5t-27.5 -13.5t-30.5 -1.5t-29.5 12.5q-6 4 -12.5 11.5t-10 20t-1 29.5t14.5 41l9 16.5l14.5 27l25.5 47.5
l42.5 79l65.5 121.5l94 174.5l128 238l168 313q13 25 23 51t23 47t31.5 35t48.5 14h513l8 -153h-419q2 -8 3.5 -15t3.5 -15l91 -376h339l5 -149h-306l99 -408h304v-158zM364 434h447l-139 570zM1231 715h108q18 0 34.5 -7t27.5 -19t16 -29t0 -37q-6 -27 -26.5 -42t-49.5 -15
h-111zM1215 1274h74q24 0 45 -4t39 -10q28 -10 39.5 -33t7 -46.5t-24.5 -41.5t-55 -18h-117zM1343 158h155q36 0 64.5 -18.5t28.5 -60.5t-29.5 -60.5t-68.5 -18.5h-150v158z" />
    <glyph glyph-name="Otilde" unicode="&#xd5;" horiz-adv-x="1394" 
d="M60 631q0 131 50 247t136.5 202.5t202.5 137t248 50.5q131 0 246.5 -50.5t202 -137t137 -202.5t50.5 -247q0 -132 -50.5 -247.5t-137 -202t-202 -136.5t-246.5 -50q-132 0 -248 50t-202.5 136.5t-136.5 202t-50 247.5zM218 630q0 -99 37.5 -186t102.5 -152.5
t152.5 -103.5t186.5 -38t186 38t152 103.5t102.5 153t37.5 186.5t-37.5 186.5t-102.5 152.5t-152 103t-186 38t-186.5 -38t-152.5 -103t-102.5 -153t-37.5 -187zM884 1562q10 10 27 10t29.5 -10t17 -28t-8.5 -43q-25 -49 -65 -76.5t-96 -27.5q-29 0 -49 8.5t-35.5 21
t-27.5 27.5t-25 27.5t-28 21t-36 8.5q-26 0 -41 -10.5t-25.5 -24t-20.5 -25t-25 -12.5q-9 -2 -19 2q-16 4 -22.5 15t-7.5 24t3.5 27t10.5 25q26 46 64 69q10 7 19.5 11t20.5 7q19 6 42 6q33 0 55.5 -8.5t38.5 -21t28 -27.5t24 -27.5t26.5 -21t35.5 -8.5q12 0 21.5 5t19 13
t21 19.5t28.5 23.5z" />
    <glyph glyph-name="thorn" unicode="&#xfe;" horiz-adv-x="1159" 
d="M202 -275q-27 0 -42.5 19t-23.5 47t-10 61t-2 61v1179q0 28 2 61t10 61t23.5 47t42.5 19q26 0 41.5 -17.5t24 -44t11 -57.5t2.5 -57v-340q12 31 44.5 67.5t80 67.5t107 51.5t125.5 20.5q101 0 186 -38.5t147 -105t96.5 -155.5t34.5 -190t-34.5 -190t-96.5 -155.5
t-147 -105t-186 -38.5q-60 0 -116.5 16.5t-103.5 43.5t-83 63t-54 75v-297q0 -26 -2.5 -55.5t-10.5 -55t-23.5 -42t-42.5 -16.5zM939 482q0 70 -22.5 131.5t-63.5 107.5t-98 72.5t-127 26.5q-67 0 -129 -27.5t-109.5 -74t-76 -107.5t-28.5 -129q0 -69 27.5 -130.5
t74.5 -107.5t109.5 -73t131.5 -27q70 0 127 27t98 73t63.5 107.5t22.5 130.5z" />
    <glyph glyph-name="sterling" unicode="&#xa3;" horiz-adv-x="1003" 
d="M275 709v-557h564q48 0 77 -18.5t29 -60.5q0 -43 -26.5 -61t-72.5 -18h-624q-47 2 -76 32t-29 77v583zM474 717q30 0 52 -21t22 -53q0 -30 -22 -52t-52 -22h-418q-31 0 -52.5 22t-21.5 52q0 32 21.5 53t52.5 21h418zM117 659v184q0 98 18 182t58 145.5t103 96.5t153 35
q32 0 55.5 -23t23.5 -56q0 -26 -15.5 -45.5t-41.5 -26.5q-86 -8 -139 -66.5t-57 -166.5v-275z" />
    <glyph glyph-name="mu" unicode="&#xb5;" horiz-adv-x="1201" 
d="M1094 780v-290q0 -101 -33.5 -189.5t-94.5 -154.5t-145 -104.5t-185 -38.5q-68 0 -129 21t-109 52t-80.5 67t-44.5 67l1 285q0 -68 29 -129.5t77 -108.5t110.5 -75t130.5 -28q69 0 127 26.5t100 72.5t65.5 107.5t23.5 131.5v270zM116 900q0 33 22 56t57 23q32 0 55.5 -23
t23.5 -56v-1118q0 -33 -23.5 -56t-55.5 -23q-35 0 -57 23t-22 56v1118zM937 731v149q0 18 4.5 36t13.5 32t24 22.5t36 8.5q19 0 34 -8t25 -20.5t15 -29t5 -34.5v-152z" />
    <glyph glyph-name="Eth" unicode="&#xd0;" horiz-adv-x="1220" 
d="M372 -5q-26 0 -46 15.5t-26 38.5q-3 39 -4.5 79.5t-0.5 81.5l3 408l-98 -4q-33 0 -56 22t-23 57q0 34 23 56.5t56 22.5l98 -5l-3 277q-2 48 -5.5 96t-3.5 97q0 14 12 23t49 9h158q93 0 179.5 -20.5t163 -59.5t140 -95t109 -127t70.5 -155.5t25 -180.5q0 -88 -23 -169
t-64.5 -152t-100 -129t-129.5 -99.5t-152.5 -64t-168.5 -22.5h-182zM620 693q0 -34 -23 -56.5t-56 -22.5l-90 4v-467h45t45 1q100 0 189.5 36.5t157 101t107 152t39.5 189.5q0 89 -31.5 169t-86 143t-129 105.5t-159.5 56.5q-45 7 -90.5 6.5t-90.5 0.5v-345l94 5
q33 0 56 -22.5t23 -56.5z" />
    <glyph glyph-name="cedilla" unicode="&#xb8;" horiz-adv-x="456" 
d="M91 27h23.5t33 0.5t33 0.5h23.5v-25.5v-36.5t0.5 -33.5t1.5 -16.5q3 -10 14 -15q20 -9 38.5 -24.5t33 -37t22 -49t6.5 -60.5q-3 -31 -16 -57.5t-34 -46t-49 -31t-60 -12.5q-31 -2 -59 8t-49.5 28t-35.5 41.5t-18 50.5q-3 12 -1.5 25t8 23.5t17.5 17t28 6.5
q23 0 33.5 -13.5t18 -30.5t17.5 -31t33 -14q22 0 39 13.5t16 40.5q0 18 -9 29t-21.5 19.5t-27.5 15.5t-28 16.5t-21.5 23t-8.5 35.5z" />
    <glyph glyph-name="ogonek" unicode="&#x2db;" horiz-adv-x="450" 
d="M240 85q19 17 40.5 14t35.5 -17t15.5 -35t-19.5 -40l-57 -52l-30.5 -26.5t-24 -22.5t-16 -22.5t-5.5 -25.5q0 -19 12 -33.5t35 -14.5q16 0 24.5 7.5t13.5 18t9 23.5t10 23.5t16.5 18t28.5 7.5q21 0 37.5 -14.5t16.5 -37.5q0 -33 -12.5 -62t-34 -50.5t-50.5 -33.5t-62 -12
q-35 0 -64.5 12t-51 33.5t-34 50.5t-12.5 62q0 29 12 54.5t35 52t56 56z" />
    <glyph glyph-name="breve" unicode="&#x2d8;" horiz-adv-x="633" 
d="M296 1353q-40 0 -75 14t-61.5 39t-42 58.5t-15.5 71.5q0 26 17 44.5t43 18.5q20 0 29.5 -9.5t15 -24.5t9.5 -31.5t12 -31.5t23.5 -24.5t44.5 -9.5t45 9.5t24.5 24.5t12.5 31.5t9.5 31.5t15 24.5t29.5 9.5q26 0 43 -18t17 -44q0 -39 -16 -72.5t-43 -58.5t-62.5 -39
t-74.5 -14z" />
    <glyph glyph-name="dotaccent" unicode="&#x2d9;" horiz-adv-x="362" 
d="M88 1361q0 38 26 65t65 27q19 0 36 -7t29.5 -19.5t19.5 -29.5t7 -36q0 -38 -27 -64t-65 -26q-39 0 -65 26t-26 64z" />
    <glyph glyph-name="bullet" unicode="&#x2022;" horiz-adv-x="455" 
d="M73 636q0 33 12 62t33.5 50.5t50.5 33.5t63 12q33 0 62 -12t50.5 -33.5t34 -50.5t12.5 -62t-12.5 -62t-34 -50t-50.5 -33t-62 -12q-34 0 -63 12t-50.5 33t-33.5 50t-12 62z" />
    <glyph glyph-name="f" unicode="f" horiz-adv-x="677" 
d="M531 848q31 0 52.5 -20.5t21.5 -52.5q0 -31 -21.5 -52.5t-52.5 -21.5h-418q-31 0 -52.5 21.5t-21.5 52.5q0 32 21.5 52.5t52.5 20.5h418zM635 1219q0 -26 -15.5 -46t-41.5 -26q-85 -8 -138.5 -66.5t-56.5 -166.5v-840q0 -30 -22 -54.5t-57 -24.5q-19 0 -34 7t-25 18.5
t-15 25.5t-5 28v765q0 98 18 182t57.5 145.5t102.5 96.5t153 35q33 0 56 -23t23 -56z" />
    <glyph glyph-name="aring" unicode="&#xe5;" horiz-adv-x="1162" 
d="M430 1240q0 31 12 58.5t32 48t47.5 32.5t58.5 12t58.5 -12t48.5 -32.5t33 -48t12 -58.5t-12 -58.5t-33 -48t-48.5 -32.5t-58.5 -12t-58.5 12t-47.5 32.5t-32 48t-12 58.5zM519 1240q0 -27 18 -45.5t44 -18.5t43.5 18.5t17.5 45.5q0 26 -17.5 45t-43.5 19t-44 -19t-18 -45
zM1041 54q0 -29 -15 -45t-40 -16q-28 0 -45.5 16.5t-23.5 45.5l-21 165l-13 25v234q0 33 23.5 56t55.5 23q35 0 57 -23t22 -56v-425zM1001 482q0 -101 -32.5 -190t-91.5 -155.5t-141.5 -105t-183.5 -38.5t-189.5 38.5t-155.5 105t-105.5 155.5t-38.5 190t38.5 190
t105.5 155.5t155.5 105t189.5 38.5t183.5 -38.5t141.5 -105t91.5 -155.5t32.5 -190zM880 482q0 70 -25.5 131.5t-69.5 107.5t-104 72.5t-129 26.5t-129 -26.5t-104 -72.5t-69.5 -107.5t-25.5 -131.5q0 -69 25.5 -130.5t69.5 -107.5t104 -73t129 -27t129 27t104 73
t69.5 107.5t25.5 130.5zM1041 435q0 -33 -22 -56t-57 -23q-32 0 -55.5 23t-23.5 56v284l13 25l21 108q6 67 30 92.5t52 25.5q42 0 42 -42v-493z" />
    <glyph glyph-name="ordfeminine" unicode="&#xaa;" horiz-adv-x="1117" 
d="M1052 49q0 -29 -15 -45t-40 -16q-28 0 -45.5 16.5t-23.5 45.5l-21 165l-13 25v234q0 33 23.5 56t55.5 23q35 0 57 -23t22 -56v-425zM1012 477q0 -101 -32.5 -190t-91.5 -155.5t-141.5 -105t-183.5 -38.5t-189.5 38.5t-155.5 105t-105.5 155.5t-38.5 190t38.5 190
t105.5 155.5t155.5 105t189.5 38.5t183.5 -38.5t141.5 -105t91.5 -155.5t32.5 -190zM891 477q0 70 -25.5 131.5t-69.5 107.5t-104 72.5t-129 26.5t-129 -26.5t-104 -72.5t-69.5 -107.5t-25.5 -131.5q0 -69 25.5 -130.5t69.5 -107.5t104 -73t129 -27t129 27t104 73
t69.5 107.5t25.5 130.5zM1052 430q0 -33 -22 -56t-57 -23q-32 0 -55.5 23t-23.5 56v284l13 25l21 108q6 67 30 92.5t52 25.5q42 0 42 -42v-493z" />
    <glyph glyph-name="eth" unicode="&#xf0;" horiz-adv-x="1069" 
d="M514 1303q8 3 15.5 3t15.5 -1q34 -3 53 -39l339 -525q30 -45 52.5 -102.5t29.5 -118.5q11 -98 -17.5 -189t-87.5 -163t-143 -119.5t-184 -58.5q-101 -11 -193.5 17t-166 86t-121 140.5t-58.5 180.5q-11 92 13.5 178.5t76.5 157t127.5 119.5t167.5 67q57 9 111 4.5
t104 -21.5l-46 69.5l-52 79l-50.5 79.5l-42.5 70q-2 12 -1 22t7 21q6 15 18.5 26.5t32.5 16.5zM850 511q-9 67 -42 123t-81.5 94.5t-110 56t-128.5 8.5t-121.5 -42.5t-91.5 -84t-53 -113.5t-7 -130q9 -68 42 -124t81.5 -94t110 -55.5t128.5 -8.5t121.5 42.5t91.5 83.5
t53 113t7 131zM761 1314q20 11 43.5 4t36.5 -28q12 -21 6 -45.5t-26 -35.5l-384 -240q-20 -11 -43.5 -3t-35.5 28q-12 21 -6.5 45t25.5 35z" />
    <glyph glyph-name="Lslash" unicode="&#x141;" horiz-adv-x="1080" 
d="M368 750q29 15 59.5 5.5t45.5 -41.5q15 -29 4.5 -60t-39.5 -45l-389 -193q-15 -8 -30.5 -8.5t-29.5 4.5t-26.5 15t-19.5 24q-15 31 -4 61.5t41 44.5zM1023 80q0 -38 -24 -59t-53 -21h-713q-47 1 -76 31.5t-29 77.5v1081q0 13 -3.5 25.5t-3.5 24.5q0 15 12 24t49 9
q52 0 78 -25t26 -89v-1001h658q13 0 27 -5t25.5 -15t19 -24.5t7.5 -33.5z" />
    <glyph glyph-name="lslash" unicode="&#x142;" horiz-adv-x="394" 
d="M361 785q22 11 45.5 2.5t34.5 -31.5q11 -22 3.5 -46t-28.5 -35l-395 -210q-11 -5 -22.5 -5t-22.5 4t-20 11.5t-14 18.5q-11 23 -4.5 46.5t28.5 34.5zM116 1192q0 33 22 56t57 23q32 0 55.5 -23t23.5 -56v-1118q0 -33 -23.5 -56t-55.5 -23q-35 0 -57 23t-22 56v1118z" />
    <glyph glyph-name="uni00AD" unicode="&#xad;" horiz-adv-x="904" 
d="M838 604q0 -31 -24.5 -55t-80.5 -24h-565q-57 0 -86 21.5t-29 57.5q0 37 28.5 58t86.5 21h565q28 0 48 -6.5t32.5 -17.5t18.5 -25t6 -30z" />
    <glyph glyph-name="h" unicode="h" 
d="M937 212v272q0 69 -23.5 130.5t-65.5 107.5t-100 72.5t-127 26.5q-71 0 -134 -31.5t-110.5 -83t-75 -117t-27.5 -132.5l-4 275q12 33 44 75t80.5 79t112 62t137.5 25q98 0 180.5 -38.5t142.5 -104.5t93.5 -155t33.5 -190v-291zM116 1192q0 33 22 56t57 23q32 0 55.5 -23
t23.5 -56v-1118q0 -33 -23.5 -56t-55.5 -23q-35 0 -57 23t-22 56v1118zM1094 239v-161q0 -32 -21 -57.5t-58 -25.5q-20 0 -34.5 8t-24.5 21t-14.5 29t-4.5 32v159z" />
    <glyph glyph-name="Aacute" unicode="&#xc1;" horiz-adv-x="1110" 
d="M548 1269q21 0 36.5 -10.5t27.5 -27t21 -37l17 -39.5l416 -1052q2 -8 4 -17t3 -18q0 -21 -12 -38t-34 -25q-15 -9 -32 -10.5t-32.5 5t-29 19.5t-20.5 33l-94 243h-534l-98 -244q-16 -38 -39.5 -50.5t-50.5 -7.5q-15 1 -28.5 8.5t-22.5 20.5t-12 31t3 40q11 32 23 63
l24 63l385 972q2 10 2 19t2 17q2 17 16.5 29.5t58.5 12.5zM327 429h451l-226 576zM650 1588q36 0 56 -23.5t15 -57.5q-2 -15 -23 -37.5t-47.5 -43.5t-51.5 -36t-35 -16q-18 -5 -36 3q-14 4 -22.5 14.5t-10.5 25.5q-3 13 2 28q1 8 18 31.5t40.5 48t49 44t45.5 19.5z" />
    <glyph glyph-name="Abreve" unicode="&#x102;" horiz-adv-x="1110" 
d="M548 1269q21 0 36.5 -10.5t27.5 -27t21 -37l17 -39.5l416 -1052q2 -8 4 -17t3 -18q0 -21 -12 -38t-34 -25q-15 -9 -32 -10.5t-32.5 5t-29 19.5t-20.5 33l-94 243h-534l-98 -244q-16 -38 -39.5 -50.5t-50.5 -7.5q-15 1 -28.5 8.5t-22.5 20.5t-12 31t3 40q11 32 23 63
l24 63l385 972q2 10 2 19t2 17q2 17 16.5 29.5t58.5 12.5zM327 429h451l-226 576zM549 1381q-40 0 -75 14t-61.5 39t-42 58.5t-15.5 71.5q0 26 17 44.5t43 18.5q20 0 29.5 -9.5t15 -24.5t9.5 -31.5t12 -31.5t23.5 -24.5t44.5 -9.5t45 9.5t24.5 24.5t12.5 31.5t9.5 31.5
t15 24.5t29.5 9.5q26 0 43 -18t17 -44q0 -39 -16 -72.5t-43 -58.5t-62.5 -39t-74.5 -14z" />
    <glyph glyph-name="Acircumflex" unicode="&#xc2;" horiz-adv-x="1110" 
d="M548 1269q21 0 36.5 -10.5t27.5 -27t21 -37l17 -39.5l416 -1052q2 -8 4 -17t3 -18q0 -21 -12 -38t-34 -25q-15 -9 -32 -10.5t-32.5 5t-29 19.5t-20.5 33l-94 243h-534l-98 -244q-16 -38 -39.5 -50.5t-50.5 -7.5q-15 1 -28.5 8.5t-22.5 20.5t-12 31t3 40q11 32 23 63
l24 63l385 972q2 10 2 19t2 17q2 17 16.5 29.5t58.5 12.5zM327 429h451l-226 576zM505 1604q17 18 39.5 19.5t40.5 -12.5l167 -163q22 -22 27 -48.5t-15 -47.5q-22 -22 -50.5 -14.5t-56.5 36.5l-109 109l-107 -108q-29 -29 -57 -37.5t-51 14.5q-14 14 -15.5 29.5t4.5 30.5
t17.5 29t23.5 26z" />
    <glyph glyph-name="Agrave" unicode="&#xc0;" horiz-adv-x="1110" 
d="M548 1269q21 0 36.5 -10.5t27.5 -27t21 -37l17 -39.5l416 -1052q2 -8 4 -17t3 -18q0 -21 -12 -38t-34 -25q-15 -9 -32 -10.5t-32.5 5t-29 19.5t-20.5 33l-94 243h-534l-98 -244q-16 -38 -39.5 -50.5t-50.5 -7.5q-15 1 -28.5 8.5t-22.5 20.5t-12 31t3 40q11 32 23 63
l24 63l385 972q2 10 2 19t2 17q2 17 16.5 29.5t58.5 12.5zM327 429h451l-226 576zM430 1588q19 0 45 -19.5t49.5 -44t40 -48t17.5 -31.5q2 -7 3.5 -14.5t-0.5 -13.5q-2 -15 -10.5 -25.5t-22.5 -14.5q-18 -8 -36 -3q-10 1 -35 16t-51.5 36t-47.5 43.5t-23 37.5q-5 34 15 57.5
t56 23.5z" />
    <glyph glyph-name="Adieresis" unicode="&#xc4;" horiz-adv-x="1110" 
d="M548 1269q21 0 36.5 -10.5t27.5 -27t21 -37l17 -39.5l416 -1052q2 -8 4 -17t3 -18q0 -21 -12 -38t-34 -25q-15 -9 -32 -10.5t-32.5 5t-29 19.5t-20.5 33l-94 243h-534l-98 -244q-16 -38 -39.5 -50.5t-50.5 -7.5q-15 1 -28.5 8.5t-22.5 20.5t-12 31t3 40q11 32 23 63
l24 63l385 972q2 10 2 19t2 17q2 17 16.5 29.5t58.5 12.5zM327 429h451l-226 576zM315 1446q0 35 23.5 59t58.5 24q34 0 58.5 -24t24.5 -59t-24.5 -58.5t-58.5 -23.5q-35 0 -58.5 23.5t-23.5 58.5zM622 1446q0 35 23.5 59t57.5 24q35 0 59 -24t24 -59t-24 -58.5t-59 -23.5
q-34 0 -57.5 23.5t-23.5 58.5z" />
    <glyph glyph-name="Amacron" unicode="&#x100;" horiz-adv-x="1110" 
d="M548 1269q21 0 36.5 -10.5t27.5 -27t21 -37l17 -39.5l416 -1052q2 -8 4 -17t3 -18q0 -21 -12 -38t-34 -25q-15 -9 -32 -10.5t-32.5 5t-29 19.5t-20.5 33l-94 243h-534l-98 -244q-16 -38 -39.5 -50.5t-50.5 -7.5q-15 1 -28.5 8.5t-22.5 20.5t-12 31t3 40q11 32 23 63
l24 63l385 972q2 10 2 19t2 17q2 17 16.5 29.5t58.5 12.5zM327 429h451l-226 576zM823 1493q24 0 41 -18t17 -44q0 -24 -17 -42.5t-41 -18.5h-562q-24 0 -41 18.5t-17 42.5q0 26 17 44t41 18h562z" />
    <glyph glyph-name="Aogonek" unicode="&#x104;" horiz-adv-x="1110" 
d="M548 1269q21 0 36.5 -10.5t27.5 -27t21 -37l17 -39.5l416 -1052q2 -8 4 -17t3 -18q0 -21 -12 -38t-34 -25q-15 -9 -32 -10.5t-32.5 5t-29 19.5t-20.5 33l-94 243h-534l-98 -244q-16 -38 -39.5 -50.5t-50.5 -7.5q-15 1 -28.5 8.5t-22.5 20.5t-12 31t3 40q11 32 23 63
l24 63l385 972q2 10 2 19t2 17q2 17 16.5 29.5t58.5 12.5zM327 429h451l-226 576zM976.611 84.3203q17.9404 16.0645 38.2402 13.2295q20.3008 -2.83496 33.5195 -16.0645q13.2197 -13.2295 14.6357 -33.0732t-18.4121 -37.7979l-53.8203 -49.1367l-28.7988 -25.041
q-12.7461 -10.8672 -22.6611 -21.2617q-9.91406 -10.3945 -15.1074 -21.2607q-5.19238 -10.8672 -5.19238 -24.0967q0 -17.9541 11.3301 -31.6553q11.3311 -13.7021 33.0479 -13.7021q15.1074 0 23.1328 7.08691q8.02637 7.08789 12.7471 17.0098t8.49805 22.2061
q3.77637 12.2842 9.44238 22.2061q5.66504 9.92188 15.5791 17.0088t26.9102 7.08691q19.8281 0 35.4082 -13.7012q15.5791 -13.7021 15.5791 -35.4355q0 -31.1836 -11.8027 -58.5869t-32.1035 -47.7197q-20.2998 -20.3164 -47.6826 -31.6553
q-27.3818 -11.3398 -58.541 -11.3398q-33.0479 0 -60.9014 11.3398q-27.8545 11.3389 -48.1553 31.6553t-32.1035 47.7197t-11.8027 58.5869q0 27.4033 11.3311 51.5q11.3301 24.0957 33.0469 49.1367q21.7178 25.041 52.877 52.917z" />
    <glyph glyph-name="Aring" unicode="&#xc5;" horiz-adv-x="1110" 
d="M548 1269q21 0 36.5 -10.5t27.5 -27t21 -37l17 -39.5l416 -1052q2 -8 4 -17t3 -18q0 -21 -12 -38t-34 -25q-15 -9 -32 -10.5t-32.5 5t-29 19.5t-20.5 33l-94 243h-534l-98 -244q-16 -38 -39.5 -50.5t-50.5 -7.5q-15 1 -28.5 8.5t-22.5 20.5t-12 31t3 40q11 32 23 63
l24 63l385 972q2 10 2 19t2 17q2 17 16.5 29.5t58.5 12.5zM327 429h451l-226 576zM402 1529q0 31 12 58.5t32 48t47.5 32.5t58.5 12t58.5 -12t48.5 -32.5t33 -48t12 -58.5t-12 -58.5t-33 -48t-48.5 -32.5t-58.5 -12t-58.5 12t-47.5 32.5t-32 48t-12 58.5zM491 1529
q0 -27 18 -45.5t44 -18.5t43.5 18.5t17.5 45.5q0 26 -17.5 45t-43.5 19t-44 -19t-18 -45z" />
    <glyph glyph-name="Atilde" unicode="&#xc3;" horiz-adv-x="1110" 
d="M548 1269q21 0 36.5 -10.5t27.5 -27t21 -37l17 -39.5l416 -1052q2 -8 4 -17t3 -18q0 -21 -12 -38t-34 -25q-15 -9 -32 -10.5t-32.5 5t-29 19.5t-20.5 33l-94 243h-534l-98 -244q-16 -38 -39.5 -50.5t-50.5 -7.5q-15 1 -28.5 8.5t-22.5 20.5t-12 31t3 40q11 32 23 63
l24 63l385 972q2 10 2 19t2 17q2 17 16.5 29.5t58.5 12.5zM327 429h451l-226 576zM745 1548q10 10 27 10t29.5 -10t17 -28t-8.5 -43q-25 -49 -65 -76.5t-96 -27.5q-29 0 -49 8.5t-35.5 21t-27.5 27.5t-25 27.5t-28 21t-36 8.5q-26 0 -41 -10.5t-25.5 -24t-20.5 -25
t-25 -12.5q-9 -2 -19 2q-16 4 -22.5 15t-7.5 24t3.5 27t10.5 25q26 46 64 69q10 7 19.5 11t20.5 7q19 6 42 6q33 0 55.5 -8.5t38.5 -21t28 -27.5t24 -27.5t26.5 -21t35.5 -8.5q12 0 21.5 5t19 13t21 19.5t28.5 23.5z" />
    <glyph glyph-name="AEacute" unicode="&#x1fc;" horiz-adv-x="1632" 
d="M1343 0h-351q-28 0 -46 9t-31 29.5t-23.5 54t-22.5 82.5q-1 2 -5.5 21.5l-9.5 42.5q-6 27 -15 61h-538l-69 -123.5l-44 -76l-26 -43l-15 -23.5q-9 -14 -21.5 -23.5t-27.5 -13.5t-30.5 -1.5t-29.5 12.5q-6 4 -12.5 11.5t-10 20t-1 29.5t14.5 41l9 16.5l14.5 27l25.5 47.5
l42.5 79l65.5 121.5l94 174.5l128 238l168 313q13 25 23 51t23 47t31.5 35t48.5 14h513l8 -153h-419q2 -8 3.5 -15t3.5 -15l91 -376h339l5 -149h-306l99 -408h304v-158zM364 434h447l-139 570zM1231 715h108q18 0 34.5 -7t27.5 -19t16 -29t0 -37q-6 -27 -26.5 -42t-49.5 -15
h-111zM1215 1274h74q24 0 45 -4t39 -10q28 -10 39.5 -33t7 -46.5t-24.5 -41.5t-55 -18h-117zM1343 158h155q36 0 64.5 -18.5t28.5 -60.5t-29.5 -60.5t-68.5 -18.5h-150v158zM913 1596q36 0 56 -23.5t15 -57.5q-2 -15 -23 -37.5t-47.5 -43.5t-51.5 -36t-35 -16q-18 -5 -36 3
q-14 4 -22.5 14.5t-10.5 25.5q-3 13 2 28q1 8 18 31.5t40.5 48t49 44t45.5 19.5z" />
    <glyph glyph-name="Ccedilla" unicode="&#xc7;" horiz-adv-x="1257" 
d="M1043 958q-74 78 -163 114.5t-183 36.5q-99 0 -186.5 -38t-152.5 -103t-102.5 -152.5t-37.5 -186.5t37.5 -186.5t103 -152.5t152.5 -103t186 -38q58 0 110 13t97.5 36t86.5 55t78 71q17 13 40 16.5t43 -8.5q19 -8 31.5 -25t12.5 -38q0 -34 -26 -60q-51 -56 -101.5 -96.5
t-106.5 -67t-121 -39.5t-144 -13q-132 0 -248 50t-202.5 136.5t-136.5 202.5t-50 248q0 87 22.5 168t64 152t100 129t129 99.5t152 64.5t169.5 23q66 0 126.5 -10t116.5 -33.5t109 -61t105 -92.5q11 -12 17 -27.5t6 -31.5q1 -17 -6.5 -32t-21.5 -26q-20 -17 -49 -18.5
t-57 24.5zM637 35h23.5t33 0.5t33 0.5h23.5v-25.5v-36.5t0.5 -33.5t1.5 -16.5q3 -10 14 -15q20 -9 38.5 -24.5t33 -37t22 -49t6.5 -60.5q-3 -31 -16 -57.5t-34 -46t-49 -31t-60 -12.5q-31 -2 -59 8t-49.5 28t-35.5 41.5t-18 50.5q-3 12 -1.5 25t8 23.5t17.5 17t28 6.5
q23 0 33.5 -13.5t18 -30.5t17.5 -31t33 -14q22 0 39 13.5t16 40.5q0 18 -9 29t-21.5 19.5t-27.5 15.5t-28 16.5t-21.5 23t-8.5 35.5z" />
    <glyph glyph-name="Thorn" unicode="&#xde;" horiz-adv-x="1047" 
d="M987 630q0 -104 -41 -187.5t-110.5 -142.5t-162.5 -91t-197 -32h-193v-22q0 -13 -6 -31t-16 -28t-22 -6.5t-25 33.5t-25 92t-21 169t-14 264.5t-3 378.5q-1 13 -4 26t-3 25q0 14 11.5 23t48.5 9h272q104 0 197 -36t162.5 -100t110.5 -152t41 -192zM831 627q0 73 -28 134
t-76.5 105.5t-113 70t-137.5 25.5l-192 1v-643l192 1q73 0 137.5 20.5t113 59.5t76.5 95.5t28 130.5zM286 117q0 -52 -18 -87t-61 -35q-22 0 -37 9.5t-24.5 26t-13.5 38.5t-4 48v1068q0 13 -3.5 25.5t-3.5 24.5q0 15 12 24t49 9q45 0 73.5 -18t30.5 -62v-1071z" />
    <glyph glyph-name="dotlessi" unicode="&#x131;" horiz-adv-x="389" 
d="M115 894q0 33 22 56t57 23q32 0 55.5 -23t23.5 -56v-820q0 -33 -23.5 -56t-55.5 -23q-35 0 -57 23t-22 56v820z" />
    <glyph glyph-name="iacute" unicode="&#xed;" horiz-adv-x="390" 
d="M323 1317q36 0 56 -23.5t15 -57.5q-2 -15 -23 -37.5t-47.5 -43.5t-51.5 -36t-35 -16q-18 -5 -36 3q-14 4 -22.5 14.5t-10.5 25.5q-3 13 2 28q1 8 18 31.5t40.5 48t49 44t45.5 19.5zM116 893q0 33 22 56t57 23q32 0 55.5 -23t23.5 -56v-820q0 -33 -23.5 -56t-55.5 -23
q-35 0 -57 23t-22 56v820z" />
    <glyph glyph-name="ibreve" unicode="&#x12d;" horiz-adv-x="390" 
d="M193 1109q-40 0 -75 14t-61.5 39t-42 58.5t-15.5 71.5q0 26 17 44.5t43 18.5q20 0 29.5 -9.5t15 -24.5t9.5 -31.5t12 -31.5t23.5 -24.5t44.5 -9.5t45 9.5t24.5 24.5t12.5 31.5t9.5 31.5t15 24.5t29.5 9.5q26 0 43 -18t17 -44q0 -39 -16 -72.5t-43 -58.5t-62.5 -39
t-74.5 -14zM116 894q0 33 22 56t57 23q32 0 55.5 -23t23.5 -56v-820q0 -33 -23.5 -56t-55.5 -23q-35 0 -57 23t-22 56v820z" />
    <glyph glyph-name="icircumflex" unicode="&#xee;" horiz-adv-x="390" 
d="M116 894q0 33 22 56t57 23q32 0 55.5 -23t23.5 -56v-820q0 -33 -23.5 -56t-55.5 -23q-35 0 -57 23t-22 56v820zM154 1335q17 18 39.5 19.5t40.5 -12.5l167 -163q22 -22 27 -48.5t-15 -47.5q-22 -22 -50.5 -14.5t-56.5 36.5l-109 109l-107 -108q-29 -29 -57 -37.5
t-51 14.5q-14 14 -15.5 29.5t4.5 30.5t17.5 29t23.5 26z" />
    <glyph glyph-name="idieresis" unicode="&#xef;" horiz-adv-x="390" 
d="M-43 1194q0 35 23.5 59t58.5 24q34 0 58.5 -24t24.5 -59t-24.5 -58.5t-58.5 -23.5q-35 0 -58.5 23.5t-23.5 58.5zM264 1194q0 35 23.5 59t57.5 24q35 0 59 -24t24 -59t-24 -58.5t-59 -23.5q-34 0 -57.5 23.5t-23.5 58.5zM116 894q0 33 22 56t57 23q32 0 55.5 -23
t23.5 -56v-820q0 -33 -23.5 -56t-55.5 -23q-35 0 -57 23t-22 56v820z" />
    <glyph glyph-name="igrave" unicode="&#xec;" horiz-adv-x="390" 
d="M90 1309q19 0 45 -19.5t49.5 -44t40 -48t17.5 -31.5q2 -7 3.5 -14.5t-0.5 -13.5q-2 -15 -10.5 -25.5t-22.5 -14.5q-18 -8 -36 -3q-10 1 -35 16t-51.5 36t-47.5 43.5t-23 37.5q-5 34 15 57.5t56 23.5zM116 894q0 33 22 56t57 23q32 0 55.5 -23t23.5 -56v-820
q0 -33 -23.5 -56t-55.5 -23q-35 0 -57 23t-22 56v820z" />
    <glyph glyph-name="imacron" unicode="&#x12b;" horiz-adv-x="390" 
d="M477 1199q24 0 41 -18t17 -44q0 -24 -17 -42.5t-41 -18.5h-562q-24 0 -41 18.5t-17 42.5q0 26 17 44t41 18h562zM116 894q0 33 22 56t57 23q32 0 55.5 -23t23.5 -56v-820q0 -33 -23.5 -56t-55.5 -23q-35 0 -57 23t-22 56v820z" />
    <glyph glyph-name="iogonek" unicode="&#x12f;" horiz-adv-x="390" 
d="M116 894q0 33 22 56t57 23q32 0 55.5 -23t23.5 -56v-820q0 -33 -23.5 -56t-55.5 -23q-35 0 -57 23t-22 56v820zM101 1219q0 38 26.5 64.5t64.5 26.5q19 0 36 -7t29.5 -19.5t20 -29t7.5 -35.5q0 -20 -7.5 -36.5t-20 -28.5t-29.5 -18.5t-36 -6.5q-38 0 -64.5 25.5
t-26.5 64.5zM176 94q19 17 40.5 14t35.5 -17t15.5 -35t-19.5 -40l-57 -52l-30.5 -26.5t-24 -22.5t-16 -22.5t-5.5 -25.5q0 -19 12 -33.5t35 -14.5q16 0 24.5 7.5t13.5 18t9 23.5t10 23.5t16.5 18t28.5 7.5q21 0 37.5 -14.5t16.5 -37.5q0 -33 -12.5 -62t-34 -50.5
t-50.5 -33.5t-62 -12q-35 0 -64.5 12t-51 33.5t-34 50.5t-12.5 62q0 29 12 54.5t35 52t56 56z" />
    <glyph glyph-name="itilde" unicode="&#x129;" horiz-adv-x="390" 
d="M397 1276q10 10 27 10t29.5 -10t17 -28t-8.5 -43q-25 -49 -65 -76.5t-96 -27.5q-29 0 -49 8.5t-35.5 21t-27.5 27.5t-25 27.5t-28 21t-36 8.5q-26 0 -41 -10.5t-25.5 -24t-20.5 -25t-25 -12.5q-9 -2 -19 2q-16 4 -22.5 15t-7.5 24t3.5 27t10.5 25q26 46 64 69
q10 7 19.5 11t20.5 7q19 6 42 6q33 0 55.5 -8.5t38.5 -21t28 -27.5t24 -27.5t26.5 -21t35.5 -8.5q12 0 21.5 5t19 13t21 19.5t28.5 23.5zM116 894q0 33 22 56t57 23q32 0 55.5 -23t23.5 -56v-820q0 -33 -23.5 -56t-55.5 -23q-35 0 -57 23t-22 56v820z" />
    <glyph glyph-name="ij" unicode="&#x133;" horiz-adv-x="766" 
d="M115 894q0 33 22 56t57 23q32 0 55.5 -23t23.5 -56v-820q0 -33 -23.5 -56t-55.5 -23q-35 0 -57 23t-22 56v820zM100 1219q0 38 26.5 64.5t64.5 26.5q19 0 36 -7t29.5 -19.5t20 -29t7.5 -35.5q0 -20 -7.5 -36.5t-20 -28.5t-29.5 -18.5t-36 -6.5q-38 0 -64.5 25.5
t-26.5 64.5zM241 -272q0 26 15.5 45.5t41.5 26.5q86 8 139 66t57 167v847q0 36 20.5 64.5t58.5 28.5q19 0 34 -8t25 -21t15 -30t5 -34v-772q0 -98 -18 -182t-57.5 -145.5t-103 -96.5t-153.5 -35q-32 0 -55.5 22.5t-23.5 56.5zM482 1218q0 38 26 65t65 27q19 0 36 -7
t29.5 -19.5t19.5 -29.5t7 -36q0 -38 -27 -64t-65 -26q-39 0 -65 26t-26 64z" />
    <glyph glyph-name="ccedilla" unicode="&#xe7;" horiz-adv-x="977" 
d="M888 845q25 -26 25 -57q0 -19 -8.5 -34.5t-22.5 -25.5t-32 -12.5t-36 5.5q-51 37 -111.5 62.5t-128.5 30.5q-70 4 -134 -19t-112.5 -67t-77.5 -107t-29 -139q0 -72 27.5 -134.5t75 -107.5t112 -69.5t138.5 -20.5q61 2 119 25.5t103 65.5q14 9 32.5 12t35.5 -3
q22 -5 37 -24.5t15 -45.5q0 -31 -31 -64t-82.5 -60.5t-117.5 -45t-136 -17.5q-101 0 -190 38.5t-155.5 105t-105 155.5t-38.5 190t38.5 190t105 155.5t155.5 105t190 38.5q46 0 93.5 -7.5t92.5 -23t84.5 -39.5t68.5 -56zM473 54h23.5t33 0.5t33 0.5h23.5v-25.5v-36.5
t0.5 -33.5t1.5 -16.5q3 -10 14 -15q20 -9 38.5 -24.5t33 -37t22 -49t6.5 -60.5q-3 -31 -16 -57.5t-34 -46t-49 -31t-60 -12.5q-31 -2 -59 8t-49.5 28t-35.5 41.5t-18 50.5q-3 12 -1.5 25t8 23.5t17.5 17t28 6.5q23 0 33.5 -13.5t18 -30.5t17.5 -31t33 -14q22 0 39 13.5
t16 40.5q0 18 -9 29t-21.5 19.5t-27.5 15.5t-28 16.5t-21.5 23t-8.5 35.5z" />
    <glyph glyph-name="ccircumflex" unicode="&#x109;" horiz-adv-x="977" 
d="M888 845q25 -26 25 -57q0 -19 -8.5 -34.5t-22.5 -25.5t-32 -12.5t-36 5.5q-51 37 -111.5 62.5t-128.5 30.5q-70 4 -134 -19t-112.5 -67t-77.5 -107t-29 -139q0 -72 27.5 -134.5t75 -107.5t112 -69.5t138.5 -20.5q61 2 119 25.5t103 65.5q14 9 32.5 12t35.5 -3
q22 -5 37 -24.5t15 -45.5q0 -31 -31 -64t-82.5 -60.5t-117.5 -45t-136 -17.5q-101 0 -190 38.5t-155.5 105t-105 155.5t-38.5 190t38.5 190t105 155.5t155.5 105t190 38.5q46 0 93.5 -7.5t92.5 -23t84.5 -39.5t68.5 -56zM498 1320q17 18 39.5 19.5t40.5 -12.5l167 -163
q22 -22 27 -48.5t-15 -47.5q-22 -22 -50.5 -14.5t-56.5 36.5l-109 109l-107 -108q-29 -29 -57 -37.5t-51 14.5q-14 14 -15.5 29.5t4.5 30.5t17.5 29t23.5 26z" />
    <glyph glyph-name="cdotaccent" unicode="&#x10b;" horiz-adv-x="977" 
d="M888 845q25 -26 25 -57q0 -19 -8.5 -34.5t-22.5 -25.5t-32 -12.5t-36 5.5q-51 37 -111.5 62.5t-128.5 30.5q-70 4 -134 -19t-112.5 -67t-77.5 -107t-29 -139q0 -72 27.5 -134.5t75 -107.5t112 -69.5t138.5 -20.5q61 2 119 25.5t103 65.5q14 9 32.5 12t35.5 -3
q22 -5 37 -24.5t15 -45.5q0 -31 -31 -64t-82.5 -60.5t-117.5 -45t-136 -17.5q-101 0 -190 38.5t-155.5 105t-105 155.5t-38.5 190t38.5 190t105 155.5t155.5 105t190 38.5q46 0 93.5 -7.5t92.5 -23t84.5 -39.5t68.5 -56zM449 1187q0 38 26 65t65 27q19 0 36 -7t29.5 -19.5
t19.5 -29.5t7 -36q0 -38 -27 -64t-65 -26q-39 0 -65 26t-26 64z" />
    <glyph glyph-name="lessequal" unicode="&#x2264;" horiz-adv-x="653" 
d="M512 243q-13 -8 -35 -6q-12 1 -28.5 12t-33.5 26.5t-33 32.5l-29 30l-231 231q-20 19 -38 42t-18 45q0 27 19.5 49.5t38.5 41.5l240 240q14 13 29.5 29t32 31t33.5 27.5t34 18.5q17 1 39 -9q20 -5 33 -19t15 -35l2 -13.5t-1 -12.5q-8 -26 -31.5 -52.5t-46.5 -46.5
l-271 -248l255 -231q23 -21 48 -48t33 -52q1 -12 -1.5 -22.5t-7.5 -19.5q-7 -15 -19.5 -25.5t-27.5 -15.5zM575 115q0 -43 -29 -61t-86 -18h-274q-57 0 -87 16.5t-30 62.5q0 43 30 61t87 18h274q57 0 86 -18t29 -61z" />
    <glyph glyph-name="Oslashacute" unicode="&#x1fe;" horiz-adv-x="1392" 
d="M60 631q0 131 50 247t136.5 202.5t202.5 137t248 50.5q131 0 246.5 -50.5t202 -137t137 -202.5t50.5 -247q0 -132 -50.5 -247.5t-137 -202t-202 -136.5t-246.5 -50q-132 0 -248 50t-202.5 136.5t-136.5 202t-50 247.5zM218 630q0 -99 37.5 -186t102.5 -152.5
t152.5 -103.5t186.5 -38t186 38t152 103.5t102.5 153t37.5 186.5t-37.5 186.5t-102.5 152.5t-152 103t-186 38t-186.5 -38t-152.5 -103t-102.5 -153t-37.5 -187zM797 1598q36 0 56 -23.5t15 -57.5q-2 -15 -23 -37.5t-47.5 -43.5t-51.5 -36t-35 -16q-18 -5 -36 3
q-14 4 -22.5 14.5t-10.5 25.5q-3 13 2 28q1 8 18 31.5t40.5 48t49 44t45.5 19.5z" />
    <glyph glyph-name="Ohungarumlaut" unicode="&#x150;" horiz-adv-x="1394" 
d="M60 631q0 131 50 247t136.5 202.5t202.5 137t248 50.5q131 0 246.5 -50.5t202 -137t137 -202.5t50.5 -247q0 -132 -50.5 -247.5t-137 -202t-202 -136.5t-246.5 -50q-132 0 -248 50t-202.5 136.5t-136.5 202t-50 247.5zM218 630q0 -99 37.5 -186t102.5 -152.5
t152.5 -103.5t186.5 -38t186 38t152 103.5t102.5 153t37.5 186.5t-37.5 186.5t-102.5 152.5t-152 103t-186 38t-186.5 -38t-152.5 -103t-102.5 -153t-37.5 -187zM959 1610q16 0 30 -6.5t24 -17.5t14.5 -25.5t2.5 -31.5q-2 -23 -23 -46.5t-47.5 -42.5t-51.5 -31t-35 -13
q-18 -5 -36 3q-14 4 -22.5 14.5t-10.5 25.5q-2 6 -0.5 13.5t3.5 14.5q1 8 14 31.5t34 48t48 44t56 19.5zM592 1610q16 0 29.5 -6.5t23.5 -17.5t14.5 -25.5t2.5 -31.5q-2 -23 -23 -46.5t-47.5 -42.5t-51.5 -31t-35 -13q-18 -5 -35 3q-29 8 -34 40q-1 6 0 13.5t3 14.5
q1 8 14 31.5t34 48t48 44t57 19.5z" />
    <glyph glyph-name="Obreve" unicode="&#x14e;" horiz-adv-x="1394" 
d="M60 631q0 131 50 247t136.5 202.5t202.5 137t248 50.5q131 0 246.5 -50.5t202 -137t137 -202.5t50.5 -247q0 -132 -50.5 -247.5t-137 -202t-202 -136.5t-246.5 -50q-132 0 -248 50t-202.5 136.5t-136.5 202t-50 247.5zM218 630q0 -99 37.5 -186t102.5 -152.5
t152.5 -103.5t186.5 -38t186 38t152 103.5t102.5 153t37.5 186.5t-37.5 186.5t-102.5 152.5t-152 103t-186 38t-186.5 -38t-152.5 -103t-102.5 -153t-37.5 -187zM693 1399q-40 0 -75 14t-61.5 39t-42 58.5t-15.5 71.5q0 26 17 44.5t43 18.5q20 0 29.5 -9.5t15 -24.5
t9.5 -31.5t12 -31.5t23.5 -24.5t44.5 -9.5t45 9.5t24.5 24.5t12.5 31.5t9.5 31.5t15 24.5t29.5 9.5q26 0 43 -18t17 -44q0 -39 -16 -72.5t-43 -58.5t-62.5 -39t-74.5 -14z" />
    <glyph glyph-name="Ncommaaccent" unicode="&#x145;" horiz-adv-x="1363" 
d="M1241 79q0 -34 -21 -59t-57 -25q-25 0 -47 17.5t-37 34.5l-794 925v-898q0 -34 -22.5 -56.5t-55.5 -22.5q-35 0 -57 23t-22 54v1113q0 14 -3.5 24.5t-3.5 27.5q0 14 12 22.5t49 8.5t58.5 -11.5t43.5 -34.5l800 -938v899q0 16 -4 27t-4 25q0 8 2 14.5t9.5 10.5t22 6
t39.5 2q48 0 70 -21.5t22 -59.5v-1108zM724 -170q36 0 62 -25.5t22 -69.5q-11 -46 -30 -80t-40 -57t-42 -34.5t-35 -12.5q-18 0 -33 16t-17 50q-2 14 2 45.5t11 63.5q3 21 11.5 39.5t21 33t29.5 23t38 8.5z" />
    <glyph glyph-name="Ldot" unicode="&#x13f;" horiz-adv-x="1080" 
d="M1023 80q0 -38 -24 -59t-53 -21h-713q-47 1 -76 31.5t-29 77.5v1081q0 13 -3.5 25.5t-3.5 24.5q0 15 12 24t49 9q52 0 78 -25t26 -89v-1001h658q13 0 27 -5t25.5 -15t19 -24.5t7.5 -33.5zM520 595q0 19 7 36t19.5 29.5t29 19.5t35.5 7t36 -7t29.5 -19.5t20 -29.5t7.5 -36
t-7.5 -35.5t-20 -28.5t-29.5 -19t-36 -7q-38 0 -64.5 26t-26.5 64z" />
    <glyph glyph-name="Lcommaaccent" unicode="&#x13b;" horiz-adv-x="1080" 
d="M1023 80q0 -38 -24 -59t-53 -21h-713q-47 1 -76 31.5t-29 77.5v1081q0 13 -3.5 25.5t-3.5 24.5q0 15 12 24t49 9q52 0 78 -25t26 -89v-1001h658q13 0 27 -5t25.5 -15t19 -24.5t7.5 -33.5zM552 -160q36 0 62 -25.5t22 -69.5q-11 -46 -30 -80t-40 -57t-42 -34.5t-35 -12.5
q-18 0 -33 16t-17 50q-2 14 2 45.5t11 63.5q3 21 11.5 39.5t21 33t29.5 23t38 8.5z" />
    <glyph glyph-name="Lcaron" unicode="&#x13d;" horiz-adv-x="1080" 
d="M1023 80q0 -38 -24 -59t-53 -21h-713q-47 1 -76 31.5t-29 77.5v1081q0 13 -3.5 25.5t-3.5 24.5q0 15 12 24t49 9q52 0 78 -25t26 -89v-1001h658q13 0 27 -5t25.5 -15t19 -24.5t7.5 -33.5zM21 1527q-11 12 -22.5 26t-18 29t-5 30.5t15.5 29.5q23 23 51.5 14.5t56.5 -37.5
l108 -108l108 109q28 29 56.5 36.5t50.5 -14.5q20 -21 15 -47.5t-26 -48.5l-168 -163q-18 -14 -40 -12.5t-40 19.5z" />
    <glyph glyph-name="Lacute" unicode="&#x139;" horiz-adv-x="1080" 
d="M1023 80q0 -38 -24 -59t-53 -21h-713q-47 1 -76 31.5t-29 77.5v1081q0 13 -3.5 25.5t-3.5 24.5q0 15 12 24t49 9q52 0 78 -25t26 -89v-1001h658q13 0 27 -5t25.5 -15t19 -24.5t7.5 -33.5zM294 1598q36 0 56 -23.5t15 -57.5q-2 -15 -23 -37.5t-47.5 -43.5t-51.5 -36
t-35 -16q-18 -5 -36 3q-14 4 -22.5 14.5t-10.5 25.5q-3 13 2 28q1 8 18 31.5t40.5 48t49 44t45.5 19.5z" />
    <glyph glyph-name="Ccircumflex" unicode="&#x108;" horiz-adv-x="1257" 
d="M1043 958q-74 78 -163 114.5t-183 36.5q-99 0 -186.5 -38t-152.5 -103t-102.5 -152.5t-37.5 -186.5t37.5 -186.5t103 -152.5t152.5 -103t186 -38q58 0 110 13t97.5 36t86.5 55t78 71q17 13 40 16.5t43 -8.5q19 -8 31.5 -25t12.5 -38q0 -34 -26 -60q-51 -56 -101.5 -96.5
t-106.5 -67t-121 -39.5t-144 -13q-132 0 -248 50t-202.5 136.5t-136.5 202.5t-50 248q0 87 22.5 168t64 152t100 129t129 99.5t152 64.5t169.5 23q66 0 126.5 -10t116.5 -33.5t109 -61t105 -92.5q11 -12 17 -27.5t6 -31.5q1 -17 -6.5 -32t-21.5 -26q-20 -17 -49 -18.5
t-57 24.5zM646 1624q17 18 39.5 19.5t40.5 -12.5l167 -163q22 -22 27 -48.5t-15 -47.5q-22 -22 -50.5 -14.5t-56.5 36.5l-109 109l-107 -108q-29 -29 -57 -37.5t-51 14.5q-14 14 -15.5 29.5t4.5 30.5t17.5 29t23.5 26z" />
    <glyph glyph-name="Cdotaccent" unicode="&#x10a;" horiz-adv-x="1257" 
d="M1043 958q-74 78 -163 114.5t-183 36.5q-99 0 -186.5 -38t-152.5 -103t-102.5 -152.5t-37.5 -186.5t37.5 -186.5t103 -152.5t152.5 -103t186 -38q58 0 110 13t97.5 36t86.5 55t78 71q17 13 40 16.5t43 -8.5q19 -8 31.5 -25t12.5 -38q0 -34 -26 -60q-51 -56 -101.5 -96.5
t-106.5 -67t-121 -39.5t-144 -13q-132 0 -248 50t-202.5 136.5t-136.5 202.5t-50 248q0 87 22.5 168t64 152t100 129t129 99.5t152 64.5t169.5 23q66 0 126.5 -10t116.5 -33.5t109 -61t105 -92.5q11 -12 17 -27.5t6 -31.5q1 -17 -6.5 -32t-21.5 -26q-20 -17 -49 -18.5
t-57 24.5zM594 1465q0 38 26 65t65 27q19 0 36 -7t29.5 -19.5t19.5 -29.5t7 -36q0 -38 -27 -64t-65 -26q-39 0 -65 26t-26 64z" />
    <glyph glyph-name="Ebreve" unicode="&#x114;" horiz-adv-x="1063" 
d="M1028 74q0 -38 -27.5 -58.5t-63.5 -20.5h-704q-53 0 -78 28t-25 79v1074q-1 14 -5 29.5t-4 29.5q0 15 10 24.5t40 9.5h770q42 0 63 -24t21 -52.5t-20.5 -52.5t-61.5 -24h-656v-409h527q18 0 34 -7t27.5 -19t16 -29t-0.5 -37q-5 -26 -25.5 -41.5t-49.5 -15.5h-529v-405
h647q19 0 36 -4.5t30 -14.5t20.5 -24.5t7.5 -35.5zM544 1399q-40 0 -75 14t-61.5 39t-42 58.5t-15.5 71.5q0 26 17 44.5t43 18.5q20 0 29.5 -9.5t15 -24.5t9.5 -31.5t12 -31.5t23.5 -24.5t44.5 -9.5t45 9.5t24.5 24.5t12.5 31.5t9.5 31.5t15 24.5t29.5 9.5q26 0 43 -18
t17 -44q0 -39 -16 -72.5t-43 -58.5t-62.5 -39t-74.5 -14z" />
    <glyph glyph-name="Edotaccent" unicode="&#x116;" horiz-adv-x="1063" 
d="M1028 74q0 -38 -27.5 -58.5t-63.5 -20.5h-704q-53 0 -78 28t-25 79v1074q-1 14 -5 29.5t-4 29.5q0 15 10 24.5t40 9.5h770q42 0 63 -24t21 -52.5t-20.5 -52.5t-61.5 -24h-656v-409h527q18 0 34 -7t27.5 -19t16 -29t-0.5 -37q-5 -26 -25.5 -41.5t-49.5 -15.5h-529v-405
h647q19 0 36 -4.5t30 -14.5t20.5 -24.5t7.5 -35.5zM470 1491q0 38 26 65t65 27q19 0 36 -7t29.5 -19.5t19.5 -29.5t7 -36q0 -38 -27 -64t-65 -26q-39 0 -65 26t-26 64z" />
    <glyph glyph-name="Emacron" unicode="&#x112;" horiz-adv-x="1063" 
d="M1028 74q0 -38 -27.5 -58.5t-63.5 -20.5h-704q-53 0 -78 28t-25 79v1074q-1 14 -5 29.5t-4 29.5q0 15 10 24.5t40 9.5h770q42 0 63 -24t21 -52.5t-20.5 -52.5t-61.5 -24h-656v-409h527q18 0 34 -7t27.5 -19t16 -29t-0.5 -37q-5 -26 -25.5 -41.5t-49.5 -15.5h-529v-405
h647q19 0 36 -4.5t30 -14.5t20.5 -24.5t7.5 -35.5zM826 1484q24 0 41 -18t17 -44q0 -24 -17 -42.5t-41 -18.5h-562q-24 0 -41 18.5t-17 42.5q0 26 17 44t41 18h562z" />
    <glyph glyph-name="Eogonek" unicode="&#x118;" horiz-adv-x="1063" 
d="M1028 74q0 -38 -27.5 -58.5t-63.5 -20.5h-704q-53 0 -78 28t-25 79v1074q-1 14 -5 29.5t-4 29.5q0 15 10 24.5t40 9.5h770q42 0 63 -24t21 -52.5t-20.5 -52.5t-61.5 -24h-656v-409h527q18 0 34 -7t27.5 -19t16 -29t-0.5 -37q-5 -26 -25.5 -41.5t-49.5 -15.5h-529v-405
h647q19 0 36 -4.5t30 -14.5t20.5 -24.5t7.5 -35.5zM896 85q19 17 40.5 14t35.5 -17t15.5 -35t-19.5 -40l-57 -52l-30.5 -26.5t-24 -22.5t-16 -22.5t-5.5 -25.5q0 -19 12 -33.5t35 -14.5q16 0 24.5 7.5t13.5 18t9 23.5t10 23.5t16.5 18t28.5 7.5q21 0 37.5 -14.5t16.5 -37.5
q0 -33 -12.5 -62t-34 -50.5t-50.5 -33.5t-62 -12q-35 0 -64.5 12t-51 33.5t-34 50.5t-12.5 62q0 29 12 54.5t35 52t56 56z" />
    <glyph glyph-name="Hbar" unicode="&#x126;" horiz-adv-x="1267" 
d="M1180 1009q24 0 41 -18t17 -43q0 -24 -17 -43t-41 -19h-1081q-24 0 -41 19t-17 43q0 25 17 43t41 18h1081zM1149 84q0 -38 -22 -63.5t-57 -25.5q-38 0 -58.5 27t-20.5 62v460h-705v-461q0 -33 -19.5 -60.5t-59.5 -27.5t-59.5 27.5t-19.5 60.5v1104q0 12 -3.5 25t-3.5 25
q0 14 9.5 23t46.5 9q56 0 82.5 -20.5t26.5 -58.5v-489h705v486q0 12 -3.5 25t-3.5 25q0 14 12 23t49 9q22 0 41 -4t33 -13.5t22 -24.5t8 -37v-1106z" />
    <glyph glyph-name="Hcircumflex" unicode="&#x124;" horiz-adv-x="1267" 
d="M1149 84q0 -38 -22 -63.5t-57 -25.5q-38 0 -58.5 27t-20.5 62v460h-705v-461q0 -33 -19.5 -60.5t-59.5 -27.5t-59.5 27.5t-19.5 60.5v1104q0 12 -3.5 25t-3.5 25q0 14 9.5 23t46.5 9q56 0 82.5 -20.5t26.5 -58.5v-489h705v486q0 12 -3.5 25t-3.5 25q0 14 12 23t49 9
q22 0 41 -4t33 -13.5t22 -24.5t8 -37v-1106zM582 1643q17 18 39.5 19.5t40.5 -12.5l167 -163q22 -22 27 -48.5t-15 -47.5q-22 -22 -50.5 -14.5t-56.5 36.5l-109 109l-107 -108q-29 -29 -57 -37.5t-51 14.5q-14 14 -15.5 29.5t4.5 30.5t17.5 29t23.5 26z" />
    <glyph glyph-name="Gdotaccent" unicode="&#x120;" horiz-adv-x="1302" 
d="M688 149q66 0 127.5 28.5t111 75t83 106t45.5 121.5q19 19 38 23t34.5 -3.5t26.5 -24t14 -37t-4.5 -44t-27.5 -44.5q-7 -31 -26 -69.5t-48 -78t-68 -76.5t-87 -66.5t-104 -47t-118 -17.5q-132 0 -246 50t-198.5 136.5t-132.5 202t-48 247.5q0 131 50 247t136.5 202.5
t202.5 137t248 50.5q79 0 144 -14t121 -41.5t107 -68.5t103 -96q23 -25 23 -55q0 -26 -16 -46t-39 -26q-17 -5 -35.5 -3t-34.5 15q-43 40 -84 72.5t-85.5 56t-94 36.5t-109.5 13q-99 0 -186.5 -38t-152.5 -103t-102.5 -153t-37.5 -187q0 -101 36 -189t99.5 -153t149.5 -102
t185 -37zM1053 419h-252q-34 0 -53.5 21t-21.5 44q-1 12 3.5 25t14.5 23t24.5 16.5t33.5 6.5h357q29 -2 46.5 -19.5t17.5 -55.5v-417q0 -29 -19 -48t-49 -19q-31 0 -48.5 20t-17.5 51v352h-36zM579 1490q0 38 26 65t65 27q19 0 36 -7t29.5 -19.5t19.5 -29.5t7 -36
q0 -38 -27 -64t-65 -26q-39 0 -65 26t-26 64z" />
    <glyph glyph-name="Gcommaaccent" unicode="&#x122;" horiz-adv-x="1302" 
d="M688 149q66 0 127.5 28.5t111 75t83 106t45.5 121.5q19 19 38 23t34.5 -3.5t26.5 -24t14 -37t-4.5 -44t-27.5 -44.5q-7 -31 -26 -69.5t-48 -78t-68 -76.5t-87 -66.5t-104 -47t-118 -17.5q-132 0 -246 50t-198.5 136.5t-132.5 202t-48 247.5q0 131 50 247t136.5 202.5
t202.5 137t248 50.5q79 0 144 -14t121 -41.5t107 -68.5t103 -96q23 -25 23 -55q0 -26 -16 -46t-39 -26q-17 -5 -35.5 -3t-34.5 15q-43 40 -84 72.5t-85.5 56t-94 36.5t-109.5 13q-99 0 -186.5 -38t-152.5 -103t-102.5 -153t-37.5 -187q0 -101 36 -189t99.5 -153t149.5 -102
t185 -37zM1053 419h-252q-34 0 -53.5 21t-21.5 44q-1 12 3.5 25t14.5 23t24.5 16.5t33.5 6.5h357q29 -2 46.5 -19.5t17.5 -55.5v-417q0 -29 -19 -48t-49 -19q-31 0 -48.5 20t-17.5 51v352h-36zM677 -149q36 0 62 -25.5t22 -69.5q-11 -46 -30 -80t-40 -57t-42 -34.5
t-35 -12.5q-18 0 -33 16t-17 50q-2 14 2 45.5t11 63.5q3 21 11.5 39.5t21 33t29.5 23t38 8.5z" />
    <glyph glyph-name="Gcircumflex" unicode="&#x11c;" horiz-adv-x="1302" 
d="M688 149q66 0 127.5 28.5t111 75t83 106t45.5 121.5q19 19 38 23t34.5 -3.5t26.5 -24t14 -37t-4.5 -44t-27.5 -44.5q-7 -31 -26 -69.5t-48 -78t-68 -76.5t-87 -66.5t-104 -47t-118 -17.5q-132 0 -246 50t-198.5 136.5t-132.5 202t-48 247.5q0 131 50 247t136.5 202.5
t202.5 137t248 50.5q79 0 144 -14t121 -41.5t107 -68.5t103 -96q23 -25 23 -55q0 -26 -16 -46t-39 -26q-17 -5 -35.5 -3t-34.5 15q-43 40 -84 72.5t-85.5 56t-94 36.5t-109.5 13q-99 0 -186.5 -38t-152.5 -103t-102.5 -153t-37.5 -187q0 -101 36 -189t99.5 -153t149.5 -102
t185 -37zM1053 419h-252q-34 0 -53.5 21t-21.5 44q-1 12 3.5 25t14.5 23t24.5 16.5t33.5 6.5h357q29 -2 46.5 -19.5t17.5 -55.5v-417q0 -29 -19 -48t-49 -19q-31 0 -48.5 20t-17.5 51v352h-36zM641 1633q17 18 39.5 19.5t40.5 -12.5l167 -163q22 -22 27 -48.5t-15 -47.5
q-22 -22 -50.5 -14.5t-56.5 36.5l-109 109l-107 -108q-29 -29 -57 -37.5t-51 14.5q-14 14 -15.5 29.5t4.5 30.5t17.5 29t23.5 26z" />
    <glyph glyph-name="aogonek" unicode="&#x105;" horiz-adv-x="1162" 
d="M949 72q19 17 40.5 14t35.5 -17t15.5 -35t-19.5 -40l-57 -52l-30.5 -26.5t-24 -22.5t-16 -22.5t-5.5 -25.5q0 -19 12 -33.5t35 -14.5q16 0 24.5 7.5t13.5 18t9 23.5t10 23.5t16.5 18t28.5 7.5q21 0 37.5 -14.5t16.5 -37.5q0 -33 -12.5 -62t-34 -50.5t-50.5 -33.5t-62 -12
q-35 0 -64.5 12t-51 33.5t-34 50.5t-12.5 62q0 29 12 54.5t35 52t56 56zM1041 54q0 -29 -15 -45t-40 -16q-28 0 -45.5 16.5t-23.5 45.5l-21 165l-13 25v234q0 33 23.5 56t55.5 23q35 0 57 -23t22 -56v-425zM1001 482q0 -101 -32.5 -190t-91.5 -155.5t-141.5 -105
t-183.5 -38.5t-189.5 38.5t-155.5 105t-105.5 155.5t-38.5 190t38.5 190t105.5 155.5t155.5 105t189.5 38.5t183.5 -38.5t141.5 -105t91.5 -155.5t32.5 -190zM880 482q0 70 -25.5 131.5t-69.5 107.5t-104 72.5t-129 26.5t-129 -26.5t-104 -72.5t-69.5 -107.5t-25.5 -131.5
q0 -69 25.5 -130.5t69.5 -107.5t104 -73t129 -27t129 27t104 73t69.5 107.5t25.5 130.5zM1041 435q0 -33 -22 -56t-57 -23q-32 0 -55.5 23t-23.5 56v284l13 25l21 108q6 67 30 92.5t52 25.5q42 0 42 -42v-493z" />
    <glyph glyph-name="ubreve" unicode="&#x16d;" 
d="M274 485q0 -69 23.5 -130.5t65.5 -107.5t100 -73t126 -27t131 28t111 75.5t77 109t29 128.5l42 -270q-24 -39 -65 -79t-94 -71.5t-116 -51.5t-130 -20q-101 0 -185 38.5t-144.5 104.5t-94.5 155t-34 190v409q0 14 5.5 28t15.5 25.5t24.5 19t32.5 7.5q34 0 57 -23.5
t23 -56.5v-408zM1094 37q0 -42 -42 -42q-14 0 -27 5.5t-24.5 19t-19.5 36t-11 57.5l-21 183l-12 25v573q0 33 23 56t55 23q35 0 57 -23t22 -56v-857zM603 1078q-40 0 -75 14t-61.5 39t-42 58.5t-15.5 71.5q0 26 17 44.5t43 18.5q20 0 29.5 -9.5t15 -24.5t9.5 -31.5t12 -31.5
t23.5 -24.5t44.5 -9.5t45 9.5t24.5 24.5t12.5 31.5t9.5 31.5t15 24.5t29.5 9.5q26 0 43 -18t17 -44q0 -39 -16 -72.5t-43 -58.5t-62.5 -39t-74.5 -14z" />
    <glyph glyph-name="umacron" unicode="&#x16b;" 
d="M274 485q0 -69 23.5 -130.5t65.5 -107.5t100 -73t126 -27t131 28t111 75.5t77 109t29 128.5l42 -270q-24 -39 -65 -79t-94 -71.5t-116 -51.5t-130 -20q-101 0 -185 38.5t-144.5 104.5t-94.5 155t-34 190v409q0 14 5.5 28t15.5 25.5t24.5 19t32.5 7.5q34 0 57 -23.5
t23 -56.5v-408zM1094 37q0 -42 -42 -42q-14 0 -27 5.5t-24.5 19t-19.5 36t-11 57.5l-21 183l-12 25v573q0 33 23 56t55 23q35 0 57 -23t22 -56v-857zM889 1216q24 0 41 -18t17 -44q0 -24 -17 -42.5t-41 -18.5h-562q-24 0 -41 18.5t-17 42.5q0 26 17 44t41 18h562z" />
    <glyph glyph-name="uhungarumlaut" unicode="&#x171;" 
d="M274 485q0 -69 23.5 -130.5t65.5 -107.5t100 -73t126 -27t131 28t111 75.5t77 109t29 128.5l42 -270q-24 -39 -65 -79t-94 -71.5t-116 -51.5t-130 -20q-101 0 -185 38.5t-144.5 104.5t-94.5 155t-34 190v409q0 14 5.5 28t15.5 25.5t24.5 19t32.5 7.5q34 0 57 -23.5
t23 -56.5v-408zM1094 37q0 -42 -42 -42q-14 0 -27 5.5t-24.5 19t-19.5 36t-11 57.5l-21 183l-12 25v573q0 33 23 56t55 23q35 0 57 -23t22 -56v-857zM866 1309q16 0 30 -6.5t24 -17.5t14.5 -25.5t2.5 -31.5q-2 -23 -23 -46.5t-47.5 -42.5t-51.5 -31t-35 -13q-18 -5 -36 3
q-14 4 -22.5 14.5t-10.5 25.5q-2 6 -0.5 13.5t3.5 14.5q1 8 14 31.5t34 48t48 44t56 19.5zM499 1309q16 0 29.5 -6.5t23.5 -17.5t14.5 -25.5t2.5 -31.5q-2 -23 -23 -46.5t-47.5 -42.5t-51.5 -31t-35 -13q-18 -5 -35 3q-29 8 -34 40q-1 6 0 13.5t3 14.5q1 8 14 31.5t34 48
t48 44t57 19.5z" />
    <glyph glyph-name="ohungarumlaut" unicode="&#x151;" horiz-adv-x="1099" 
d="M60 484q0 100 38.5 189t105.5 156t155.5 105.5t189.5 38.5t190 -38.5t155.5 -105.5t105 -156t38.5 -189q0 -101 -38.5 -190t-105 -155.5t-155.5 -105t-190 -38.5t-189.5 38.5t-155.5 105t-105.5 155.5t-38.5 190zM221 484q0 -70 25.5 -131.5t69.5 -107.5t104 -72.5
t129 -26.5t129 26.5t104 72.5t69.5 107.5t25.5 131.5q0 69 -25.5 130.5t-69.5 107.5t-104 72.5t-129 26.5t-129 -26.5t-104 -72.5t-69.5 -107.5t-25.5 -130.5zM828 1305q16 0 30 -6.5t24 -17.5t14.5 -25.5t2.5 -31.5q-2 -23 -23 -46.5t-47.5 -42.5t-51.5 -31t-35 -13
q-18 -5 -36 3q-14 4 -22.5 14.5t-10.5 25.5q-2 6 -0.5 13.5t3.5 14.5q1 8 14 31.5t34 48t48 44t56 19.5zM461 1305q16 0 29.5 -6.5t23.5 -17.5t14.5 -25.5t2.5 -31.5q-2 -23 -23 -46.5t-47.5 -42.5t-51.5 -31t-35 -13q-18 -5 -35 3q-29 8 -34 40q-1 6 0 13.5t3 14.5
q1 8 14 31.5t34 48t48 44t57 19.5z" />
    <glyph glyph-name="obreve" unicode="&#x14f;" horiz-adv-x="1099" 
d="M60 484q0 100 38.5 189t105.5 156t155.5 105.5t189.5 38.5t190 -38.5t155.5 -105.5t105 -156t38.5 -189q0 -101 -38.5 -190t-105 -155.5t-155.5 -105t-190 -38.5t-189.5 38.5t-155.5 105t-105.5 155.5t-38.5 190zM221 484q0 -70 25.5 -131.5t69.5 -107.5t104 -72.5
t129 -26.5t129 26.5t104 72.5t69.5 107.5t25.5 131.5q0 69 -25.5 130.5t-69.5 107.5t-104 72.5t-129 26.5t-129 -26.5t-104 -72.5t-69.5 -107.5t-25.5 -130.5zM551 1096q-40 0 -75 14t-61.5 39t-42 58.5t-15.5 71.5q0 26 17 44.5t43 18.5q20 0 29.5 -9.5t15 -24.5t9.5 -31.5
t12 -31.5t23.5 -24.5t44.5 -9.5t45 9.5t24.5 24.5t12.5 31.5t9.5 31.5t15 24.5t29.5 9.5q26 0 43 -18t17 -44q0 -39 -16 -72.5t-43 -58.5t-62.5 -39t-74.5 -14z" />
    <glyph glyph-name="ycircumflex" unicode="&#x177;" horiz-adv-x="954" 
d="M395 60l-15 34.5l-39.5 90.5l-55.5 127l-63 145l-173 394q-14 35 -10 68t41 50q31 14 65 1.5t51 -56.5l282 -693l117 287l89 219l57 141.5l22 55.5q6 13 16 24.5t24 19t31 9t37 -7.5q11 -5 21.5 -14.5t17 -23.5t7 -31t-8.5 -37l-399 -924q-22 -52 -45.5 -94.5t-56 -74
t-79 -50t-115.5 -21.5q-36 -1 -64 17.5t-28 59.5q0 22 11.5 34t30.5 19.5t43 13.5t48.5 16t47 27t39.5 47zM457 1320q17 18 39.5 19.5t40.5 -12.5l167 -163q22 -22 27 -48.5t-15 -47.5q-22 -22 -50.5 -14.5t-56.5 36.5l-109 109l-107 -108q-29 -29 -57 -37.5t-51 14.5
q-14 14 -15.5 29.5t4.5 30.5t17.5 29t23.5 26z" />
    <glyph glyph-name="dcaron" unicode="&#x10f;" horiz-adv-x="1159" 
d="M880 1203q0 33 23.5 56t55.5 23q35 0 57 -23t22 -56v-1168q0 -20 -11 -31t-31 -11q-14 0 -27.5 6t-24.5 19.5t-19 36t-11 56.5l-21 109l-13 25v958zM992 482q0 -101 -33 -190t-92.5 -155.5t-143 -105t-184.5 -38.5t-188.5 38.5t-152 105t-101.5 155.5t-37 190t37 190
t101.5 155.5t152 105t188.5 38.5q92 0 174.5 -38.5t144.5 -105t98 -155.5t36 -190zM880 482q0 70 -26 131.5t-70.5 107.5t-105 72.5t-129.5 26.5t-129 -26.5t-104 -72.5t-69.5 -107.5t-25.5 -131.5q0 -69 25.5 -130.5t69.5 -107.5t104 -73t129 -27t129.5 27t105 73
t70.5 107.5t26 130.5zM332 1230q-11 12 -22.5 26t-18 29t-5 30.5t15.5 29.5q23 23 51.5 14.5t56.5 -37.5l108 -108l108 109q28 29 56.5 36.5t50.5 -14.5q20 -21 15 -47.5t-26 -48.5l-168 -163q-18 -14 -40 -12.5t-40 19.5z" />
    <glyph glyph-name="abreve" unicode="&#x103;" horiz-adv-x="1162" 
d="M576 1103q-40 0 -75 14t-61.5 39t-42 58.5t-15.5 71.5q0 26 17 44.5t43 18.5q20 0 29.5 -9.5t15 -24.5t9.5 -31.5t12 -31.5t23.5 -24.5t44.5 -9.5t45 9.5t24.5 24.5t12.5 31.5t9.5 31.5t15 24.5t29.5 9.5q26 0 43 -18t17 -44q0 -39 -16 -72.5t-43 -58.5t-62.5 -39
t-74.5 -14zM1041 54q0 -29 -15 -45t-40 -16q-28 0 -45.5 16.5t-23.5 45.5l-21 165l-13 25v234q0 33 23.5 56t55.5 23q35 0 57 -23t22 -56v-425zM1001 482q0 -101 -32.5 -190t-91.5 -155.5t-141.5 -105t-183.5 -38.5t-189.5 38.5t-155.5 105t-105.5 155.5t-38.5 190t38.5 190
t105.5 155.5t155.5 105t189.5 38.5t183.5 -38.5t141.5 -105t91.5 -155.5t32.5 -190zM880 482q0 70 -25.5 131.5t-69.5 107.5t-104 72.5t-129 26.5t-129 -26.5t-104 -72.5t-69.5 -107.5t-25.5 -131.5q0 -69 25.5 -130.5t69.5 -107.5t104 -73t129 -27t129 27t104 73
t69.5 107.5t25.5 130.5zM1041 435q0 -33 -22 -56t-57 -23q-32 0 -55.5 23t-23.5 56v284l13 25l21 108q6 67 30 92.5t52 25.5q42 0 42 -42v-493z" />
    <glyph glyph-name="macron" unicode="&#xaf;" horiz-adv-x="922" 
d="M740 499q24 0 41 -18t17 -44q0 -24 -17 -42.5t-41 -18.5h-562q-24 0 -41 18.5t-17 42.5q0 26 17 44t41 18h562z" />
    <glyph glyph-name="ring" unicode="&#x2da;" horiz-adv-x="1099" 
d="M350 1255q0 31 12 58.5t32 48t47.5 32.5t58.5 12t58.5 -12t48.5 -32.5t33 -48t12 -58.5t-12 -58.5t-33 -48t-48.5 -32.5t-58.5 -12t-58.5 12t-47.5 32.5t-32 48t-12 58.5zM439 1255q0 -27 18 -45.5t44 -18.5t43.5 18.5t17.5 45.5q0 26 -17.5 45t-43.5 19t-44 -19t-18 -45
z" />
    <glyph glyph-name="Racute.smallalt" horiz-adv-x="0" 
 />
    <glyph glyph-name="Ibreve" unicode="&#x12c;" horiz-adv-x="407" 
d="M286 80q0 -15 -5 -30.5t-15 -27.5t-25 -19.5t-34 -7.5q-20 0 -35 8.5t-25 21t-14.5 27.5t-4.5 28v1105q0 13 -3.5 25.5t-3.5 24.5q0 15 12 24t49 9q45 0 73.5 -18t30.5 -62v-1108zM204 1396q-40 0 -75 14t-61.5 39t-42 58.5t-15.5 71.5q0 26 17 44.5t43 18.5
q20 0 29.5 -9.5t15 -24.5t9.5 -31.5t12 -31.5t23.5 -24.5t44.5 -9.5t45 9.5t24.5 24.5t12.5 31.5t9.5 31.5t15 24.5t29.5 9.5q26 0 43 -18t17 -44q0 -39 -16 -72.5t-43 -58.5t-62.5 -39t-74.5 -14z" />
    <glyph glyph-name="Idotaccent" unicode="&#x130;" horiz-adv-x="407" 
d="M286 80q0 -15 -5 -30.5t-15 -27.5t-25 -19.5t-34 -7.5q-20 0 -35 8.5t-25 21t-14.5 27.5t-4.5 28v1105q0 13 -3.5 25.5t-3.5 24.5q0 15 12 24t49 9q45 0 73.5 -18t30.5 -62v-1108zM108 1493q0 38 26 65t65 27q19 0 36 -7t29.5 -19.5t19.5 -29.5t7 -36q0 -38 -27 -64
t-65 -26q-39 0 -65 26t-26 64z" />
    <glyph glyph-name="Imacron" unicode="&#x12a;" horiz-adv-x="407" 
d="M286 80q0 -15 -5 -30.5t-15 -27.5t-25 -19.5t-34 -7.5q-20 0 -35 8.5t-25 21t-14.5 27.5t-4.5 28v1105q0 13 -3.5 25.5t-3.5 24.5q0 15 12 24t49 9q45 0 73.5 -18t30.5 -62v-1108zM475 1525q24 0 41 -18t17 -44q0 -24 -17 -42.5t-41 -18.5h-562q-24 0 -41 18.5t-17 42.5
q0 26 17 44t41 18h562z" />
    <glyph glyph-name="Iogonek" unicode="&#x12e;" horiz-adv-x="407" 
d="M286 80q0 -15 -5 -30.5t-15 -27.5t-25 -19.5t-34 -7.5q-20 0 -35 8.5t-25 21t-14.5 27.5t-4.5 28v1105q0 13 -3.5 25.5t-3.5 24.5q0 15 12 24t49 9q45 0 73.5 -18t30.5 -62v-1108zM183 89q19 17 40.5 14t35.5 -17t15.5 -35t-19.5 -40l-57 -52l-30.5 -26.5t-24 -22.5
t-16 -22.5t-5.5 -25.5q0 -19 12 -33.5t35 -14.5q16 0 24.5 7.5t13.5 18t9 23.5t10 23.5t16.5 18t28.5 7.5q21 0 37.5 -14.5t16.5 -37.5q0 -33 -12.5 -62t-34 -50.5t-50.5 -33.5t-62 -12q-35 0 -64.5 12t-51 33.5t-34 50.5t-12.5 62q0 29 12 54.5t35 52t56 56z" />
    <glyph glyph-name="Itilde" unicode="&#x128;" horiz-adv-x="407" 
d="M286 80q0 -15 -5 -30.5t-15 -27.5t-25 -19.5t-34 -7.5q-20 0 -35 8.5t-25 21t-14.5 27.5t-4.5 28v1105q0 13 -3.5 25.5t-3.5 24.5q0 15 12 24t49 9q45 0 73.5 -18t30.5 -62v-1108zM385 1579q10 10 27 10t29.5 -10t17 -28t-8.5 -43q-25 -49 -65 -76.5t-96 -27.5
q-29 0 -49 8.5t-35.5 21t-27.5 27.5t-25 27.5t-28 21t-36 8.5q-26 0 -41 -10.5t-25.5 -24t-20.5 -25t-25 -12.5q-9 -2 -19 2q-16 4 -22.5 15t-7.5 24t3.5 27t10.5 25q26 46 64 69q10 7 19.5 11t20.5 7q19 6 42 6q33 0 55.5 -8.5t38.5 -21t28 -27.5t24 -27.5t26.5 -21
t35.5 -8.5q12 0 21.5 5t19 13t21 19.5t28.5 23.5z" />
    <glyph glyph-name="Dcroat" unicode="&#x110;" horiz-adv-x="1253" 
d="M241 -5q-29 0 -50 18t-27 45q-1 4 -1.5 7.5t-0.5 8.5v1113q0 12 -3.5 25t-3.5 25q0 14 12 23t49 9h339q87 0 168.5 -23t152.5 -64.5t129.5 -100t100 -129.5t64.5 -152.5t23 -168.5q0 -88 -23 -169t-64.5 -152t-100 -129t-129.5 -99.5t-152.5 -64t-168.5 -22.5h-314z
M1035 631q0 102 -38 190.5t-103.5 154t-153 103.5t-185.5 39h-235v-967h235q98 1 185.5 38.5t153 102t103.5 151.5t38 188zM626 703q24 0 41 -18t17 -44q0 -24 -17 -42.5t-41 -18.5h-562q-24 0 -41 18.5t-17 42.5q0 26 17 44t41 18h562z" />
    <glyph glyph-name="Gbreve" unicode="&#x11e;" horiz-adv-x="1302" 
d="M688 149q66 0 127.5 28.5t111 75t83 106t45.5 121.5q19 19 38 23t34.5 -3.5t26.5 -24t14 -37t-4.5 -44t-27.5 -44.5q-7 -31 -26 -69.5t-48 -78t-68 -76.5t-87 -66.5t-104 -47t-118 -17.5q-132 0 -246 50t-198.5 136.5t-132.5 202t-48 247.5q0 131 50 247t136.5 202.5
t202.5 137t248 50.5q79 0 144 -14t121 -41.5t107 -68.5t103 -96q23 -25 23 -55q0 -26 -16 -46t-39 -26q-17 -5 -35.5 -3t-34.5 15q-43 40 -84 72.5t-85.5 56t-94 36.5t-109.5 13q-99 0 -186.5 -38t-152.5 -103t-102.5 -153t-37.5 -187q0 -101 36 -189t99.5 -153t149.5 -102
t185 -37zM1053 419h-252q-34 0 -53.5 21t-21.5 44q-1 12 3.5 25t14.5 23t24.5 16.5t33.5 6.5h357q29 -2 46.5 -19.5t17.5 -55.5v-417q0 -29 -19 -48t-49 -19q-31 0 -48.5 20t-17.5 51v352h-36zM689 1390q-40 0 -75 14t-61.5 39t-42 58.5t-15.5 71.5q0 26 17 44.5t43 18.5
q20 0 29.5 -9.5t15 -24.5t9.5 -31.5t12 -31.5t23.5 -24.5t44.5 -9.5t45 9.5t24.5 24.5t12.5 31.5t9.5 31.5t15 24.5t29.5 9.5q26 0 43 -18t17 -44q0 -39 -16 -72.5t-43 -58.5t-62.5 -39t-74.5 -14z" />
    <glyph glyph-name="Wacute" unicode="&#x1e82;" horiz-adv-x="1638" 
d="M758 830q-10 27 -3 54t37 38q27 10 54 -1.5t38 -39.5l274 -753l25 -25q6 -15 5.5 -31t-7 -30t-18 -24.5t-26.5 -16.5q-32 -11 -61 1.5t-41 43.5zM1185 46q-13 -31 -41 -43.5t-60 -1.5q-15 6 -26.5 16.5t-18 24.5t-7.5 30t5 31l25 25l392 1095q5 13 15 20.5t23 9.5
q11 12 28.5 16.5t35.5 -2.5q32 -12 44.5 -41.5t1.5 -59.5zM36 1166q-11 31 1.5 60t44.5 41q30 12 60 -0.5t41 -43.5l392 -1095l25 -25q6 -15 5.5 -31t-7 -30t-18 -24.5t-26.5 -16.5q-32 -11 -61 1.5t-41 43.5zM602 46q-13 -31 -41 -43.5t-60 -1.5q-15 6 -26.5 16.5t-18 24.5
t-7.5 30t5 31l26 25l269 753q10 29 37.5 40.5t55.5 0.5q29 -11 36.5 -38t-3.5 -55zM912 1608q36 0 56 -23.5t15 -57.5q-2 -15 -23 -37.5t-47.5 -43.5t-51.5 -36t-35 -16q-18 -5 -36 3q-14 4 -22.5 14.5t-10.5 25.5q-3 13 2 28q1 8 18 31.5t40.5 48t49 44t45.5 19.5z" />
    <glyph glyph-name="scedilla" unicode="&#x15f;" horiz-adv-x="982" 
d="M460 32h23.5t33 0.5t33 0.5h23.5v-25.5v-36.5t0.5 -33.5t1.5 -16.5q3 -10 14 -15q20 -9 38.5 -24.5t33 -37t22 -49t6.5 -60.5q-3 -31 -16 -57.5t-34 -46t-49 -31t-60 -12.5q-31 -2 -59 8t-49.5 28t-35.5 41.5t-18 50.5q-3 12 -1.5 25t8 23.5t17.5 17t28 6.5
q23 0 33.5 -13.5t18 -30.5t17.5 -31t33 -14q22 0 39 13.5t16 40.5q0 18 -9 29t-21.5 19.5t-27.5 15.5t-28 16.5t-21.5 23t-8.5 35.5zM488 -5q-68 0 -138 16.5t-130 49t-102.5 79.5t-55.5 109q-3 19 3.5 35.5t18.5 26t28.5 11t33.5 -9.5q16 -8 41 -36t64.5 -58.5t95 -56
t132.5 -29.5q57 -1 108 5.5t90 24t62 46.5t23 72q0 33 -28 57.5t-74 44.5t-104.5 38l-119 37.5t-117.5 43.5t-101 56t-69 74.5t-21 99.5q3 45 25 90t66.5 80t113.5 57t166 22q59 0 116 -10.5t106.5 -32t89.5 -55.5t64 -80q8 -21 2 -39.5t-20.5 -29.5t-34 -13.5t-37.5 6.5
q-20 12 -43.5 30t-53.5 35.5t-69.5 31t-92.5 16.5q-112 5 -177.5 -27t-65.5 -101q0 -40 59 -77.5t193 -76.5l138 -42t124.5 -54t90 -78t34.5 -115q0 -75 -37.5 -127t-98.5 -84.5t-139 -47t-159 -14.5z" />
    <glyph glyph-name="scircumflex" unicode="&#x15d;" horiz-adv-x="982" 
d="M457 1328q17 18 39.5 19.5t40.5 -12.5l167 -163q22 -22 27 -48.5t-15 -47.5q-22 -22 -50.5 -14.5t-56.5 36.5l-109 109l-107 -108q-29 -29 -57 -37.5t-51 14.5q-14 14 -15.5 29.5t4.5 30.5t17.5 29t23.5 26zM488 -5q-68 0 -138 16.5t-130 49t-102.5 79.5t-55.5 109
q-3 19 3.5 35.5t18.5 26t28.5 11t33.5 -9.5q16 -8 41 -36t64.5 -58.5t95 -56t132.5 -29.5q57 -1 108 5.5t90 24t62 46.5t23 72q0 33 -28 57.5t-74 44.5t-104.5 38l-119 37.5t-117.5 43.5t-101 56t-69 74.5t-21 99.5q3 45 25 90t66.5 80t113.5 57t166 22q59 0 116 -10.5
t106.5 -32t89.5 -55.5t64 -80q8 -21 2 -39.5t-20.5 -29.5t-34 -13.5t-37.5 6.5q-20 12 -43.5 30t-53.5 35.5t-69.5 31t-92.5 16.5q-112 5 -177.5 -27t-65.5 -101q0 -40 59 -77.5t193 -76.5l138 -42t124.5 -54t90 -78t34.5 -115q0 -75 -37.5 -127t-98.5 -84.5t-139 -47
t-159 -14.5z" />
    <glyph glyph-name="scommaaccent" unicode="&#x219;" horiz-adv-x="982" 
d="M527 -90q36 0 62 -25.5t22 -69.5q-11 -46 -30 -80t-40 -57t-42 -34.5t-35 -12.5q-18 0 -33 16t-17 50q-2 14 2 45.5t11 63.5q3 21 11.5 39.5t21 33t29.5 23t38 8.5zM488 -5q-68 0 -138 16.5t-130 49t-102.5 79.5t-55.5 109q-3 19 3.5 35.5t18.5 26t28.5 11t33.5 -9.5
q16 -8 41 -36t64.5 -58.5t95 -56t132.5 -29.5q57 -1 108 5.5t90 24t62 46.5t23 72q0 33 -28 57.5t-74 44.5t-104.5 38l-119 37.5t-117.5 43.5t-101 56t-69 74.5t-21 99.5q3 45 25 90t66.5 80t113.5 57t166 22q59 0 116 -10.5t106.5 -32t89.5 -55.5t64 -80q8 -21 2 -39.5
t-20.5 -29.5t-34 -13.5t-37.5 6.5q-20 12 -43.5 30t-53.5 35.5t-69.5 31t-92.5 16.5q-112 5 -177.5 -27t-65.5 -101q0 -40 59 -77.5t193 -76.5l138 -42t124.5 -54t90 -78t34.5 -115q0 -75 -37.5 -127t-98.5 -84.5t-139 -47t-159 -14.5z" />
    <glyph glyph-name="oslashacute" unicode="&#x1ff;" horiz-adv-x="1098" 
d="M638 1363q36 0 56 -23.5t15 -57.5q-2 -15 -23 -37.5t-47.5 -43.5t-51.5 -36t-35 -16q-18 -5 -36 3q-14 4 -22.5 14.5t-10.5 25.5q-3 13 2 28q1 8 18 31.5t40.5 48t49 44t45.5 19.5zM63 526q9 100 55.5 185t118.5 145.5t164 91t192 21.5q59 -8 113 -30l19.5 35.5t25.5 44
t29.5 43t31.5 33.5q13 11 28 17t35 1q27 -8 43 -30t13 -45q-1 -6 -3 -12.5t-10 -23t-24.5 -48l-47.5 -88.5q49 -36 87 -82.5t63 -101.5t35.5 -116.5t4.5 -126.5q-9 -101 -55.5 -186t-118.5 -145t-164 -90.5t-192 -21.5q-66 7 -113 29l-27 -49l-23 -40t-25.5 -39t-29 -29
t-33.5 -9q-20 1 -35.5 9t-25.5 20t-14.5 27t-2.5 31q1 5 5 13.5t12.5 25l22.5 43l37 68.5q-49 36 -87 83t-63.5 102.5t-36 117t-4.5 127.5zM224 518q-8 -69 10.5 -133t57.5 -114.5t95.5 -83.5t125.5 -40q69 -8 131.5 12t111.5 61t80.5 99.5t39.5 127.5q7 69 -11.5 132.5
t-57.5 114t-95.5 83.5t-124.5 41q-69 7 -131.5 -13t-111.5 -60.5t-81 -99t-39 -127.5z" />
    <glyph glyph-name="omacron" unicode="&#x14d;" horiz-adv-x="1099" 
d="M60 484q0 100 38.5 189t105.5 156t155.5 105.5t189.5 38.5t190 -38.5t155.5 -105.5t105 -156t38.5 -189q0 -101 -38.5 -190t-105 -155.5t-155.5 -105t-190 -38.5t-189.5 38.5t-155.5 105t-105.5 155.5t-38.5 190zM221 484q0 -70 25.5 -131.5t69.5 -107.5t104 -72.5
t129 -26.5t129 26.5t104 72.5t69.5 107.5t25.5 131.5q0 69 -25.5 130.5t-69.5 107.5t-104 72.5t-129 26.5t-129 -26.5t-104 -72.5t-69.5 -107.5t-25.5 -130.5zM843 1209q24 0 41 -18t17 -44q0 -24 -17 -42.5t-41 -18.5h-562q-24 0 -41 18.5t-17 42.5q0 26 17 44t41 18h562z
" />
    <glyph glyph-name="nacute" unicode="&#x144;" 
d="M937 482q0 70 -23.5 131.5t-65.5 107.5t-100 72.5t-127 26.5q-68 0 -130.5 -28t-110.5 -75t-77 -109t-29 -129l-43 270q24 39 65 79t94 71.5t115.5 51.5t130.5 20q101 0 185 -38.5t145 -104.5t94.5 -155t33.5 -189v-409q0 -14 -5.5 -28t-15.5 -25.5t-24.5 -19t-32.5 -7.5
q-34 0 -56.5 23t-22.5 57v407zM116 931q0 20 11 31t31 11q14 0 27 -5.5t24.5 -19t19.5 -36.5t11 -57l21 -184l13 -25v-572q0 -33 -23.5 -56t-55.5 -23q-35 0 -57 23t-22 56v857zM721 1339q36 0 56 -23.5t15 -57.5q-2 -15 -23 -37.5t-47.5 -43.5t-51.5 -36t-35 -16
q-18 -5 -36 3q-14 4 -22.5 14.5t-10.5 25.5q-3 13 2 28q1 8 18 31.5t40.5 48t49 44t45.5 19.5z" />
    <glyph glyph-name="napostrophe" unicode="&#x149;" 
d="M138.119 1235.73q31.4531 0 54.1191 -18.9736q22.665 -18.9736 26.3652 -47.665q4.625 -24.0645 -8.32617 -55.5332q-12.9512 -31.4678 -34.6914 -59.6963q-21.7402 -28.2295 -49.0312 -48.1279q-27.29 -19.8994 -52.2686 -19.8994q-24.0527 0 -38.3916 12.4951
q-14.3398 12.4941 -14.3398 42.1113q-0.924805 12.0322 2.31348 31.0059q3.2373 18.9736 9.25098 40.7236q6.0127 21.75 15.7266 43.9629t22.665 39.7979q12.9521 17.5859 29.6035 28.6914q16.6523 11.1074 37.0049 11.1074zM937 482q0 70 -23.5 131.5t-65.5 107.5
t-100 72.5t-127 26.5q-68 0 -130.5 -28t-110.5 -75t-77 -109t-29 -129l-43 270q24 39 65 79t94 71.5t115.5 51.5t130.5 20q101 0 185 -38.5t145 -104.5t94.5 -155t33.5 -189v-409q0 -14 -5.5 -28t-15.5 -25.5t-24.5 -19t-32.5 -7.5q-34 0 -56.5 23t-22.5 57v407zM116 931
q0 20 11 31t31 11q14 0 27 -5.5t24.5 -19t19.5 -36.5t11 -57l21 -184l13 -25v-572q0 -33 -23.5 -56t-55.5 -23q-35 0 -57 23t-22 56v857z" />
    <glyph glyph-name="ncommaaccent" unicode="&#x146;" 
d="M937 482q0 70 -23.5 131.5t-65.5 107.5t-100 72.5t-127 26.5q-68 0 -130.5 -28t-110.5 -75t-77 -109t-29 -129l-43 270q24 39 65 79t94 71.5t115.5 51.5t130.5 20q101 0 185 -38.5t145 -104.5t94.5 -155t33.5 -189v-409q0 -14 -5.5 -28t-15.5 -25.5t-24.5 -19t-32.5 -7.5
q-34 0 -56.5 23t-22.5 57v407zM116 931q0 20 11 31t31 11q14 0 27 -5.5t24.5 -19t19.5 -36.5t11 -57l21 -184l13 -25v-572q0 -33 -23.5 -56t-55.5 -23q-35 0 -57 23t-22 56v857zM633 -102q36 0 62 -25.5t22 -69.5q-11 -46 -30 -80t-40 -57t-42 -34.5t-35 -12.5q-18 0 -33 16
t-17 50q-2 14 2 45.5t11 63.5q3 21 11.5 39.5t21 33t29.5 23t38 8.5z" />
    <glyph glyph-name="ebreve" unicode="&#x115;" horiz-adv-x="1100" 
d="M549 -5q-101 0 -189.5 38.5t-155.5 104.5t-105.5 154.5t-38.5 189.5q0 110 40.5 200.5t109 155t159.5 100t192 35.5t188.5 -37t152 -101.5t101.5 -152.5t37 -190q0 -18 -3 -30t-12 -19t-26.5 -10t-46.5 -3h-729q5 -62 32.5 -116.5t71.5 -95.5t101 -65t122 -24
q61 0 119 21.5t103 63.5q15 10 36 12t39.5 -5.5t32 -23.5t13.5 -41q0 -30 -31.5 -59t-81.5 -51.5t-111 -36.5t-120 -14zM561 840q-65 0 -123 -23t-103.5 -63.5t-75 -94.5t-36.5 -117h657q-5 63 -31.5 117t-69 94.5t-98.5 63.5t-120 23zM580 1095q-40 0 -75 14t-61.5 39
t-42 58.5t-15.5 71.5q0 26 17 44.5t43 18.5q20 0 29.5 -9.5t15 -24.5t9.5 -31.5t12 -31.5t23.5 -24.5t44.5 -9.5t45 9.5t24.5 24.5t12.5 31.5t9.5 31.5t15 24.5t29.5 9.5q26 0 43 -18t17 -44q0 -39 -16 -72.5t-43 -58.5t-62.5 -39t-74.5 -14z" />
    <glyph glyph-name="aeacute" unicode="&#x1fd;" horiz-adv-x="1907" 
d="M1030 54q0 -29 -15 -45t-40 -16q-28 0 -45.5 16.5t-23.5 45.5l-21 165l-13 25v234q0 33 23.5 56t55.5 23q35 0 57 -23t22 -56v-425zM990 482q0 -101 -32.5 -190t-91.5 -155.5t-141.5 -105t-183.5 -38.5t-189.5 38.5t-155.5 105t-105.5 155.5t-38.5 190t38.5 190
t105.5 155.5t155.5 105t189.5 38.5t183.5 -38.5t141.5 -105t91.5 -155.5t32.5 -190zM869 482q0 70 -25.5 131.5t-69.5 107.5t-104 72.5t-129 26.5t-129 -26.5t-104 -72.5t-69.5 -107.5t-25.5 -131.5q0 -69 25.5 -130.5t69.5 -107.5t104 -73t129 -27t129 27t104 73
t69.5 107.5t25.5 130.5zM1030 435q0 -33 -22 -56t-57 -23q-32 0 -55.5 23t-23.5 56v284l13 25l21 108q6 67 30 92.5t52 25.5q42 0 42 -42v-493zM1397 -5q-101 0 -189.5 38.5t-155.5 104.5t-105.5 154.5t-38.5 189.5q0 110 40.5 200.5t109 155t159.5 100t192 35.5t188.5 -37
t152 -101.5t101.5 -152.5t37 -190q0 -18 -3 -30t-12 -19t-26.5 -10t-46.5 -3h-729q5 -62 32.5 -116.5t71.5 -95.5t101 -65t122 -24q61 0 119 21.5t103 63.5q15 10 36 12t39.5 -5.5t32 -23.5t13.5 -41q0 -30 -31.5 -59t-81.5 -51.5t-111 -36.5t-120 -14zM1409 840
q-65 0 -123 -23t-103.5 -63.5t-75 -94.5t-36.5 -117h657q-5 63 -31.5 117t-69 94.5t-98.5 63.5t-120 23zM1060 1321q36 0 56 -23.5t15 -57.5q-2 -15 -23 -37.5t-47.5 -43.5t-51.5 -36t-35 -16q-18 -5 -36 3q-14 4 -22.5 14.5t-10.5 25.5q-3 13 2 28q1 8 18 31.5t40.5 48
t49 44t45.5 19.5z" />
    <glyph glyph-name="amacron" unicode="&#x101;" horiz-adv-x="1162" 
d="M850 1209q24 0 41 -18t17 -44q0 -24 -17 -42.5t-41 -18.5h-562q-24 0 -41 18.5t-17 42.5q0 26 17 44t41 18h562zM1041 54q0 -29 -15 -45t-40 -16q-28 0 -45.5 16.5t-23.5 45.5l-21 165l-13 25v234q0 33 23.5 56t55.5 23q35 0 57 -23t22 -56v-425zM1001 482
q0 -101 -32.5 -190t-91.5 -155.5t-141.5 -105t-183.5 -38.5t-189.5 38.5t-155.5 105t-105.5 155.5t-38.5 190t38.5 190t105.5 155.5t155.5 105t189.5 38.5t183.5 -38.5t141.5 -105t91.5 -155.5t32.5 -190zM880 482q0 70 -25.5 131.5t-69.5 107.5t-104 72.5t-129 26.5
t-129 -26.5t-104 -72.5t-69.5 -107.5t-25.5 -131.5q0 -69 25.5 -130.5t69.5 -107.5t104 -73t129 -27t129 27t104 73t69.5 107.5t25.5 130.5zM1041 435q0 -33 -22 -56t-57 -23q-32 0 -55.5 23t-23.5 56v284l13 25l21 108q6 67 30 92.5t52 25.5q42 0 42 -42v-493z" />
    <glyph glyph-name="gbreve" unicode="&#x11f;" horiz-adv-x="1162" 
d="M592 -233q85 3 144.5 30t95 80.5t49 134t7.5 191.5q-15 -41 -50 -79t-83.5 -67t-107.5 -46.5t-122 -17.5q-101 0 -186 38.5t-147 105t-96.5 155.5t-34.5 190t34.5 190t96.5 155.5t147 105t186 38.5q70 0 133.5 -21t114.5 -53t88 -70t55 -72q4 109 21 162t57 53
q16 0 25 -12.5t13.5 -31.5t5.5 -41t1 -40v-765q0 -108 -35 -193.5t-94.5 -145.5t-139 -91.5t-169.5 -31.5q-38 0 -80.5 5.5t-78 18.5t-59 32.5t-23.5 48.5q0 18 7 31t19 21.5t27.5 11.5t31.5 1l71.5 -15.5t75.5 -5.5zM224 482q0 -69 22.5 -130.5t63.5 -107.5t98 -73t127 -27
q69 0 131.5 27t109.5 73t74.5 107.5t27.5 130.5q0 68 -28.5 129t-76 107.5t-109.5 74t-129 27.5q-70 0 -127 -26.5t-98 -72.5t-63.5 -107.5t-22.5 -131.5zM575 1097q-40 0 -75 14t-61.5 39t-42 58.5t-15.5 71.5q0 26 17 44.5t43 18.5q20 0 29.5 -9.5t15 -24.5t9.5 -31.5
t12 -31.5t23.5 -24.5t44.5 -9.5t45 9.5t24.5 24.5t12.5 31.5t9.5 31.5t15 24.5t29.5 9.5q26 0 43 -18t17 -44q0 -39 -16 -72.5t-43 -58.5t-62.5 -39t-74.5 -14z" />
    <glyph glyph-name="gcircumflex" unicode="&#x11d;" horiz-adv-x="1162" 
d="M592 -233q85 3 144.5 30t95 80.5t49 134t7.5 191.5q-15 -41 -50 -79t-83.5 -67t-107.5 -46.5t-122 -17.5q-101 0 -186 38.5t-147 105t-96.5 155.5t-34.5 190t34.5 190t96.5 155.5t147 105t186 38.5q70 0 133.5 -21t114.5 -53t88 -70t55 -72q4 109 21 162t57 53
q16 0 25 -12.5t13.5 -31.5t5.5 -41t1 -40v-765q0 -108 -35 -193.5t-94.5 -145.5t-139 -91.5t-169.5 -31.5q-38 0 -80.5 5.5t-78 18.5t-59 32.5t-23.5 48.5q0 18 7 31t19 21.5t27.5 11.5t31.5 1l71.5 -15.5t75.5 -5.5zM224 482q0 -69 22.5 -130.5t63.5 -107.5t98 -73t127 -27
q69 0 131.5 27t109.5 73t74.5 107.5t27.5 130.5q0 68 -28.5 129t-76 107.5t-109.5 74t-129 27.5q-70 0 -127 -26.5t-98 -72.5t-63.5 -107.5t-22.5 -131.5zM520 1343q17 18 39.5 19.5t40.5 -12.5l167 -163q22 -22 27 -48.5t-15 -47.5q-22 -22 -50.5 -14.5t-56.5 36.5
l-109 109l-107 -108q-29 -29 -57 -37.5t-51 14.5q-14 14 -15.5 29.5t4.5 30.5t17.5 29t23.5 26z" />
    <glyph glyph-name="gcommaaccent" unicode="&#x123;" horiz-adv-x="1162" 
d="M552.01 1103.01q-35.998 0 -61.9961 25.499q-25.998 25.498 -21.998 69.4951q10.999 45.9971 29.998 79.9951q18.998 33.998 39.9971 56.9971q20.999 22.998 41.9971 34.498q20.999 11.499 34.998 12.499q17.999 0 32.998 -15.999t16.999 -49.9971q2 -13.999 -2 -45.4971
q-3.99902 -31.498 -10.999 -63.4961q-3 -20.999 -11.499 -39.498q-8.5 -18.499 -20.999 -32.998t-29.498 -22.998q-16.999 -8.5 -37.998 -8.5zM592 -233q85 3 144.5 30t95 80.5t49 134t7.5 191.5q-15 -41 -50 -79t-83.5 -67t-107.5 -46.5t-122 -17.5q-101 0 -186 38.5
t-147 105t-96.5 155.5t-34.5 190t34.5 190t96.5 155.5t147 105t186 38.5q70 0 133.5 -21t114.5 -53t88 -70t55 -72q4 109 21 162t57 53q16 0 25 -12.5t13.5 -31.5t5.5 -41t1 -40v-765q0 -108 -35 -193.5t-94.5 -145.5t-139 -91.5t-169.5 -31.5q-38 0 -80.5 5.5t-78 18.5
t-59 32.5t-23.5 48.5q0 18 7 31t19 21.5t27.5 11.5t31.5 1l71.5 -15.5t75.5 -5.5zM224 482q0 -69 22.5 -130.5t63.5 -107.5t98 -73t127 -27q69 0 131.5 27t109.5 73t74.5 107.5t27.5 130.5q0 68 -28.5 129t-76 107.5t-109.5 74t-129 27.5q-70 0 -127 -26.5t-98 -72.5
t-63.5 -107.5t-22.5 -131.5z" />
    <glyph glyph-name="gdotaccent" unicode="&#x121;" horiz-adv-x="1162" 
d="M592 -233q85 3 144.5 30t95 80.5t49 134t7.5 191.5q-15 -41 -50 -79t-83.5 -67t-107.5 -46.5t-122 -17.5q-101 0 -186 38.5t-147 105t-96.5 155.5t-34.5 190t34.5 190t96.5 155.5t147 105t186 38.5q70 0 133.5 -21t114.5 -53t88 -70t55 -72q4 109 21 162t57 53
q16 0 25 -12.5t13.5 -31.5t5.5 -41t1 -40v-765q0 -108 -35 -193.5t-94.5 -145.5t-139 -91.5t-169.5 -31.5q-38 0 -80.5 5.5t-78 18.5t-59 32.5t-23.5 48.5q0 18 7 31t19 21.5t27.5 11.5t31.5 1l71.5 -15.5t75.5 -5.5zM224 482q0 -69 22.5 -130.5t63.5 -107.5t98 -73t127 -27
q69 0 131.5 27t109.5 73t74.5 107.5t27.5 130.5q0 68 -28.5 129t-76 107.5t-109.5 74t-129 27.5q-70 0 -127 -26.5t-98 -72.5t-63.5 -107.5t-22.5 -131.5zM483 1185q0 38 26 65t65 27q19 0 36 -7t29.5 -19.5t19.5 -29.5t7 -36q0 -38 -27 -64t-65 -26q-39 0 -65 26t-26 64z
" />
    <glyph glyph-name="Racute" unicode="&#x154;" horiz-adv-x="1079" 
d="M785 469l227 -353q18 -24 14.5 -55.5t-31.5 -51.5t-58.5 -14t-50.5 33l-241 390zM1032 785q0 -104 -41 -190t-110.5 -148t-162.5 -96t-197 -34h-235v-243q0 -33 -23 -56t-56 -23t-56 23t-23 56v1116q0 13 -3.5 26t-3.5 24q0 15 12 24t49 9h339q104 0 197 -37
t162.5 -102.5t110.5 -155t41 -193.5zM876 782q0 73 -28 136t-76.5 109t-113 72.5t-137.5 26.5h-237v-666h237q73 0 137.5 23t113 65t76.5 101.5t28 132.5zM606 1619q36 0 56 -23.5t15 -57.5q-2 -15 -23 -37.5t-47.5 -43.5t-51.5 -36t-35 -16q-18 -5 -36 3q-14 4 -22.5 14.5
t-10.5 25.5q-3 13 2 28q1 8 18 31.5t40.5 48t49 44t45.5 19.5z" />
    <glyph glyph-name="Omacron" unicode="&#x14c;" horiz-adv-x="1394" 
d="M60 631q0 131 50 247t136.5 202.5t202.5 137t248 50.5q131 0 246.5 -50.5t202 -137t137 -202.5t50.5 -247q0 -132 -50.5 -247.5t-137 -202t-202 -136.5t-246.5 -50q-132 0 -248 50t-202.5 136.5t-136.5 202t-50 247.5zM218 630q0 -99 37.5 -186t102.5 -152.5
t152.5 -103.5t186.5 -38t186 38t152 103.5t102.5 153t37.5 186.5t-37.5 186.5t-102.5 152.5t-152 103t-186 38t-186.5 -38t-152.5 -103t-102.5 -153t-37.5 -187zM986 1505q24 0 41 -18t17 -44q0 -24 -17 -42.5t-41 -18.5h-562q-24 0 -41 18.5t-17 42.5q0 26 17 44t41 18h562
z" />
    <glyph glyph-name="Scedilla" unicode="&#x15e;" horiz-adv-x="979" 
d="M808 967q-22 -2 -37.5 6t-36.5 28q-29 31 -56.5 54t-57.5 38.5t-63 23t-72 7.5q-40 0 -81 -12.5t-74.5 -35.5t-55 -56.5t-21.5 -75.5q0 -45 28.5 -79.5t75.5 -62.5t107 -53l123 -51.5t123 -57.5t107 -71.5t75.5 -93t28.5 -122.5q0 -81 -37.5 -147t-99.5 -113.5t-143 -73
t-169 -25.5q-87 0 -156.5 21t-120.5 55.5t-84.5 77t-48.5 86.5q-4 16 -3 33.5t8 32t21 23.5t36 9q19 0 35.5 -10t32.5 -27q14 -28 40.5 -55.5t63 -49t81.5 -34.5t95 -13q49 0 99.5 13.5t91.5 39t67 63.5t26 86t-28 84t-74.5 65.5t-105.5 54.5l-120.5 51t-120 56t-105 69.5
t-74.5 91t-28 120.5q0 73 31.5 133.5t85.5 104t125.5 67.5t151.5 24q72 0 141 -22.5t124 -57t88.5 -74.5t33.5 -75q0 -21 -6.5 -34.5t-17 -21.5t-23.5 -11t-26 -3zM419 53h23.5t33 0.5t33 0.5h23.5v-25.5v-36.5t0.5 -33.5t1.5 -16.5q3 -10 14 -15q20 -9 38.5 -24.5t33 -37
t22 -49t6.5 -60.5q-3 -31 -16 -57.5t-34 -46t-49 -31t-60 -12.5q-31 -2 -59 8t-49.5 28t-35.5 41.5t-18 50.5q-3 12 -1.5 25t8 23.5t17.5 17t28 6.5q23 0 33.5 -13.5t18 -30.5t17.5 -31t33 -14q22 0 39 13.5t16 40.5q0 18 -9 29t-21.5 19.5t-27.5 15.5t-28 16.5t-21.5 23
t-8.5 35.5z" />
    <glyph glyph-name="Scircumflex" unicode="&#x15c;" horiz-adv-x="979" 
d="M808 967q-22 -2 -37.5 6t-36.5 28q-29 31 -56.5 54t-57.5 38.5t-63 23t-72 7.5q-40 0 -81 -12.5t-74.5 -35.5t-55 -56.5t-21.5 -75.5q0 -45 28.5 -79.5t75.5 -62.5t107 -53l123 -51.5t123 -57.5t107 -71.5t75.5 -93t28.5 -122.5q0 -81 -37.5 -147t-99.5 -113.5t-143 -73
t-169 -25.5q-87 0 -156.5 21t-120.5 55.5t-84.5 77t-48.5 86.5q-4 16 -3 33.5t8 32t21 23.5t36 9q19 0 35.5 -10t32.5 -27q14 -28 40.5 -55.5t63 -49t81.5 -34.5t95 -13q49 0 99.5 13.5t91.5 39t67 63.5t26 86t-28 84t-74.5 65.5t-105.5 54.5l-120.5 51t-120 56t-105 69.5
t-74.5 91t-28 120.5q0 73 31.5 133.5t85.5 104t125.5 67.5t151.5 24q72 0 141 -22.5t124 -57t88.5 -74.5t33.5 -75q0 -21 -6.5 -34.5t-17 -21.5t-23.5 -11t-26 -3zM468 1635q17 18 39.5 19.5t40.5 -12.5l167 -163q22 -22 27 -48.5t-15 -47.5q-22 -22 -50.5 -14.5t-56.5 36.5
l-109 109l-107 -108q-29 -29 -57 -37.5t-51 14.5q-14 14 -15.5 29.5t4.5 30.5t17.5 29t23.5 26z" />
    <glyph glyph-name="Scommaaccent" unicode="&#x218;" horiz-adv-x="979" 
d="M808 967q-22 -2 -37.5 6t-36.5 28q-29 31 -56.5 54t-57.5 38.5t-63 23t-72 7.5q-40 0 -81 -12.5t-74.5 -35.5t-55 -56.5t-21.5 -75.5q0 -45 28.5 -79.5t75.5 -62.5t107 -53l123 -51.5t123 -57.5t107 -71.5t75.5 -93t28.5 -122.5q0 -81 -37.5 -147t-99.5 -113.5t-143 -73
t-169 -25.5q-87 0 -156.5 21t-120.5 55.5t-84.5 77t-48.5 86.5q-4 16 -3 33.5t8 32t21 23.5t36 9q19 0 35.5 -10t32.5 -27q14 -28 40.5 -55.5t63 -49t81.5 -34.5t95 -13q49 0 99.5 13.5t91.5 39t67 63.5t26 86t-28 84t-74.5 65.5t-105.5 54.5l-120.5 51t-120 56t-105 69.5
t-74.5 91t-28 120.5q0 73 31.5 133.5t85.5 104t125.5 67.5t151.5 24q72 0 141 -22.5t124 -57t88.5 -74.5t33.5 -75q0 -21 -6.5 -34.5t-17 -21.5t-23.5 -11t-26 -3zM523 -195q36 0 62 -25.5t22 -69.5q-11 -46 -30 -80t-40 -57t-42 -34.5t-35 -12.5q-18 0 -33 16t-17 50
q-2 14 2 45.5t11 63.5q3 21 11.5 39.5t21 33t29.5 23t38 8.5z" />
    <glyph glyph-name="Wcircumflex" unicode="&#x174;" horiz-adv-x="1638" 
d="M758 830q-10 27 -3 54t37 38q27 10 54 -1.5t38 -39.5l274 -753l25 -25q6 -15 5.5 -31t-7 -30t-18 -24.5t-26.5 -16.5q-32 -11 -61 1.5t-41 43.5zM1185 46q-13 -31 -41 -43.5t-60 -1.5q-15 6 -26.5 16.5t-18 24.5t-7.5 30t5 31l25 25l392 1095q5 13 15 20.5t23 9.5
q11 12 28.5 16.5t35.5 -2.5q32 -12 44.5 -41.5t1.5 -59.5zM36 1166q-11 31 1.5 60t44.5 41q30 12 60 -0.5t41 -43.5l392 -1095l25 -25q6 -15 5.5 -31t-7 -30t-18 -24.5t-26.5 -16.5q-32 -11 -61 1.5t-41 43.5zM602 46q-13 -31 -41 -43.5t-60 -1.5q-15 6 -26.5 16.5t-18 24.5
t-7.5 30t5 31l26 25l269 753q10 29 37.5 40.5t55.5 0.5q29 -11 36.5 -38t-3.5 -55zM794 1598q17 18 39.5 19.5t40.5 -12.5l167 -163q22 -22 27 -48.5t-15 -47.5q-22 -22 -50.5 -14.5t-56.5 36.5l-109 109l-107 -108q-29 -29 -57 -37.5t-51 14.5q-14 14 -15.5 29.5t4.5 30.5
t17.5 29t23.5 26z" />
    <glyph glyph-name="Wdieresis" unicode="&#x1e84;" horiz-adv-x="1638" 
d="M758 830q-10 27 -3 54t37 38q27 10 54 -1.5t38 -39.5l274 -753l25 -25q6 -15 5.5 -31t-7 -30t-18 -24.5t-26.5 -16.5q-32 -11 -61 1.5t-41 43.5zM1185 46q-13 -31 -41 -43.5t-60 -1.5q-15 6 -26.5 16.5t-18 24.5t-7.5 30t5 31l25 25l392 1095q5 13 15 20.5t23 9.5
q11 12 28.5 16.5t35.5 -2.5q32 -12 44.5 -41.5t1.5 -59.5zM36 1166q-11 31 1.5 60t44.5 41q30 12 60 -0.5t41 -43.5l392 -1095l25 -25q6 -15 5.5 -31t-7 -30t-18 -24.5t-26.5 -16.5q-32 -11 -61 1.5t-41 43.5zM602 46q-13 -31 -41 -43.5t-60 -1.5q-15 6 -26.5 16.5t-18 24.5
t-7.5 30t5 31l26 25l269 753q10 29 37.5 40.5t55.5 0.5q29 -11 36.5 -38t-3.5 -55zM589 1424q0 35 23.5 59t58.5 24q34 0 58.5 -24t24.5 -59t-24.5 -58.5t-58.5 -23.5q-35 0 -58.5 23.5t-23.5 58.5zM896 1424q0 35 23.5 59t57.5 24q35 0 59 -24t24 -59t-24 -58.5t-59 -23.5
q-34 0 -57.5 23.5t-23.5 58.5z" />
    <glyph glyph-name="Wgrave" unicode="&#x1e80;" horiz-adv-x="1638" 
d="M758 830q-10 27 -3 54t37 38q27 10 54 -1.5t38 -39.5l274 -753l25 -25q6 -15 5.5 -31t-7 -30t-18 -24.5t-26.5 -16.5q-32 -11 -61 1.5t-41 43.5zM1185 46q-13 -31 -41 -43.5t-60 -1.5q-15 6 -26.5 16.5t-18 24.5t-7.5 30t5 31l25 25l392 1095q5 13 15 20.5t23 9.5
q11 12 28.5 16.5t35.5 -2.5q32 -12 44.5 -41.5t1.5 -59.5zM36 1166q-11 31 1.5 60t44.5 41q30 12 60 -0.5t41 -43.5l392 -1095l25 -25q6 -15 5.5 -31t-7 -30t-18 -24.5t-26.5 -16.5q-32 -11 -61 1.5t-41 43.5zM602 46q-13 -31 -41 -43.5t-60 -1.5q-15 6 -26.5 16.5t-18 24.5
t-7.5 30t5 31l26 25l269 753q10 29 37.5 40.5t55.5 0.5q29 -11 36.5 -38t-3.5 -55zM707 1564q19 0 45 -19.5t49.5 -44t40 -48t17.5 -31.5q2 -7 3.5 -14.5t-0.5 -13.5q-2 -15 -10.5 -25.5t-22.5 -14.5q-18 -8 -36 -3q-10 1 -35 16t-51.5 36t-47.5 43.5t-23 37.5
q-5 34 15 57.5t56 23.5z" />
    <glyph glyph-name="Uhungarumlaut" unicode="&#x170;" horiz-adv-x="1272" 
d="M104 1185q-1 13 -4.5 25.5t-3.5 24.5q0 15 12 24t49 9q22 0 40.5 -5t32.5 -17t22 -32.5t9 -51.5v-670q0 -73 26 -136.5t74.5 -110.5t118.5 -74t159 -27q84 0 153.5 27t120 74.5t78.5 111t28 135.5l-1 693q0 13 -3.5 25.5t-3.5 24.5q0 15 12 24t49 9q23 0 42 -5t33 -17
t21.5 -33t7.5 -53l1 -666q-1 -105 -40 -197.5t-109.5 -161t-169.5 -108.5t-219 -40q-122 0 -221 39.5t-169 108t-107.5 161t-37.5 198.5v691zM862 1595q16 0 30 -6.5t24 -17.5t14.5 -25.5t2.5 -31.5q-2 -23 -23 -46.5t-47.5 -42.5t-51.5 -31t-35 -13q-18 -5 -36 3
q-14 4 -22.5 14.5t-10.5 25.5q-2 6 -0.5 13.5t3.5 14.5q1 8 14 31.5t34 48t48 44t56 19.5zM495 1595q16 0 29.5 -6.5t23.5 -17.5t14.5 -25.5t2.5 -31.5q-2 -23 -23 -46.5t-47.5 -42.5t-51.5 -31t-35 -13q-18 -5 -35 3q-29 8 -34 40q-1 6 0 13.5t3 14.5q1 8 14 31.5t34 48
t48 44t57 19.5z" />
    <glyph glyph-name="Ubreve" unicode="&#x16c;" horiz-adv-x="1273" 
d="M104 1185q-1 13 -4.5 25.5t-3.5 24.5q0 15 12 24t49 9q22 0 40.5 -5t32.5 -17t22 -32.5t9 -51.5v-670q0 -73 26 -136.5t74.5 -110.5t118.5 -74t159 -27q84 0 153.5 27t120 74.5t78.5 111t28 135.5l-1 693q0 13 -3.5 25.5t-3.5 24.5q0 15 12 24t49 9q23 0 42 -5t33 -17
t21.5 -33t7.5 -53l1 -666q-1 -105 -40 -197.5t-109.5 -161t-169.5 -108.5t-219 -40q-122 0 -221 39.5t-169 108t-107.5 161t-37.5 198.5v691zM618 1387q-40 0 -75 14t-61.5 39t-42 58.5t-15.5 71.5q0 26 17 44.5t43 18.5q20 0 29.5 -9.5t15 -24.5t9.5 -31.5t12 -31.5
t23.5 -24.5t44.5 -9.5t45 9.5t24.5 24.5t12.5 31.5t9.5 31.5t15 24.5t29.5 9.5q26 0 43 -18t17 -44q0 -39 -16 -72.5t-43 -58.5t-62.5 -39t-74.5 -14z" />
    <glyph glyph-name="hungarumlaut" unicode="&#x2dd;" horiz-adv-x="669" 
d="M544 1300q16 0 30 -6.5t24 -17.5t14.5 -25.5t2.5 -31.5q-2 -23 -23 -46.5t-47.5 -42.5t-51.5 -31t-35 -13q-18 -5 -36 3q-14 4 -22.5 14.5t-10.5 25.5q-2 6 -0.5 13.5t3.5 14.5q1 8 14 31.5t34 48t48 44t56 19.5zM177 1300q16 0 29.5 -6.5t23.5 -17.5t14.5 -25.5
t2.5 -31.5q-2 -23 -23 -46.5t-47.5 -42.5t-51.5 -31t-35 -13q-18 -5 -35 3q-29 8 -34 40q-1 6 0 13.5t3 14.5q1 8 14 31.5t34 48t48 44t57 19.5z" />
    <glyph glyph-name="Kcommaaccent" unicode="&#x136;" horiz-adv-x="1183" 
d="M182 1271q50 0 77 -25t27 -88v-507l691 584q25 21 45 27.5t39 1.5q20 -2 40 -16.5t23 -37.5q7 -27 -3.5 -52t-36.5 -45l-396 -323l420 -656q10 -17 16 -28.5t7.5 -21t0 -19.5t-4.5 -22q-6 -21 -25.5 -36t-47.5 -15q-25 0 -45 13t-43 51l-399 637l-282 -234l1 -351
q0 -50 -18.5 -81.5t-60.5 -31.5q-44 0 -61.5 30.5t-17.5 81.5v1082q0 13 -3.5 25.5t-3.5 24.5q0 14 12 23t49 9zM621 -145q36 0 62 -25.5t22 -69.5q-11 -46 -30 -80t-40 -57t-42 -34.5t-35 -12.5q-18 0 -33 16t-17 50q-2 14 2 45.5t11 63.5q3 21 11.5 39.5t21 33t29.5 23
t38 8.5z" />
    <glyph glyph-name="Tcommaaccent" unicode="&#x162;" horiz-adv-x="1091" 
d="M1060 1190q0 -36 -24 -57.5t-62 -21.5h-349l-1 -1037q-1 -33 -22 -56t-56 -23t-56.5 22.5t-21.5 56.5l-1 1037h-352q-36 0 -60.5 21.5t-24.5 57.5q0 31 23.5 55t61.5 24h857q38 0 63 -20.5t25 -58.5zM550 -112q36 0 62 -25.5t22 -69.5q-11 -46 -30 -80t-40 -57t-42 -34.5
t-35 -12.5q-18 0 -33 16t-17 50q-2 14 2 45.5t11 63.5q3 21 11.5 39.5t21 33t29.5 23t38 8.5z" />
    <glyph glyph-name="Ycircumflex" unicode="&#x176;" horiz-adv-x="1185" 
d="M517 608q0 32 22.5 55.5t56.5 23.5q33 0 56 -23.5t23 -55.5v-534q0 -33 -23 -56t-56 -23q-34 0 -56.5 23t-22.5 56v534zM1028 1245q10 12 24 18t29.5 6t30.5 -5.5t27 -17.5q23 -23 23 -54.5t-21 -56.5l-501 -612q-12 -12 -17 -9t-9 14l-9 26t-17 27q-24 25 -23.5 55.5
t24.5 53.5zM601 690q24 -23 24.5 -53.5t-23.5 -55.5q-12 -11 -18 -25.5t-11.5 -24.5t-11.5 -12.5t-17 9.5l-494 607q-21 25 -22 56.5t23 54.5q12 12 27 17.5t30.5 5.5t29.5 -6t24 -18zM571 1631q17 18 39.5 19.5t40.5 -12.5l167 -163q22 -22 27 -48.5t-15 -47.5
q-22 -22 -50.5 -14.5t-56.5 36.5l-109 109l-107 -108q-29 -29 -57 -37.5t-51 14.5q-14 14 -15.5 29.5t4.5 30.5t17.5 29t23.5 26z" />
    <glyph glyph-name="Ygrave" unicode="&#x1ef2;" horiz-adv-x="1185" 
d="M517 608q0 32 22.5 55.5t56.5 23.5q33 0 56 -23.5t23 -55.5v-534q0 -33 -23 -56t-56 -23q-34 0 -56.5 23t-22.5 56v534zM1028 1245q10 12 24 18t29.5 6t30.5 -5.5t27 -17.5q23 -23 23 -54.5t-21 -56.5l-501 -612q-12 -12 -17 -9t-9 14l-9 26t-17 27q-24 25 -23.5 55.5
t24.5 53.5zM601 690q24 -23 24.5 -53.5t-23.5 -55.5q-12 -11 -18 -25.5t-11.5 -24.5t-11.5 -12.5t-17 9.5l-494 607q-21 25 -22 56.5t23 54.5q12 12 27 17.5t30.5 5.5t29.5 -6t24 -18zM463 1597q19 0 45 -19.5t49.5 -44t40 -48t17.5 -31.5q2 -7 3.5 -14.5t-0.5 -13.5
q-2 -15 -10.5 -25.5t-22.5 -14.5q-18 -8 -36 -3q-10 1 -35 16t-51.5 36t-47.5 43.5t-23 37.5q-5 34 15 57.5t56 23.5z" />
    <glyph glyph-name="Zacute" unicode="&#x179;" horiz-adv-x="1138" 
d="M1071 1190q0 -13 -9.5 -31.5t-22.5 -38t-28 -39l-27 -34.5l-697 -898h728q37 0 59 -20.5t22 -54.5q0 -18 -7 -32.5t-18.5 -25t-25.5 -16t-29 -5.5h-867q-29 0 -53 11.5t-31 43.5q-8 28 3.5 56t34.5 59l180 232.5l189 242.5l189.5 242.5l182.5 232.5l-670 -2
q-36 0 -58.5 23t-22.5 54q0 14 5 28t15.5 25.5t26 18.5t35.5 7h811q21 0 36.5 -7t26.5 -18t16.5 -25t5.5 -29zM643 1606q36 0 56 -23.5t15 -57.5q-2 -15 -23 -37.5t-47.5 -43.5t-51.5 -36t-35 -16q-18 -5 -36 3q-14 4 -22.5 14.5t-10.5 25.5q-3 13 2 28q1 8 18 31.5t40.5 48
t49 44t45.5 19.5z" />
    <glyph glyph-name="Umacron" unicode="&#x16a;" horiz-adv-x="1273" 
d="M104 1185q-1 13 -4.5 25.5t-3.5 24.5q0 15 12 24t49 9q22 0 40.5 -5t32.5 -17t22 -32.5t9 -51.5v-670q0 -73 26 -136.5t74.5 -110.5t118.5 -74t159 -27q84 0 153.5 27t120 74.5t78.5 111t28 135.5l-1 693q0 13 -3.5 25.5t-3.5 24.5q0 15 12 24t49 9q23 0 42 -5t33 -17
t21.5 -33t7.5 -53l1 -666q-1 -105 -40 -197.5t-109.5 -161t-169.5 -108.5t-219 -40q-122 0 -221 39.5t-169 108t-107.5 161t-37.5 198.5v691zM892 1523q24 0 41 -18t17 -44q0 -24 -17 -42.5t-41 -18.5h-562q-24 0 -41 18.5t-17 42.5q0 26 17 44t41 18h562z" />
    <glyph glyph-name="Uogonek" unicode="&#x172;" horiz-adv-x="1273" 
d="M104 1185q-1 13 -4.5 25.5t-3.5 24.5q0 15 12 24t49 9q22 0 40.5 -5t32.5 -17t22 -32.5t9 -51.5v-670q0 -73 26 -136.5t74.5 -110.5t118.5 -74t159 -27q84 0 153.5 27t120 74.5t78.5 111t28 135.5l-1 693q0 13 -3.5 25.5t-3.5 24.5q0 15 12 24t49 9q23 0 42 -5t33 -17
t21.5 -33t7.5 -53l1 -666q-1 -105 -40 -197.5t-109.5 -161t-169.5 -108.5t-219 -40q-122 0 -221 39.5t-169 108t-107.5 161t-37.5 198.5v691zM895 165q19 17 40.5 14t35.5 -17t15.5 -35t-19.5 -40l-57 -52l-30.5 -26.5t-24 -22.5t-16 -22.5t-5.5 -25.5q0 -19 12 -33.5
t35 -14.5q16 0 24.5 7.5t13.5 18t9 23.5t10 23.5t16.5 18t28.5 7.5q21 0 37.5 -14.5t16.5 -37.5q0 -33 -12.5 -62t-34 -50.5t-50.5 -33.5t-62 -12q-35 0 -64.5 12t-51 33.5t-34 50.5t-12.5 62q0 29 12 54.5t35 52t56 56z" />
    <glyph glyph-name="Uring" unicode="&#x16e;" horiz-adv-x="1274" 
d="M104 1185q-1 13 -4.5 25.5t-3.5 24.5q0 15 12 24t49 9q22 0 40.5 -5t32.5 -17t22 -32.5t9 -51.5v-670q0 -73 26 -136.5t74.5 -110.5t118.5 -74t159 -27q84 0 153.5 27t120 74.5t78.5 111t28 135.5l-1 693q0 13 -3.5 25.5t-3.5 24.5q0 15 12 24t49 9q23 0 42 -5t33 -17
t21.5 -33t7.5 -53l1 -666q-1 -105 -40 -197.5t-109.5 -161t-169.5 -108.5t-219 -40q-122 0 -221 39.5t-169 108t-107.5 161t-37.5 198.5v691zM470 1524q0 31 12 58.5t32 48t47.5 32.5t58.5 12t58.5 -12t48.5 -32.5t33 -48t12 -58.5t-12 -58.5t-33 -48t-48.5 -32.5t-58.5 -12
t-58.5 12t-47.5 32.5t-32 48t-12 58.5zM559 1524q0 -27 18 -45.5t44 -18.5t43.5 18.5t17.5 45.5q0 26 -17.5 45t-43.5 19t-44 -19t-18 -45z" />
    <glyph glyph-name="Utilde" unicode="&#x168;" horiz-adv-x="1273" 
d="M104 1185q-1 13 -4.5 25.5t-3.5 24.5q0 15 12 24t49 9q22 0 40.5 -5t32.5 -17t22 -32.5t9 -51.5v-670q0 -73 26 -136.5t74.5 -110.5t118.5 -74t159 -27q84 0 153.5 27t120 74.5t78.5 111t28 135.5l-1 693q0 13 -3.5 25.5t-3.5 24.5q0 15 12 24t49 9q23 0 42 -5t33 -17
t21.5 -33t7.5 -53l1 -666q-1 -105 -40 -197.5t-109.5 -161t-169.5 -108.5t-219 -40q-122 0 -221 39.5t-169 108t-107.5 161t-37.5 198.5v691zM812 1576q10 10 27 10t29.5 -10t17 -28t-8.5 -43q-25 -49 -65 -76.5t-96 -27.5q-29 0 -49 8.5t-35.5 21t-27.5 27.5t-25 27.5
t-28 21t-36 8.5q-26 0 -41 -10.5t-25.5 -24t-20.5 -25t-25 -12.5q-9 -2 -19 2q-16 4 -22.5 15t-7.5 24t3.5 27t10.5 25q26 46 64 69q10 7 19.5 11t20.5 7q19 6 42 6q33 0 55.5 -8.5t38.5 -21t28 -27.5t24 -27.5t26.5 -21t35.5 -8.5q12 0 21.5 5t19 13t21 19.5t28.5 23.5z
" />
    <glyph glyph-name="Nacute" unicode="&#x143;" horiz-adv-x="1363" 
d="M1241 79q0 -34 -21 -59t-57 -25q-25 0 -47 17.5t-37 34.5l-794 925v-898q0 -34 -22.5 -56.5t-55.5 -22.5q-35 0 -57 23t-22 54v1113q0 14 -3.5 24.5t-3.5 27.5q0 14 12 22.5t49 8.5t58.5 -11.5t43.5 -34.5l800 -938v899q0 16 -4 27t-4 25q0 8 2 14.5t9.5 10.5t22 6
t39.5 2q48 0 70 -21.5t22 -59.5v-1108zM765 1578q36 0 56 -23.5t15 -57.5q-2 -15 -23 -37.5t-47.5 -43.5t-51.5 -36t-35 -16q-18 -5 -36 3q-14 4 -22.5 14.5t-10.5 25.5q-3 13 2 28q1 8 18 31.5t40.5 48t49 44t45.5 19.5z" />
    <glyph glyph-name="Rcommaaccent" unicode="&#x156;" horiz-adv-x="1079" 
d="M785 469l227 -353q18 -24 14.5 -55.5t-31.5 -51.5t-58.5 -14t-50.5 33l-241 390zM1032 785q0 -104 -41 -190t-110.5 -148t-162.5 -96t-197 -34h-235v-243q0 -33 -23 -56t-56 -23t-56 23t-23 56v1116q0 13 -3.5 26t-3.5 24q0 15 12 24t49 9h339q104 0 197 -37
t162.5 -102.5t110.5 -155t41 -193.5zM876 782q0 73 -28 136t-76.5 109t-113 72.5t-137.5 26.5h-237v-666h237q73 0 137.5 23t113 65t76.5 101.5t28 132.5zM540 -111q36 0 62 -25.5t22 -69.5q-11 -46 -30 -80t-40 -57t-42 -34.5t-35 -12.5q-18 0 -33 16t-17 50q-2 14 2 45.5
t11 63.5q3 21 11.5 39.5t21 33t29.5 23t38 8.5z" />
    <glyph glyph-name="Jcircumflex" unicode="&#x134;" horiz-adv-x="401" 
d="M-123 -237q0 33 23.5 56t58.5 23q42 1 74 19t53.5 48.5t32.5 72t11 89.5l-2 1097q0 17 -1.5 26.5t-3 15.5t-2.5 11.5t-1 13.5q0 14 11 23.5t48 9.5q55 0 82 -25t27 -87v-996q0 -100 -16.5 -186.5t-55.5 -151t-102.5 -101.5t-157.5 -37q-33 0 -56 23t-23 56zM159 1628
q17 18 39.5 19.5t40.5 -12.5l167 -163q22 -22 27 -48.5t-15 -47.5q-22 -22 -50.5 -14.5t-56.5 36.5l-109 109l-107 -108q-29 -29 -57 -37.5t-51 14.5q-14 14 -15.5 29.5t4.5 30.5t17.5 29t23.5 26z" />
    <glyph glyph-name="Tbar" unicode="&#x166;" horiz-adv-x="1091" 
d="M1060 1190q0 -36 -24 -57.5t-62 -21.5h-349l-1 -1037q-1 -33 -22 -56t-56 -23t-56.5 22.5t-21.5 56.5l-1 1037h-352q-36 0 -60.5 21.5t-24.5 57.5q0 31 23.5 55t61.5 24h857q38 0 63 -20.5t25 -58.5zM827 687q24 0 41 -18t17 -44q0 -24 -17 -42.5t-41 -18.5h-562
q-24 0 -41 18.5t-17 42.5q0 26 17 44t41 18h562z" />
    <glyph glyph-name="Zdotaccent" unicode="&#x17b;" horiz-adv-x="1138" 
d="M1071 1190q0 -13 -9.5 -31.5t-22.5 -38t-28 -39l-27 -34.5l-697 -898h728q37 0 59 -20.5t22 -54.5q0 -18 -7 -32.5t-18.5 -25t-25.5 -16t-29 -5.5h-867q-29 0 -53 11.5t-31 43.5q-8 28 3.5 56t34.5 59l180 232.5l189 242.5l189.5 242.5l182.5 232.5l-670 -2
q-36 0 -58.5 23t-22.5 54q0 14 5 28t15.5 25.5t26 18.5t35.5 7h811q21 0 36.5 -7t26.5 -18t16.5 -25t5.5 -29zM466 1468q0 38 26 65t65 27q19 0 36 -7t29.5 -19.5t19.5 -29.5t7 -36q0 -38 -27 -64t-65 -26q-39 0 -65 26t-26 64z" />
    <glyph glyph-name="IJ" unicode="&#x132;" horiz-adv-x="842" 
d="M286 80q0 -15 -5 -30.5t-15 -27.5t-25 -19.5t-34 -7.5q-20 0 -35 8.5t-25 21t-14.5 27.5t-4.5 28v1105q0 13 -3.5 25.5t-3.5 24.5q0 15 12 24t49 9q45 0 73.5 -18t30.5 -62v-1108zM324 -237q0 33 23.5 56t58.5 23q42 1 74 19t53.5 48.5t32.5 72t11 89.5l-2 1097
q0 17 -1.5 26.5t-3 15.5t-2.5 11.5t-1 13.5q0 14 11 23.5t48 9.5q55 0 82 -25t27 -87v-996q0 -100 -16.5 -186.5t-55.5 -151t-102.5 -101.5t-157.5 -37q-33 0 -56 23t-23 56z" />
    <glyph glyph-name="periodcentered" horiz-adv-x="1684" 
 />
    <glyph glyph-name="dcroat" unicode="&#x111;" horiz-adv-x="1159" 
d="M880 1203q0 33 23.5 56t55.5 23q35 0 57 -23t22 -56v-1168q0 -20 -11 -31t-31 -11q-14 0 -27.5 6t-24.5 19.5t-19 36t-11 56.5l-21 109l-13 25v958zM992 482q0 -101 -33 -190t-92.5 -155.5t-143 -105t-184.5 -38.5t-188.5 38.5t-152 105t-101.5 155.5t-37 190t37 190
t101.5 155.5t152 105t188.5 38.5q92 0 174.5 -38.5t144.5 -105t98 -155.5t36 -190zM880 482q0 70 -26 131.5t-70.5 107.5t-105 72.5t-129.5 26.5t-129 -26.5t-104 -72.5t-69.5 -107.5t-25.5 -131.5q0 -69 25.5 -130.5t69.5 -107.5t104 -73t129 -27t129.5 27t105 73
t70.5 107.5t26 130.5zM1241 1151q24 0 41 -18t17 -44q0 -24 -17 -42.5t-41 -18.5h-562q-24 0 -41 18.5t-17 42.5q0 26 17 44t41 18h562z" />
    <glyph glyph-name="edotaccent" unicode="&#x117;" horiz-adv-x="1100" 
d="M549 -5q-101 0 -189.5 38.5t-155.5 104.5t-105.5 154.5t-38.5 189.5q0 110 40.5 200.5t109 155t159.5 100t192 35.5t188.5 -37t152 -101.5t101.5 -152.5t37 -190q0 -18 -3 -30t-12 -19t-26.5 -10t-46.5 -3h-729q5 -62 32.5 -116.5t71.5 -95.5t101 -65t122 -24
q61 0 119 21.5t103 63.5q15 10 36 12t39.5 -5.5t32 -23.5t13.5 -41q0 -30 -31.5 -59t-81.5 -51.5t-111 -36.5t-120 -14zM561 840q-65 0 -123 -23t-103.5 -63.5t-75 -94.5t-36.5 -117h657q-5 63 -31.5 117t-69 94.5t-98.5 63.5t-120 23zM482 1181q0 38 26 65t65 27
q19 0 36 -7t29.5 -19.5t19.5 -29.5t7 -36q0 -38 -27 -64t-65 -26q-39 0 -65 26t-26 64z" />
    <glyph glyph-name="emacron" unicode="&#x113;" horiz-adv-x="1100" 
d="M549 -5q-101 0 -189.5 38.5t-155.5 104.5t-105.5 154.5t-38.5 189.5q0 110 40.5 200.5t109 155t159.5 100t192 35.5t188.5 -37t152 -101.5t101.5 -152.5t37 -190q0 -18 -3 -30t-12 -19t-26.5 -10t-46.5 -3h-729q5 -62 32.5 -116.5t71.5 -95.5t101 -65t122 -24
q61 0 119 21.5t103 63.5q15 10 36 12t39.5 -5.5t32 -23.5t13.5 -41q0 -30 -31.5 -59t-81.5 -51.5t-111 -36.5t-120 -14zM561 840q-65 0 -123 -23t-103.5 -63.5t-75 -94.5t-36.5 -117h657q-5 63 -31.5 117t-69 94.5t-98.5 63.5t-120 23zM832 1177q24 0 41 -18t17 -44
q0 -24 -17 -42.5t-41 -18.5h-562q-24 0 -41 18.5t-17 42.5q0 26 17 44t41 18h562z" />
    <glyph glyph-name="eogonek" unicode="&#x119;" horiz-adv-x="1100" 
d="M549 -5q-101 0 -189.5 38.5t-155.5 104.5t-105.5 154.5t-38.5 189.5q0 110 40.5 200.5t109 155t159.5 100t192 35.5t188.5 -37t152 -101.5t101.5 -152.5t37 -190q0 -18 -3 -30t-12 -19t-26.5 -10t-46.5 -3h-729q5 -62 32.5 -116.5t71.5 -95.5t101 -65t122 -24
q61 0 119 21.5t103 63.5q15 10 36 12t39.5 -5.5t32 -23.5t13.5 -41q0 -30 -31.5 -59t-81.5 -51.5t-111 -36.5t-120 -14zM561 840q-65 0 -123 -23t-103.5 -63.5t-75 -94.5t-36.5 -117h657q-5 63 -31.5 117t-69 94.5t-98.5 63.5t-120 23zM799 187q19 17 40.5 14t35.5 -17
t15.5 -35t-19.5 -40l-57 -52l-30.5 -26.5t-24 -22.5t-16 -22.5t-5.5 -25.5q0 -19 12 -33.5t35 -14.5q16 0 24.5 7.5t13.5 18t9 23.5t10 23.5t16.5 18t28.5 7.5q21 0 37.5 -14.5t16.5 -37.5q0 -33 -12.5 -62t-34 -50.5t-50.5 -33.5t-62 -12q-35 0 -64.5 12t-51 33.5t-34 50.5
t-12.5 62q0 29 12 54.5t35 52t56 56z" />
    <glyph glyph-name="hbar" unicode="&#x127;" 
d="M456.35 1177.44q22.2266 0 37.9717 -18.3369q15.7441 -18.3369 15.7441 -44.8242q0 -24.4502 -15.7441 -43.2969q-15.7451 -18.8467 -37.9717 -18.8467h-520.495q-22.2275 0 -37.9727 18.8467q-15.7441 18.8467 -15.7441 43.2969q0 26.4873 15.7441 44.8242
q15.7451 18.3369 37.9727 18.3369h520.495zM937 212v272q0 69 -23.5 130.5t-65.5 107.5t-100 72.5t-127 26.5q-71 0 -134 -31.5t-110.5 -83t-75 -117t-27.5 -132.5l-4 275q12 33 44 75t80.5 79t112 62t137.5 25q98 0 180.5 -38.5t142.5 -104.5t93.5 -155t33.5 -190v-291z
M116 1192q0 33 22 56t57 23q32 0 55.5 -23t23.5 -56v-1118q0 -33 -23.5 -56t-55.5 -23q-35 0 -57 23t-22 56v1118zM1094 239v-161q0 -32 -21 -57.5t-58 -25.5q-20 0 -34.5 8t-24.5 21t-14.5 29t-4.5 32v159z" />
    <glyph glyph-name="hcircumflex" unicode="&#x125;" 
d="M146 1623q17 18 39.5 19.5t40.5 -12.5l167 -163q22 -22 27 -48.5t-15 -47.5q-22 -22 -50.5 -14.5t-56.5 36.5l-109 109l-107 -108q-29 -29 -57 -37.5t-51 14.5q-14 14 -15.5 29.5t4.5 30.5t17.5 29t23.5 26zM937 212v272q0 69 -23.5 130.5t-65.5 107.5t-100 72.5
t-127 26.5q-71 0 -134 -31.5t-110.5 -83t-75 -117t-27.5 -132.5l-4 275q12 33 44 75t80.5 79t112 62t137.5 25q98 0 180.5 -38.5t142.5 -104.5t93.5 -155t33.5 -190v-291zM116 1192q0 33 22 56t57 23q32 0 55.5 -23t23.5 -56v-1118q0 -33 -23.5 -56t-55.5 -23q-35 0 -57 23
t-22 56v1118zM1094 239v-161q0 -32 -21 -57.5t-58 -25.5q-20 0 -34.5 8t-24.5 21t-14.5 29t-4.5 32v159z" />
    <glyph glyph-name="jcircumflex" unicode="&#x135;" horiz-adv-x="391" 
d="M-136 -272q0 26 15.5 45.5t41.5 26.5q86 8 139 66t57 167v847q0 36 20.5 64.5t58.5 28.5q19 0 34 -8t25 -21t15 -30t5 -34v-772q0 -98 -18 -182t-57.5 -145.5t-103 -96.5t-153.5 -35q-32 0 -55.5 22.5t-23.5 56.5zM155 1372q17 18 39.5 19.5t40.5 -12.5l167 -163
q22 -22 27 -48.5t-15 -47.5q-22 -22 -50.5 -14.5t-56.5 36.5l-109 109l-107 -108q-29 -29 -57 -37.5t-51 14.5q-14 14 -15.5 29.5t4.5 30.5t17.5 29t23.5 26z" />
    <glyph glyph-name="dotlessj" unicode="&#x237;" horiz-adv-x="390" 
d="M-136 -272q0 26 15.5 45.5t41.5 26.5q86 8 139 66t57 167v847q0 36 20.5 64.5t58.5 28.5q19 0 34 -8t25 -21t15 -30t5 -34v-772q0 -98 -18 -182t-57.5 -145.5t-103 -96.5t-153.5 -35q-32 0 -55.5 22.5t-23.5 56.5z" />
    <glyph glyph-name="lacute" unicode="&#x13a;" horiz-adv-x="390" 
d="M116 1192q0 33 22 56t57 23q32 0 55.5 -23t23.5 -56v-1118q0 -33 -23.5 -56t-55.5 -23q-35 0 -57 23t-22 56v1118zM328 1572q36 0 56 -23.5t15 -57.5q-2 -15 -23 -37.5t-47.5 -43.5t-51.5 -36t-35 -16q-18 -5 -36 3q-14 4 -22.5 14.5t-10.5 25.5q-3 13 2 28q1 8 18 31.5
t40.5 48t49 44t45.5 19.5z" />
    <glyph glyph-name="lcaron" unicode="&#x13e;" horiz-adv-x="390" 
d="M451 1362q34 0 58.5 -20.5t28.5 -51.5q5 -26 -9 -60t-37.5 -64.5t-53 -52t-56.5 -21.5q-26 0 -41.5 13.5t-15.5 45.5q-1 13 2.5 33.5t10 44t17 47.5t24.5 43t32 31t40 12zM116 1192q0 33 22 56t57 23q32 0 55.5 -23t23.5 -56v-1118q0 -33 -23.5 -56t-55.5 -23
q-35 0 -57 23t-22 56v1118z" />
    <glyph glyph-name="ldot" unicode="&#x140;" horiz-adv-x="469" 
d="M116 1192q0 33 22 56t57 23q32 0 55.5 -23t23.5 -56v-1118q0 -33 -23.5 -56t-55.5 -23q-35 0 -57 23t-22 56v1118zM346 636q0 19 7 36t19.5 29.5t29 19.5t35.5 7t36 -7t29.5 -19.5t20 -29.5t7.5 -36t-7.5 -35.5t-20 -28.5t-29.5 -19t-36 -7q-38 0 -64.5 26t-26.5 64z" />
    <glyph glyph-name="racute" unicode="&#x155;" horiz-adv-x="811" 
d="M235 759q13 24 39 55t62.5 60.5t83.5 54t102 35.5q29 4 71.5 3.5t81.5 -10t66.5 -29.5t27.5 -54q0 -23 -14 -39.5t-33 -23.5q-11 -3 -20 -3t-19.5 1l-25 2.5t-35.5 2.5q-29 2 -59.5 1.5t-61.5 -10.5q-43 -13 -81.5 -39.5t-68.5 -63t-50 -83t-27 -98.5zM116 931
q0 20 11 31t31 11q14 0 27 -5.5t24.5 -19t19.5 -36.5t11 -57l21 -184l13 -25v-572q0 -33 -23.5 -56t-55.5 -23q-35 0 -57 23t-22 56v857zM496 1306q36 0 56 -23.5t15 -57.5q-2 -15 -23 -37.5t-47.5 -43.5t-51.5 -36t-35 -16q-18 -5 -36 3q-14 4 -22.5 14.5t-10.5 25.5
q-3 13 2 28q1 8 18 31.5t40.5 48t49 44t45.5 19.5z" />
    <glyph glyph-name="rcommaaccent" unicode="&#x157;" horiz-adv-x="810" 
d="M235 759q13 24 39 55t62.5 60.5t83.5 54t102 35.5q29 4 71.5 3.5t81.5 -10t66.5 -29.5t27.5 -54q0 -23 -14 -39.5t-33 -23.5q-11 -3 -20 -3t-19.5 1l-25 2.5t-35.5 2.5q-29 2 -59.5 1.5t-61.5 -10.5q-43 -13 -81.5 -39.5t-68.5 -63t-50 -83t-27 -98.5zM116 931
q0 20 11 31t31 11q14 0 27 -5.5t24.5 -19t19.5 -36.5t11 -57l21 -184l13 -25v-572q0 -33 -23.5 -56t-55.5 -23q-35 0 -57 23t-22 56v857zM205 -84q36 0 62 -25.5t22 -69.5q-11 -46 -30 -80t-40 -57t-42 -34.5t-35 -12.5q-18 0 -33 16t-17 50q-2 14 2 45.5t11 63.5
q3 21 11.5 39.5t21 33t29.5 23t38 8.5z" />
    <glyph glyph-name="tbar" unicode="&#x167;" horiz-adv-x="641" 
d="M537 943q32 0 55 -22t23 -56q0 -16 -6 -30t-16.5 -24.5t-25 -16.5t-30.5 -6h-430q-33 0 -55.5 22.5t-22.5 54.5q0 34 22.5 56t55.5 22h430zM240 1192q0 33 22 56t57 23q33 0 56 -23t23 -56v-1118q0 -33 -23 -56t-56 -23q-35 0 -57 23t-22 56v1118zM582.886 602.807
q22.5039 0 38.4443 -19.3506q15.9414 -19.3506 15.9414 -47.3008q0 -25.7998 -15.9414 -45.6875q-15.9404 -19.8877 -38.4443 -19.8877h-526.979q-22.5039 0 -38.4443 19.8877q-15.9414 19.8877 -15.9414 45.6875q0 27.9502 15.9414 47.3008
q15.9404 19.3506 38.4443 19.3506h526.979z" />
    <glyph glyph-name="tcommaaccent" unicode="&#x163;" horiz-adv-x="642" 
d="M538 943q32 0 55 -22t23 -56q0 -16 -6 -30t-16.5 -24.5t-25 -16.5t-30.5 -6h-430q-33 0 -55.5 22.5t-22.5 54.5q0 34 22.5 56t55.5 22h430zM241 1192q0 33 22 56t57 23q33 0 56 -23t23 -56v-1118q0 -33 -23 -56t-56 -23q-35 0 -57 23t-22 56v1118zM328 -99q36 0 62 -25.5
t22 -69.5q-11 -46 -30 -80t-40 -57t-42 -34.5t-35 -12.5q-18 0 -33 16t-17 50q-2 14 2 45.5t11 63.5q3 21 11.5 39.5t21 33t29.5 23t38 8.5z" />
    <glyph glyph-name="tcaron" unicode="&#x165;" horiz-adv-x="642" 
d="M538 943q32 0 55 -22t23 -56q0 -16 -6 -30t-16.5 -24.5t-25 -16.5t-30.5 -6h-430q-33 0 -55.5 22.5t-22.5 54.5q0 34 22.5 56t55.5 22h430zM241 1192q0 33 22 56t57 23q33 0 56 -23t23 -56v-1118q0 -33 -23 -56t-56 -23q-35 0 -57 23t-22 56v1118zM659 1315
q34 0 58.5 -20.5t28.5 -51.5q5 -26 -9 -60t-37.5 -64.5t-53 -52t-56.5 -21.5q-26 0 -41.5 13.5t-15.5 45.5q-1 13 2.5 33.5t10 44t17 47.5t24.5 43t32 31t40 12z" />
    <glyph glyph-name="uogonek" unicode="&#x173;" 
d="M274 485q0 -69 23.5 -130.5t65.5 -107.5t100 -73t126 -27t131 28t111 75.5t77 109t29 128.5l42 -270q-24 -39 -65 -79t-94 -71.5t-116 -51.5t-130 -20q-101 0 -185 38.5t-144.5 104.5t-94.5 155t-34 190v409q0 14 5.5 28t15.5 25.5t24.5 19t32.5 7.5q34 0 57 -23.5
t23 -56.5v-408zM1094 37q0 -42 -42 -42q-14 0 -27 5.5t-24.5 19t-19.5 36t-11 57.5l-21 183l-12 25v573q0 33 23 56t55 23q35 0 57 -23t22 -56v-857zM1002 68q19 17 40.5 14t35.5 -17t15.5 -35t-19.5 -40l-57 -52l-30.5 -26.5t-24 -22.5t-16 -22.5t-5.5 -25.5
q0 -19 12 -33.5t35 -14.5q16 0 24.5 7.5t13.5 18t9 23.5t10 23.5t16.5 18t28.5 7.5q21 0 37.5 -14.5t16.5 -37.5q0 -33 -12.5 -62t-34 -50.5t-50.5 -33.5t-62 -12q-35 0 -64.5 12t-51 33.5t-34 50.5t-12.5 62q0 29 12 54.5t35 52t56 56z" />
    </font>
</defs>
</svg>
